<svg width="161" height="110" xmlns="http://www.w3.org/2000/svg"><g fill="none"><rect width="161" height="110" rx="4" fill="#006DB3"/><path d="M25.091 52.615v15.55h8.953v-1.697h-6.897v-5.413h6.212v-1.651h-6.212v-5.092h6.715v-1.697h-8.77zm13.704 15.55h-1.964V52.706l1.964-.917v16.376zm5.345 0h-1.965V56.697h1.965v11.468zm-2.01-15.871h2.055v2.339H42.13v-2.34zm11.19 15.688c-.548.183-1.325.275-2.01.275-2.512 0-3.152-1.193-3.152-3.945v-6.147h-1.736V56.79l1.736-.092v-2.569l1.919-.917v3.44h2.969v1.468h-2.97v6.193c0 1.651.366 2.294 1.645 2.294.457 0 1.05-.046 1.553-.138l.046 1.514zm3.517-6.285h5.436v-.137c0-2.248-.548-3.532-2.558-3.532-2.193 0-2.832 1.238-2.878 3.67zm7.263.092v1.193h-7.308c.091 2.844.913 3.807 3.882 3.807 1.097 0 2.056-.138 2.878-.367l.183 1.468c-.868.275-2.056.504-3.426.504-3.974 0-5.527-1.697-5.527-5.963v-.046c0-3.945 1.233-5.917 4.842-5.917 3.334 0 4.476 1.88 4.476 5.321zm5.39-.826h2.924c2.147 0 3.06-.825 3.06-3.302v-.046c0-2.477-.913-3.303-3.06-3.303H69.49v6.651zm0 7.202h-2.055v-15.55h4.979c3.7 0 5.162 1.284 5.162 5v.046c0 3.715-1.462 5-5.162 5H69.49v5.504zm16.17-2.385v-2.982l-1.187.046c-2.558.138-3.7.55-3.7 2.064v.046c0 1.376.594 1.88 2.01 1.88 1.188 0 2.147-.55 2.878-1.054zm1.92-5.138v5c0 .918.136 1.193.821 1.193.183 0 .412-.046.594-.046v1.284a5.245 5.245 0 0 1-1.187.138c-1.234 0-1.69-.55-1.828-1.33-.913.734-2.1 1.376-3.79 1.376-2.102 0-3.381-.918-3.381-3.12v-.045c0-2.844 2.101-3.395 5.527-3.532l1.279-.046v-.918c0-1.972-.502-2.568-2.467-2.568-1.005 0-2.284.229-3.289.458l-.228-1.422a14.5 14.5 0 0 1 3.974-.596c2.924 0 3.974 1.1 3.974 4.174zm8.815-2.248c-1.37.276-2.832.918-3.608 1.514v8.257h-1.965V56.697h1.508l.228 1.697c.777-.733 2.239-1.605 3.746-1.88l.091 1.88zm8.542 9.588c-.548.183-1.324.275-2.01.275-2.512 0-3.151-1.193-3.151-3.945v-6.147H98.04V56.79l1.736-.092v-2.523l1.918-.917v3.44h2.97v1.468h-2.97v6.193c0 1.651.365 2.293 1.645 2.293.502 0 1.05-.045 1.553-.137l.045 1.468zm9.227.183v-6.33c0-2.66-.365-3.716-2.055-3.716-1.233 0-2.375.597-3.106 1.101v8.945h-1.964V56.697h1.507l.228 1.239c.914-.688 2.193-1.468 3.929-1.468 2.603 0 3.426 1.697 3.426 5.367v6.33h-1.965zm6.304-6.468h5.436v-.137c0-2.248-.548-3.532-2.558-3.532-2.147 0-2.832 1.238-2.878 3.67zm7.309.092v1.193h-7.309c.046 2.844.914 3.807 3.883 3.807 1.096 0 2.055-.138 2.878-.367l.182 1.468c-.868.275-2.055.504-3.426.504-3.974 0-5.527-1.697-5.527-5.963v-.046c0-3.945 1.234-5.917 4.842-5.917 3.29 0 4.477 1.88 4.477 5.321zM136 58.394c-1.37.276-2.832.918-3.609 1.514v8.257h-1.964V56.697h1.508l.228 1.697c.777-.733 2.238-1.605 3.746-1.88l.091 1.88zM28.289 78.532h.685l-1.462-5.138h-1.005L25 78.532h.685l.366-1.284h1.872l.366 1.284zm-1.325-4.587h.092l.776 2.798h-1.644l.776-2.798zm4.34 2.523l1.324-1.743h-.73l-1.142 1.514h-.412v-3.12l-.64.092v5.321h.64v-1.789h.412l1.233 1.79h.776s-1.461-2.02-1.461-2.065zm3.152 1.605c-.457 0-.64-.183-.64-.642 0-.504.365-.642 1.188-.688h.41v1.01c-.273.183-.593.32-.958.32zm.274-3.394c-.457 0-.96.092-1.28.183l.092.46c.32-.093.73-.139 1.096-.139.64 0 .822.184.822.872v.321h-.41c-1.097.046-1.782.23-1.782 1.147 0 .734.411 1.055 1.096 1.055.548 0 .914-.23 1.234-.459.045.275.182.459.593.459.137 0 .274-.046.411-.046v-.459h-.182c-.229 0-.274-.091-.274-.412v-1.652c-.137-.963-.457-1.33-1.416-1.33zm4.613 3.027c-.228.184-.548.367-.913.367-.64 0-.868-.412-.868-1.422 0-1.009.228-1.422.868-1.422.365 0 .685.138.913.321v2.156zm.64-4.587l-.64.092v1.835c-.32-.23-.64-.367-1.096-.367-.914 0-1.37.642-1.37 1.972 0 1.285.41 1.973 1.37 1.973.502 0 .822-.23 1.142-.459l.091.413h.503v-5.459zm2.466 1.56c-1.187 0-1.598.642-1.598 1.972 0 1.422.502 1.973 1.781 1.973.457 0 .822-.092 1.096-.184l-.091-.504a3.025 3.025 0 0 1-.96.137c-.958 0-1.233-.32-1.278-1.284h2.375v-.413c.137-1.1-.274-1.697-1.325-1.697zm0 .504c.64 0 .823.413.823 1.193v.046H41.49c.046-.826.274-1.239.96-1.239zm7.446 3.35v-2.157c0-1.147-.137-1.697-1.05-1.697-.549 0-1.005.275-1.37.55-.138-.367-.412-.55-.869-.55-.548 0-1.005.275-1.279.504l-.091-.412h-.503v3.807h.64v-2.936c.228-.183.594-.367.96-.367.547 0 .639.321.639 1.147v2.156h.64v-2.156c0-.321 0-.55-.047-.78.275-.183.64-.413 1.051-.413.548 0 .64.321.64 1.147v2.156h.64zm1.736-3.808h-.64v3.807h.64v-3.807zm-.685-.688h.685v-.78h-.685v.78zm3.38 2.43l1.325-1.742h-.731l-1.142 1.514h-.411v-3.12l-.64.092v5.321h.64v-1.789h.41l1.234 1.79h.731s-1.416-2.02-1.416-2.065zm3.289-1.788c-1.188 0-1.553.642-1.553 1.972 0 1.422.502 1.973 1.781 1.973.457 0 .822-.092 1.097-.184l-.092-.504a3.025 3.025 0 0 1-.96.137c-.958 0-1.232-.32-1.278-1.284h2.375v-.413c.092-1.1-.274-1.697-1.37-1.697zm0 .504c.64 0 .822.413.822 1.193v.046h-1.781c.045-.826.274-1.239.959-1.239zm4.11-.504a2.444 2.444 0 0 0-1.232.642l-.092-.55H59.9v3.807h.64v-2.706c.228-.184.73-.413 1.187-.505.046-.046 0-.688 0-.688zm2.605.046v2.247c0 1.147.32 1.606 1.142 1.606.548 0 .959-.23 1.233-.505l.091.413h.503V74.68h-.64v2.936c-.228.183-.548.367-.959.367-.548 0-.73-.276-.73-1.055V74.68h-.64v.046zm6.989 3.807v-2.11c0-1.193-.275-1.789-1.142-1.789-.594 0-1.005.275-1.28.505l-.09-.413h-.503v3.807h.64v-2.936a1.658 1.658 0 0 1 1.004-.367c.548 0 .685.321.685 1.239v2.11l.686-.046zm3.288-.871c-.228.183-.548.367-.913.367-.64 0-.868-.413-.868-1.422 0-1.01.274-1.423.868-1.423.365 0 .685.138.913.322v2.156zm.64-4.542l-.64.092v1.835c-.32-.23-.64-.367-1.096-.367-.96 0-1.37.642-1.37 1.972 0 1.285.41 1.973 1.37 1.973.503 0 .822-.23 1.142-.459l.091.413h.503v-5.459zm4.202 4.954a5.773 5.773 0 0 1-1.324-.183l-.092.504c.274.092.914.23 1.462.23 1.233 0 1.873-.459 1.873-1.468 0-.963-.32-1.284-1.508-1.514-.913-.183-1.187-.32-1.187-.963 0-.596.274-.826 1.05-.826a4.47 4.47 0 0 1 1.28.184l.09-.505a4.831 4.831 0 0 0-1.46-.23c-1.189 0-1.645.414-1.645 1.377 0 .963.456 1.284 1.461 1.468 1.005.183 1.234.367 1.234.963 0 .734-.366.963-1.234.963zm3.472-3.348h-.64v3.807h.64v-3.807zm-.64-.688h.686v-.78h-.686v.78zm4.705 4.495v-2.11c0-1.193-.274-1.789-1.142-1.789-.593 0-1.004.275-1.279.505l-.09-.413h-.503v3.807h.64v-2.936a1.658 1.658 0 0 1 1.004-.367c.548 0 .685.321.685 1.239v2.11l.685-.046zm2.558-3.853c-1.279 0-1.735.596-1.735 1.927 0 1.238.41 1.926 1.324 1.926.457 0 .777-.183 1.097-.367v.321c0 .734-.32 1.055-1.097 1.055-.365 0-.593-.046-.868-.137l-.09.458a3.63 3.63 0 0 0 1.05.138c1.096 0 1.644-.459 1.644-1.514v-3.67c-.411-.137-.868-.137-1.325-.137zm-.045.504c.274 0 .502.046.73.046v2.432a1.439 1.439 0 0 1-.867.32c-.64 0-.868-.458-.868-1.375-.046-.964.183-1.423 1.005-1.423zm3.06-2.064l-.64.092v5.321h.64V73.12zm2.513 1.56c-1.188 0-1.553.642-1.553 1.972 0 1.422.502 1.973 1.781 1.973.457 0 .822-.092 1.096-.184l-.045-.504a3.025 3.025 0 0 1-.96.137c-.959 0-1.233-.32-1.279-1.284h2.376v-.413c0-1.1-.366-1.697-1.416-1.697zm0 .504c.64 0 .822.413.822 1.193v.046h-1.782c.046-.826.229-1.239.96-1.239zm3.334 2.89c-.365 0-.776-.091-1.096-.137l-.091.504c.32.092.867.184 1.324.184 1.097 0 1.416-.413 1.416-1.147s-.274-.963-1.233-1.1c-.685-.093-.914-.23-.914-.643 0-.413.274-.55.823-.55.365 0 .776.045 1.05.137l.092-.459a4.47 4.47 0 0 0-1.28-.183c-.867 0-1.324.321-1.324 1.055s.365 1.01 1.187 1.147c.777.137.96.23.96.596 0 .413-.183.596-.914.596zm9.456.46v-2.157c0-1.147-.137-1.697-1.05-1.697-.549 0-1.006.275-1.371.55-.137-.367-.411-.55-.868-.55-.548 0-.96.275-1.28.504l-.09-.412h-.503v3.807h.64v-2.936c.228-.183.593-.367.959-.367.548 0 .64.321.64 1.147v2.156h.639v-2.156c0-.321 0-.55-.046-.78.274-.183.64-.413 1.05-.413.549 0 .64.321.64 1.147v2.156h.64zm1.736-3.808h-.64v3.807h.64v-3.807zm-.686-.688h.686v-.78h-.686v.78zm3.655 3.945c-.137.046-.366.046-.503.046-.41 0-.548-.23-.548-.78v-2.019h.96v-.504h-.96v-1.147l-.64.092v1.055l-.548.046v.458h.549v2.019c0 .917.228 1.284 1.05 1.284.229 0 .503-.046.64-.092v-.458zm5.481.55h.777v-5.138h-.64v4.037h-.091l-2.101-4.037h-.777v5.138h.64v-4.037h.09c.047 0 2.102 4.037 2.102 4.037zm2.558-3.807h-.64v3.807h.64v-3.807zm-.64-.688h.686v-.78h-.685v.78zm2.559 4.495h.913l1.142-3.807h-.64l-.913 3.21h-.091l-.914-3.21h-.64l1.143 3.807zm4.065-3.853c-1.188 0-1.553.642-1.553 1.972 0 1.422.503 1.973 1.782 1.973.456 0 .822-.092 1.096-.184l-.046-.504a3.025 3.025 0 0 1-.96.137c-.958 0-1.232-.32-1.278-1.284h2.375v-.413c.046-1.1-.32-1.697-1.416-1.697zm.046.504c.64 0 .822.413.822 1.193v.046h-1.781c0-.826.228-1.239.959-1.239zm3.334 2.89c-.456 0-.64-.183-.64-.642 0-.504.366-.642 1.189-.688h.41v1.01c-.273.183-.593.32-.959.32zm.274-3.394c-.456 0-.959.092-1.279.183l.092.46c.32-.093.73-.139 1.096-.139.64 0 .822.184.822.872v.321h-.41c-1.097.046-1.782.23-1.782 1.147 0 .734.41 1.055 1.096 1.055a1.9 1.9 0 0 0 1.233-.459c.046.275.183.459.594.459.137 0 .274-.046.411-.046v-.459h-.182c-.229 0-.275-.091-.275-.412v-1.652c-.137-.963-.456-1.33-1.416-1.33zm2.33.046v2.247c0 1.147.32 1.606 1.142 1.606.548 0 .96-.23 1.233-.505l.092.413h.502V74.68h-.64v2.936c-.228.183-.547.367-.959.367-.548 0-.73-.276-.73-1.055V74.68h-.64v.046zM73.74 41.422l6.851 3.12 6.852-3.12v1.743l-6.852 3.12-6.851-3.12v-1.743zm16.9-3.44v7.156l-.821-.46-.823 1.148v-7.11l-8.45 3.853-13.75-6.285L80.546 30l13.75 6.284-3.655 1.698z" fill="#FFF"/></g></svg>