<svg viewBox="0 0 453 330" xmlns="http://www.w3.org/2000/svg"><defs><linearGradient id="a" x1="49.99%" x2="49.99%" y1="100.01%" y2="0%"><stop stop-color="gray" stop-opacity=".25" offset="0"/><stop stop-color="gray" stop-opacity=".12" offset=".54"/><stop stop-color="gray" stop-opacity=".1" offset="1"/></linearGradient><linearGradient id="b" x1="50.006%" x2="50.006%" y1="99.969%" y2="-.028%"><stop stop-color="gray" stop-opacity=".25" offset="0"/><stop stop-color="gray" stop-opacity=".12" offset=".54"/><stop stop-color="gray" stop-opacity=".1" offset="1"/></linearGradient></defs><g fill="none" fill-rule="evenodd"><ellipse cx="31.5" cy="258" rx="22.5" ry="8" fill="#000" fill-rule="nonzero" opacity=".1"/><ellipse cx="396.5" cy="291" rx="22.5" ry="8" fill="#000" fill-rule="nonzero" opacity=".1"/><path d="M267 9.255c-34.341 13.282-71.566 13.9-106.14 1.396C111.855-7.066 47.86-11.6 24.14 69.586c-40.474 138.71 42.33 188.21 42.33 188.21s57.811 12.976 89.82 36.423c45.469 33.304 101.15 44.437 153.61 28.82 33.544-9.988 62.294-26.374 70.513-53.185 22.988-74.985 8.395-120.05 49.998-139.83 41.603-19.771 18.454-93.013-11.133-94.675s-99.293 15.326-120.86-18.465C290.73 4.887 278.971 4.611 267 9.246z" fill="#000" fill-rule="nonzero" opacity=".1"/><path d="M395.53 292s6.266-20.362-1.18-35.349c-3.171-6.267-4.128-13.347-2.726-20.178a52.283 52.283 0 0 1 2.992-9.473" stroke="#535461" stroke-width="2"/><path d="M390 217.44c0 2.449 4.497 9.56 4.497 9.56s4.498-7.106 4.498-9.56c0-2.452-2.015-4.44-4.5-4.44s-4.5 1.988-4.5 4.44H390zm-7.26 13.71c1.383 2.146 9.265 5.855 9.265 5.855s-.142-8.742-1.526-10.887c-.894-1.388-2.458-2.191-4.102-2.107s-3.118 1.044-3.867 2.516a4.648 4.648 0 0 0 .235 4.623h-.005zm-.3 24.25c2.193 1.102 10.555.343 10.555.343s-4.357-7.167-6.55-8.269a4.45 4.45 0 0 0-5.973 1.965 4.435 4.435 0 0 0 1.968 5.961zm4.34 17.51c1.94 1.452 10.219 2.09 10.219 2.09s-3.045-7.703-4.993-9.14a4.399 4.399 0 0 0-6.145.917 4.38 4.38 0 0 0 .918 6.133zm14.79-35.36c-1.868 1.694-10.571 3.446-10.571 3.446s2.133-8.062 4-9.756c1.868-1.693 4.853-1.653 6.667.09 1.814 1.742 1.771 4.527-.096 6.22zm3.99 20.85c-2.193 1.105-10.555.344-10.555.344s4.357-7.186 6.55-8.267a4.444 4.444 0 0 1 5.973 1.97 4.452 4.452 0 0 1-1.968 5.978v-.025zm1.66 21.51c-1.94 1.452-10.219 2.09-10.219 2.09s3.045-7.703 4.993-9.14a4.399 4.399 0 0 1 6.145.917 4.38 4.38 0 0 1-.918 6.133z" fill="#D14045" fill-rule="nonzero"/><path d="M32.056 259s12.553-43.837-2.345-76.141c-6.255-13.551-8.307-28.757-5.439-43.46A119.1 119.1 0 0 1 30.248 119" stroke="#535461" stroke-width="2"/><path d="M21.005 98.829c0 5.428 9.5 21.171 9.5 21.171S40 104.246 40 98.829c0-5.428-4.253-9.828-9.5-9.828S21 93.4 21 98.829h.005zM4.438 127.76C7.361 132.265 24 140.004 24 140.004s-.302-18.281-3.225-22.767c-2.974-4.346-8.89-5.535-13.327-2.68-4.437 2.855-5.773 8.711-3.01 13.193v.01zm.827 50.91c4.724 2.455 22.735.76 22.735.76s-9.409-15.933-14.108-18.373a9.335 9.335 0 0 0-9.563.558c-2.862 1.933-4.506 5.292-4.313 8.813s2.194 6.669 5.25 8.257v-.015zm9.593 37.73C19.085 219.567 37 220.998 37 220.998s-6.593-16.957-10.825-20.109c-4.226-3.167-10.185-2.263-13.31 2.02-3.125 4.283-2.233 10.323 1.993 13.491zm30.148-74.91C41.118 145.18 23 149.005 23 149.005s4.436-17.59 8.323-21.28c3.89-3.698 10.11-3.615 13.893.186a9.45 9.45 0 0 1-.19 13.579h-.02zm9.729 45.18c-4.724 2.455-22.735.76-22.735.76s9.409-15.933 14.108-18.373a9.335 9.335 0 0 1 9.563.558c2.862 1.933 4.506 5.292 4.313 8.813s-2.194 6.669-5.25 8.257v-.015zm3.407 44.73C53.915 234.567 36 235.998 36 235.998s6.593-16.957 10.825-20.109c4.226-3.167 10.185-2.263 13.31 2.02 3.125 4.283 2.233 10.323-1.993 13.491zm131.438-81.43l-27.622-3.58c-1.12-.144-1.983-.57-1.953-.942.05-.372.991-.546 2.136-.382l27.563 3.992c.759.109 1.334.396 1.299.65-.035.237-.67.361-1.422.262zm.1 1.04l-27.571-2.973c-1.12-.118-2.071.098-2.106.484s.858.792 1.973.895l27.62 2.571c.76.072 1.38-.082 1.406-.344.02-.278-.568-.55-1.322-.633zm42.75 20.96l27.617-3.58c1.12-.144 1.983-.57 1.953-.942-.05-.372-.991-.546-2.136-.382l-27.563 3.992c-.759.109-1.334.396-1.299.65.035.237.67.361 1.428.262zm-.11.04l27.571-2.973c1.12-.118 2.071.098 2.106.484s-.858.792-1.973.895l-27.62 2.571c-.76.072-1.38-.082-1.406-.344-.02-.278.568-.55 1.322-.633z" fill="#D14045" fill-rule="nonzero"/><path fill="#40414D" fill-rule="nonzero" d="M133 202h7v98h-7zm149 0h7v98h-7z"/><path d="M130 194h157c6.075 0 11 4.743 11 10.594V206H119v-1.406c0-5.85 4.925-10.594 11-10.594z" fill="#DFE6F5" fill-rule="nonzero"/><path d="M130 194h157c6.075 0 11 4.743 11 10.594V206H119v-1.406c0-5.85 4.925-10.594 11-10.594z" fill="#000" fill-rule="nonzero" opacity=".1"/><path d="M130 192h157c6.075 0 11 4.743 11 10.594V204H119v-1.406c0-5.85 4.925-10.594 11-10.594z" fill="#DFE6F5" fill-rule="nonzero"/><circle cx="208.5" cy="169.5" r="13.5" fill="#FFD77C" fill-rule="nonzero" stroke="#FFAB50"/><circle cx="209" cy="170" r="11" fill="#FFD77C" fill-rule="nonzero" stroke="#FFAB50"/><circle cx="209" cy="170" r="8" fill="#FFD77C" fill-rule="nonzero" stroke="#FFAB50"/><circle cx="208.5" cy="169.5" r="4.5" fill="#FFD77C" fill-rule="nonzero" stroke="#FFAB50"/><circle cx="201.5" cy="177.5" r="13.5" fill="#FFD77C" fill-rule="nonzero" stroke="#FFAB50"/><circle cx="201" cy="178" r="11" fill="#FFD77C" fill-rule="nonzero" stroke="#FFAB50"/><circle cx="201" cy="177" r="8" fill="#FFD77C" fill-rule="nonzero" stroke="#FFAB50"/><circle cx="201.5" cy="177.5" r="4.5" fill="#FFD77C" fill-rule="nonzero" stroke="#FFAB50"/><circle cx="216.5" cy="177.5" r="13.5" fill="#FFD77C" fill-rule="nonzero" stroke="#FFAB50"/><circle cx="217" cy="178" r="11" fill="#FFD77C" fill-rule="nonzero" stroke="#FFAB50"/><circle cx="217" cy="177" r="8" fill="#FFD77C" fill-rule="nonzero" stroke="#FFAB50"/><circle cx="216.5" cy="177.5" r="4.5" fill="#FFD77C" fill-rule="nonzero" stroke="#FFAB50"/><path d="M181 174h57v2.7c0 5.384-2.12 10.547-5.895 14.354S223.212 197 217.875 197h-16.75C190.01 197 181 187.91 181 176.7V174z" fill="#D14045" fill-rule="nonzero"/><path d="M231.89 174c-.307 12.471-10.354 22.42-22.645 22.421H198c1.64.38 3.317.574 5 .579h11.33c6.011.002 11.778-2.42 16.03-6.733 4.252-4.314 6.64-10.165 6.64-16.267h-5.11z" fill="#000" fill-rule="nonzero" opacity=".1"/><path fill="#40414D" fill-rule="nonzero" d="M285.5 276.5v7h-148v-7zM76 253h6v54h-6zm47 0h6v54h-6z"/><path d="M134 243.5c0 3.588-12.221 6.5-27.297 6.5S80 247.093 80 243.5s11.627-6.5 26.703-6.5c15.076 0 27.297 2.927 27.297 6.5z" fill="#F6C6CD" fill-rule="nonzero"/><path d="M71 244h63v5.603c0 2.98-2.373 5.397-5.3 5.397H80.085c-5.017 0-9.085-4.142-9.085-9.252V244z" fill="#40414D" fill-rule="nonzero"/><path d="M61.13 181.059l1.236-.28c1.81-.408 3.627.804 4.057 2.707L82.159 253.2l-1.874.423c-3.275.74-6.56-1.452-7.337-4.895l-14.328-63.48a3.627 3.627 0 0 1 .413-2.658 3.28 3.28 0 0 1 2.097-1.53zM343 308h-6v-54h6zm-47 0h-6v-54h6z" fill="#40414D" fill-rule="nonzero"/><path d="M285 244.51c0 3.584 12.221 6.493 27.297 6.493S339 248.099 339 244.51c0-3.589-11.632-6.507-26.703-6.507S285 240.926 285 244.51z" fill="#F6C6CD" fill-rule="nonzero"/><path d="M338.91 256h-48.615c-2.927 0-5.3-2.416-5.3-5.397V245h63v1.748c0 5.11-4.067 9.252-9.085 9.252z" fill="#40414D" fill-rule="nonzero"/><path d="M338.714 254.622l-1.876-.424 15.736-69.713c.43-1.903 2.248-3.114 4.061-2.705l1.238.28c1.813.409 2.935 2.283 2.505 4.187l-14.33 63.48c-.775 3.438-4.057 5.628-7.334 4.894z" fill="#40414D" fill-rule="nonzero"/><path d="M341.24 223.23l1.761-.556s-3.01-20.09-2.98-38.093v-1.554c.035-1.123.075-2.236.13-3.323.07-1.394.085-2.722.075-4.01.166-17.337-6.673-24.66-6.673-24.66s-8.028-11.438-12.84-13.663a53.413 53.413 0 0 1-1.315-4.922c.156-.105.306-.21.452-.321a64.96 64.96 0 0 0 5.695-4.747c2.469-2.31 4.837-5.127 4.707-8.305.013-.31.003-.62-.03-.927-.457-3.835-4.446-6.722-6.057-10.355-1.355-3.053-.948-6.45-2.132-9.549-1.185-3.097-5.319-5.98-8.44-4.35-1.149.601-1.841 1.664-2.8 2.47-2.378 2.006-6.212 2.191-9.463 1.279-3.251-.912-4.215-4.631-8.76-4.641.403.135.789.318 1.148.546a7.243 7.243 0 0 0-1.149-.1 5.014 5.014 0 0 1 3.473 4.215c-.007.12-.02.241-.04.36-1.817.978-4.205.422-6.383.387-2.178-.035-4.656 1.062-4.44 2.842-.037.202-.037.41 0 .611.285 1.349 2.092 2.366 2.313 3.614v.1a37.542 37.542 0 0 1-12.87 3.75c-.146 0-.08.175.13.43h-.13c-.818.086 4.902 4.602 5.554 4.898 2.388 1.082 5.243 1.88 7.772 2.711l.221.07a15.793 15.793 0 0 0-1.29 6.26c0 7.72 5.555 14.206 13.077 16.04a106.555 106.555 0 0 1 4.224 5.228h-.095s-8.645 11.488-8.37 28.645c-.024 2.15.09 4.3.342 6.435-5.56-.315-17.506-1.779-26.593-8.425-12.258-8.957-25.931-6.27-23.081-.897 2.85 5.373 17.446 9.849 19.799 10.3.22.04.732.16 1.465.34-2.9.547-4.887 1.504-4.767 2.792.236 2.461 12.73 10.3 20.271 10.746 4.983.296 10.98 1.83 15.71 3.178.457 10.3-2.037 13.388-2.037 13.388s.743.456 1.972 1.103l-.527 1.503c-3.06 1.765-6.834 3.604-10.266 4.346a56.42 56.42 0 0 0-12.664 4.21l-16.975 8.195a9.82 9.82 0 0 0-5.62 7.714c-.37 3.474.678 7.814 6.358 11.258.351 2.822 2.077 6.115 6.608 9.133 8.78 5.834 31.857 23.312 34.998 25.698.06 4.265-.502 12.82-5.77 14.155-6.603 1.674-1.29 8.02 4.049 7.769a7.001 7.001 0 0 0 3.969.29c5.66-1.343 26.403-8.52 27.818-19.257.059-.465.086-.934.08-1.403a9.355 9.355 0 0 0-1.314-5.218c.221.485.4.988.537 1.504-1.716-3.91-5.896-6.366-9.148-7.75v-.11c-.501-.195-1.003-.355-1.415-.5a4.2 4.2 0 0 0-.065-.868l-32.529-22.39s14.145-11.644 28.761-9.849 16.944-.857 16.944-.857 7.496-7.122 8.25-15.323l.47-.125s-.034-.516-.105-1.464z" fill="url(#a)" fill-rule="nonzero"/><path d="M301.21 281.2s1.329 14.448-5.32 16.201-.441 8.757 4.874 7.43c5.315-1.328 24.826-8.322 26.154-18.822s-13.298-14.012-13.298-14.012l-12.41 9.202z" fill="#B8616E" fill-rule="nonzero"/><path d="M301.21 281.2s1.329 14.448-5.32 16.201-.441 8.757 4.874 7.43c5.315-1.328 24.826-8.322 26.154-18.822s-13.298-14.012-13.298-14.012l-12.41 9.202z" fill="#000" fill-rule="nonzero" opacity=".05"/><path d="M304.21 282.2s1.329 14.448-5.32 16.201-.441 8.757 4.874 7.43c5.315-1.328 24.826-8.322 26.154-18.822s-13.298-14.012-13.298-14.012l-12.41 9.202z" fill="#B8616E" fill-rule="nonzero"/><path d="M318.29 273l-12.291 9.353s.055.635.09 1.647c4.642-1.29 14.755-4.714 14.91-10.073a23.601 23.601 0 0 0-2.708-.927z" fill="#000" fill-rule="nonzero" opacity=".1"/><path fill="#F8BDC5" fill-rule="nonzero" d="M305 146h5v4h-5z"/><path d="M305.58 210s-8.445 6.594-15.382 8.157a51.437 51.437 0 0 0-11.904 4.139l-15.953 8.058a9.633 9.633 0 0 0-5.283 7.584c-.456 4.482 1.359 10.378 12.184 13.884L303.36 280l10.636-8.805-36.332-27.729 27.917-17.17V210z" fill="#758AC8" fill-rule="nonzero"/><path d="M305.58 210s-8.445 6.594-15.382 8.157a51.437 51.437 0 0 0-11.904 4.139l-15.953 8.058a9.633 9.633 0 0 0-5.283 7.584c-.456 4.482 1.359 10.378 12.184 13.884L303.36 280l10.636-8.805-36.332-27.729 27.917-17.17V210z" fill="#000" fill-rule="nonzero" opacity=".1"/><path d="M299.91 180.97s-16.37.434-27.875-8.285c-11.505-8.72-24.332-6.106-21.68-.873 2.652 5.232 16.37 9.592 18.582 10.026 2.212.434 34.066 9.158 34.066 9.158l-3.093-10.026z" fill="#F8BDC5" fill-rule="nonzero"/><path d="M299.91 180.97s-16.37.434-27.875-8.285c-11.505-8.72-24.332-6.106-21.68-.873 2.652 5.232 16.37 9.592 18.582 10.026 2.212.434 34.066 9.158 34.066 9.158l-3.093-10.026z" fill="#000" fill-rule="nonzero" opacity=".05"/><path d="M302.51 206l-5.317 15.956s-29.9 18.392-32.342 20.828c-1.894 1.895-4.43 9.309 4.43 15.51 8.86 6.2 33.224 25.706 33.224 25.706s18.606-4.01 17.278-11.53l-30.568-22.157s13.29-11.53 27.025-9.75c13.735 1.78 15.95-.887 15.95-.887s10.634-10.647 7.086-20.823S302.509 206 302.509 206z" fill="#758AC8" fill-rule="nonzero"/><path d="M295 134.16s14.984 16.227 14.102 21.049C308.22 160.031 321 141.174 321 141.174s-3.988-9.65-3.086-20.176L295 134.16z" fill="#F8BDC5" fill-rule="nonzero"/><path d="M308.54 148.9a44.112 44.112 0 0 1 3.25-3.093 45.018 45.018 0 0 0 6.225-6.2c3.11-4.01 14.654 13.293 14.654 13.293s7.103 7.975 6.219 27.032c-.884 19.057 1.11 44.536 1.11 44.536l-2.688.747a15.416 15.416 0 0 1-13.614-1.93c-3.546-2.446-8.037-5.012-11.454-5.243-6.66-.441-12.659-4.21-12.659-4.21s2.889-6.867-1.552-29.027c-4.44-22.16 6.877-37.91 6.877-37.91s.895 4.823 3.633 2.006z" fill="#000" fill-rule="nonzero" opacity=".1"/><path d="M341 222.8l-2.63.887-1.564.526a15.074 15.074 0 0 1-13.451-1.93c-3.5-2.44-7.942-5.011-11.317-5.242-6.572-.446-14.017-5.318-14.017-5.318s4.388-5.759 0-27.918 6.8-37.887 6.8-37.887.883 4.797 3.589 1.975a43.277 43.277 0 0 1 3.206-3.088 44.744 44.744 0 0 0 6.15-6.2c3.072-4.01 14.479 13.292 14.479 13.292s7.019 7.975 6.145 27.03a139.23 139.23 0 0 0-.139 6.16c-.065 17.833 2.75 37.711 2.75 37.711z" fill="#5E52AD" fill-rule="nonzero"/><path d="M316.51 179.71l.437 9.909s-23.295 1.35-28.128-3.602c-4.832-4.952 13.174 14.565 17.151 15.763 3.734 1.126 13.373 2.12 18.43 2.221 2.95.098 5.68-1.598 6.96-4.325a7.37 7.37 0 0 0 .546-4.203c-.88-5.854 0-18.468 0-18.468l-15.396 2.705z" fill="#000" fill-rule="nonzero" opacity=".1"/><path d="M316.31 178.71l.443 9.909s-23.595 1.35-28.49-3.602c-4.894-4.952-22.603-3.856-22.256 0 .222 2.476 12.02 10.357 19.134 10.811 7.115.454 16.465 3.755 20.494 4.952 3.782 1.126 13.545 2.12 18.666 2.221 2.989.098 5.753-1.598 7.05-4.325a7.286 7.286 0 0 0 .553-4.203c-.89-5.854 0-18.468 0-18.468l-15.594 2.705z" fill="#F8BDC5" fill-rule="nonzero"/><path d="M321.91 150.01s-10.11 1.336-8.793 16.495c1.318 15.159 3.079 16.495 3.079 16.495s14.949-1.336 16.705-1.785c1.755-.449.88-16.94.88-16.94s-.442-14.71-11.87-14.265z" fill="#000" fill-rule="nonzero" opacity=".1"/><path d="M321.91 150.01s-10.11 1.336-8.793 16.495c1.318 15.159 3.079 16.495 3.079 16.495s14.949-1.336 16.705-1.785c1.755-.449.88-16.94.88-16.94s-.442-14.72-11.87-14.265z" fill="#5E52AD" fill-rule="nonzero"/><path d="M317.9 129.92c-.695-3.446.73-4.509 1.105-8.92l-23 13.055s2.635 2.825 5.63 6.453a16.63 16.63 0 0 0 4.095.492c6.025.025 9.32-6.345 12.17-11.08z" fill="#000" fill-rule="nonzero" opacity=".1"/><circle cx="305.5" cy="124.5" r="16.5" fill="#F8BDC5" fill-rule="nonzero"/><path d="M308.91 119.85c-2.488 1.586-2.523 5.172-.92 7.656s4.363 4.124 7.02 5.67c.771.45 1.622.913 2.488.813a3.664 3.664 0 0 0 1.781-.903 61.47 61.47 0 0 0 5.314-4.673c2.418-2.384 4.742-5.321 4.364-8.648-.428-3.775-4.15-6.618-5.653-10.194-1.263-2.992-.885-6.349-1.99-9.406-1.104-3.057-4.975-5.885-7.871-4.284-1.07.588-1.717 1.64-2.612 2.434-2.22 1.965-5.797 2.159-8.832 1.261-3.035-.897-3.936-4.563-8.17-4.573 2.105.743 3.528 2.943 3.205 4.947-1.697.963-3.926.414-5.971.38-2.045-.035-4.478 1.112-4.125 2.957.309 1.496 2.463 2.608 2.145 4.105a33.656 33.656 0 0 1-12.011 3.69c-.762.085 4.572 4.529 5.18 4.823 2.223 1.067 4.895 1.85 7.249 2.668 6.393 2.21 12.94 2.998 19.41 1.277z" fill="#000" fill-rule="nonzero" opacity=".1"/><path d="M308.91 118.85c-2.488 1.586-2.523 5.172-.92 7.656s4.363 4.124 7.02 5.67c.771.45 1.622.913 2.488.813a3.664 3.664 0 0 0 1.781-.903 61.47 61.47 0 0 0 5.314-4.673c2.418-2.384 4.742-5.321 4.364-8.648-.428-3.775-4.15-6.618-5.653-10.194-1.263-2.992-.885-6.349-1.99-9.406-1.104-3.057-4.975-5.885-7.871-4.284-1.07.588-1.717 1.64-2.612 2.434-2.22 1.965-5.797 2.159-8.832 1.261-3.035-.897-3.936-4.563-8.17-4.573 2.105.743 3.528 2.943 3.205 4.947-1.697.963-3.926.414-5.971.38-2.045-.035-4.478 1.112-4.125 2.957.309 1.496 2.463 2.608 2.145 4.105a33.656 33.656 0 0 1-12.011 3.69c-.762.085 4.572 4.529 5.18 4.823 2.223 1.067 4.895 1.85 7.249 2.668 6.393 2.215 12.94 2.988 19.41 1.277z" fill="#916168" fill-rule="nonzero"/><path d="M328.74 281a9.5 9.5 0 0 1 .72 5.153c-1.335 10.503-20.94 17.503-26.287 18.809-2.818.693-5.887-.926-7.172-2.871.826 2.287 4.385 4.539 7.62 3.747 5.348-1.312 24.953-8.316 26.288-18.81a9.462 9.462 0 0 0-1.17-6.028z" fill="#fff" fill-rule="nonzero" opacity=".1"/><path d="M187.92 293.32c-.395-.894-2.443-2.638-12.322-3.015-6.766-.256-9.07-3.849-9.694-7.356 2.224-.291 3.963-.693 4.532-1.25 0 0-.03-.161-.08-.448l.08-.06a47.334 47.334 0 0 1-.674-7.658 29.622 29.622 0 0 1 .69-6.531c.275-1.418.39-2.863.344-4.306.055-8.542-2.928-23.555-2.928-23.555l-.41-12.476a8.672 8.672 0 0 0-4.692-7.487 7.03 7.03 0 0 0-3.173-.794s-15.66-2.482-29.756-3.834c-.999-.808-4.522-2.99-12.597-1.738l-4.647-13.677a3.904 3.904 0 0 1-.08-.502c.165-1.739 1.32-4.357 6.701-4.523l1.124 1.005s.2-.397.535-1.005c6.676-.075 43.042-.447 44.916 0 2.064.503 20.142-3.547 20.662-4.05 7.026-6.888-20.662-3.547-20.662-3.547-2.723.447-11.523-.085-20.537-.824 4.462-6.728 8.66-29.564 8.66-29.564s15.99-8.104 11.362-12.662c-4.627-4.557-18.593 10.13-18.593 10.13s-5.68 16.716-8.264 21.78c-1 2.01-2.294 2.422-3.448 2.191.525-.422.864-.673.864-.673s-11.363-9.12-12.397-12.662a8.483 8.483 0 0 0-.76-1.663c-.544-3.211-1.498-6.371-3.827-8.477a8.675 8.675 0 0 0-1.289-1.14c-.63-.453-1.344-.845-1.939-1.337.335-1.547.725-3.155 1.13-4.713 8.434-1.005 14.99-8.04 14.99-16.58a16.441 16.441 0 0 0-.455-3.825 7.311 7.311 0 0 0 6.496-3.145c1.704-2.552 1.649-6.03.22-8.722a10.791 10.791 0 0 0-2.289-2.905 13.526 13.526 0 0 0-5.246-3.296c-1.714-.598-3.608-.954-4.967-2.125a22.153 22.153 0 0 1-1.654-2.512 12.836 12.836 0 0 0-1.999-2.342c-2.498-2.587-6.026-4.18-9.619-4.884-4.377-.859-8.899-.552-13.35-.246-1.664.116-3.618.412-4.368 1.87-.564 1.095-.195 2.406-.27 3.627-.234 3.884-4.652 6.03-8.494 6.969-3.843.94-8.425 1.754-10.278 5.16-1.684 3.075-.5 6.803.04 10.255a25.2 25.2 0 0 1-3.763 17.38c-1.689 2.598-3.867 4.91-5.201 7.698a14.75 14.75 0 0 0-.97 9.978c.25.975.61 1.97.43 2.965a5.18 5.18 0 0 1-1.17 2.206 26.437 26.437 0 0 1-18.837 9.813 5.428 5.428 0 0 0 1.719 2.607 12.415 12.415 0 0 0 3.567 2.477 53.684 53.684 0 0 0 10.943 4.095c2.549.649 5.212 1.11 7.805.669s5.122-1.935 6.186-4.296c.62-1.367.71-2.915 1.26-4.306 1.094-2.784 3.807-4.588 5.641-6.974a175.35 175.35 0 0 0-.874 18.51v5.295c0 6.98-.5 11.793-4.802 20.51a5.23 5.23 0 0 0-.645 3.015 3.316 3.316 0 0 0 1.124 3.07 29.926 29.926 0 0 0-.434 5.266c-.06 6.35 2.073 14.878 13.386 17.038l20.142-1.005s28.407-5.572 36.152-1.507a2.87 2.87 0 0 1 2.263 2.803 6.48 6.48 0 0 1-.195 1.251 19.778 19.778 0 0 0-.245 3.985c-.035 8.541 1.794 27.926 1.794 27.926v8.22c-1.289 1.95-2.878 4.833-2.673 6.959v.14c0 .046 0 .126.03.186s0 .111.035.166c.035.056.03.106.045.161.015.055.04.12.065.176.025.055.035.09.055.136.02.045.065.13.1.19l.06.106c.06.097.127.19.2.276 2.583 3.015 15.49 8.849 19.627 8.612 4.392-.25 19.108.503 19.627-6.08a.803.803 0 0 0-.035-.597z" fill="url(#b)" fill-rule="nonzero"/><path d="M151.15 279.59s-6.058 7.657-3.534 10.72c2.524 3.063 15.145 8.918 19.183 8.678 4.291-.255 18.68.51 19.183-6.126 0 0 1.01-3.062-12.116-3.573s-9.087-14.294-9.087-14.294l-13.63 4.594z" fill="#594C76" fill-rule="nonzero"/><path d="M79.957 216.66s-5.98 20.607 11.961 24.125l19.436-1.005s27.41-5.529 34.885-1.508c0 0 2.99.503 1.993 4.524-.996 4.02 1.495 31.162 1.495 31.162v9.046s16.944 0 18.938-2.01c0 0-1.495-8.042 0-14.576 1.496-6.534-2.491-27.14-2.491-27.14l-.394-12.405a8.634 8.634 0 0 0-4.515-7.438 6.633 6.633 0 0 0-3.06-.785s-33.888-5.528-45.849-4.523c-11.961 1.005-32.398 2.533-32.398 2.533z" fill="#000" fill-rule="nonzero" opacity=".1"/><path d="M79.957 216.66s-5.98 20.607 11.961 24.125l19.436-1.005s27.41-5.529 34.885-1.508c0 0 2.99.503 1.993 4.524-.996 4.02 1.495 31.162 1.495 31.162v9.046s16.944 0 18.938-2.01c0 0-1.495-8.042 0-14.576 1.496-6.534-2.491-27.14-2.491-27.14l-.394-12.405a8.634 8.634 0 0 0-4.515-7.438 6.633 6.633 0 0 0-3.06-.785s-33.888-5.528-45.849-4.523c-11.961 1.005-32.398 2.533-32.398 2.533z" fill="#8B9CD1" fill-rule="nonzero"/><path d="M130.97 175.66s3.966 5.046 6.444 0c2.479-5.046 7.932-21.698 7.932-21.698s13.384-14.634 17.846-10.092c4.461 4.541-10.906 12.615-10.906 12.615s-5.453 30.782-10.41 31.286c-4.957.505-12.393 0-12.393 0l-2.479-5.55 3.966-6.56z" fill="#F8BDC5" fill-rule="nonzero"/><path d="M130.97 175.66s3.966 5.046 6.444 0c2.479-5.046 7.932-21.698 7.932-21.698s13.384-14.634 17.846-10.092c4.461 4.541-10.906 12.615-10.906 12.615s-5.453 30.782-10.41 31.286c-4.957.505-12.393 0-12.393 0l-2.479-5.55 3.966-6.56z" fill="#000" fill-rule="nonzero" opacity=".05"/><path d="M113 151s9 10.515 10 14.02 12 12.518 12 12.518-8 6.008-6.5 9.013-10.5-10.014-10.5-10.014l-14-20.53 9-5.006z" fill="#EB6475" fill-rule="nonzero"/><path d="M113 151s9 10.515 10 14.02 12 12.518 12 12.518-8 6.008-6.5 9.013-10.5-10.014-10.5-10.014l-14-20.53 9-5.006z" fill="#000" fill-rule="nonzero" opacity=".1"/><path d="M119 138.52s-4.498 14.782-4.498 20.39c0 5.607-18.992-1.53-18.492-4.588s10.995-14.273 11.495-18.86S119 138.521 119 138.521z" fill="#F8BDC5" fill-rule="nonzero"/><path d="M104.33 148.31s-17.614-4.515-20.13 21.071c-2.516 25.586 2.013 28.596-5.536 44.148-7.549 15.552 51.332 2.007 51.332 2.007s-3.02-3.512-12.58-2.007l-4.53-13.545s-1.51-6.02 7.045-6.02c8.556 0 4.53-17.56 4.53-17.56s-4.53-15.05-7.046-16.555-7.045-10.535-13.085-11.54z" fill="#000" fill-rule="nonzero" opacity=".1"/><path d="M104.33 147.31s-17.614-4.515-20.13 21.071c-2.516 25.586 2.013 28.596-5.536 44.148-7.549 15.552 51.332 2.007 51.332 2.007s-3.02-3.512-12.58-2.007l-4.53-13.545s-1.51-6.02 7.045-6.02c8.556 0 4.53-17.56 4.53-17.56s-4.53-15.05-7.046-16.555-7.045-10.535-13.085-11.54z" fill="#EB6475" fill-rule="nonzero"/><path d="M121.5 184s36.442 4.173 42.432 3.13c0 0 26.757-3.443 19.968 3.652-.5.521-17.971 4.695-19.968 4.173-1.997-.522-44.429 0-44.429 0l-.5-5.217L121.5 184z" fill="#F8BDC5" fill-rule="nonzero"/><path d="M93.502 171.19l26.833 23.812s5.063-9.922 6.582-9.922c1.519 0-18.226-29.269-18.226-29.269s-5.063-5.953-8.1-2.976c-3.039 2.976-12.152.992-7.089 18.355z" fill="#000" fill-rule="nonzero" opacity=".1"/><path d="M93.502 170.19l26.833 23.812s5.063-9.922 6.582-9.922c1.519 0-18.226-29.269-18.226-29.269s-5.063-5.953-8.1-2.976c-3.039 2.976-12.152.992-7.089 18.355z" fill="#EB6475" fill-rule="nonzero"/><circle cx="114.5" cy="130.5" r="16.5" fill="#F8BDC5" fill-rule="nonzero"/><path d="M129.83 127.33c2.815 1.11 6.263-.22 7.921-2.746 1.659-2.525 1.609-5.964.211-8.645-1.397-2.68-3.98-4.629-6.83-5.643-1.73-.612-3.654-.964-4.981-2.229-.84-.798-1.337-1.877-1.965-2.851-2.348-3.655-6.534-5.814-10.791-6.662s-8.66-.547-12.993-.246c-1.619.115-3.519.406-4.253 1.852-.547 1.085-.19 2.385-.261 3.595-.226 3.85-4.524 5.984-8.278 6.908-3.755.923-8.107 1.792-9.937 5.186-1.638 3.047-.467 6.742.04 10.166a25.347 25.347 0 0 1-3.659 17.184c-1.643 2.575-3.76 4.864-5.061 7.63a14.864 14.864 0 0 0-.945 9.89c.246.97.593 1.953.422 2.937a5.164 5.164 0 0 1-1.136 2.184 25.583 25.583 0 0 1-18.33 9.75c.572 2.153 2.658 3.514 4.643 4.518a51.66 51.66 0 0 0 10.645 4.056c2.478.643 5.072 1.1 7.595.663 2.523-.437 4.98-1.918 6.031-4.258.603-1.355.694-2.886 1.227-4.272 1.201-3.107 4.403-4.985 6.122-7.841 1.643-2.731 2.282-3.053 2.699-6.206s1.337-6.556 3.93-8.409c2.714-1.942 6.534-1.57 9.55-.08 3.016 1.491 4.88.909 7.399 3.098a61.318 61.318 0 0 0 14.682 9.448c-.503-4.378-1.312-9.263-4.87-11.868-1.006-.748-2.278-1.32-2.81-2.465-.85-1.823.603-4.047-.056-5.95-.658-1.902-3.161-2.605-4.272-4.332-.945-1.466-.689-3.459.196-4.965s2.282-2.62 3.674-3.675c1.237-.933 2.49-1.845 3.76-2.736a13.424 13.424 0 0 0 3.056-2.66c.502-.688.834-2.194 1.533-2.681 1.759-1.215 4.463 1.717 6.092 2.354z" fill="#000" fill-rule="nonzero" opacity=".1"/><path d="M128.83 126.33c2.815 1.11 6.263-.22 7.921-2.746 1.659-2.525 1.609-5.964.211-8.645-1.397-2.68-3.98-4.629-6.83-5.643-1.73-.612-3.654-.964-4.981-2.229-.84-.798-1.337-1.877-1.965-2.851-2.348-3.655-6.534-5.814-10.791-6.662s-8.66-.547-12.993-.246c-1.619.115-3.519.406-4.253 1.852-.547 1.085-.19 2.385-.261 3.595-.226 3.85-4.524 5.984-8.278 6.908-3.755.923-8.107 1.792-9.937 5.186-1.638 3.047-.467 6.742.04 10.166a25.347 25.347 0 0 1-3.659 17.184c-1.643 2.575-3.76 4.864-5.061 7.63a14.864 14.864 0 0 0-.945 9.89c.246.97.593 1.953.422 2.937a5.164 5.164 0 0 1-1.136 2.184 25.583 25.583 0 0 1-18.33 9.75c.572 2.153 2.658 3.514 4.643 4.518a51.66 51.66 0 0 0 10.645 4.056c2.478.643 5.072 1.1 7.595.663 2.523-.437 4.98-1.918 6.031-4.258.603-1.355.694-2.886 1.227-4.272 1.201-3.107 4.403-4.985 6.122-7.841 1.643-2.731 2.282-3.053 2.699-6.206s1.337-6.556 3.93-8.409c2.714-1.942 6.534-1.57 9.55-.08 3.016 1.491 4.88.909 7.399 3.098a61.318 61.318 0 0 0 14.682 9.448c-.503-4.378-1.312-9.263-4.87-11.868-1.006-.748-2.278-1.32-2.81-2.465-.85-1.823.603-4.047-.056-5.95-.658-1.902-3.161-2.605-4.272-4.332-.945-1.466-.689-3.459.196-4.965s2.282-2.62 3.674-3.675c1.237-.933 2.49-1.845 3.76-2.736a13.424 13.424 0 0 0 3.056-2.66c.502-.688.834-2.194 1.533-2.681 1.759-1.215 4.463 1.717 6.092 2.354z" fill="#916168" fill-rule="nonzero"/><path d="M164.305 279.065a17.28 17.28 0 0 1 .57-3.94l-.25.085a17.41 17.41 0 0 0-.32 3.855zm2.57 18.56c-4 .235-16.5-5.5-19-8.5-.328-.406-.53-.9-.58-1.42a3.14 3.14 0 0 0 .58 2.42c2.5 3 15 8.735 19 8.5 4.25-.25 18.5.5 19-6a.81.81 0 0 0-.07-.53c-1.145 5.99-14.785 5.285-18.93 5.53z" fill="#fff" fill-rule="nonzero" opacity=".1"/><path fill="#FFD77C" fill-rule="nonzero" stroke="#FFAB50" stroke-width=".25" d="M187 148h1v21h-1z"/><path fill="#FFD77C" fill-rule="nonzero" stroke="#FFAB50" stroke-width=".25" d="M187 148h1v21h-1zm1 0h1v21h-1z"/><path fill="#FFD77C" fill-rule="nonzero" stroke="#FFAB50" stroke-width=".25" d="M188 148h1v21h-1zm1 0h1v21h-1z"/><path fill="#FFD77C" fill-rule="nonzero" stroke="#FFAB50" stroke-width=".25" d="M189 148h1v21h-1zm1 0h1v21h-1z"/></g></svg>