<?xml version="1.0" encoding="UTF-8"?>
<svg xmlns="http://www.w3.org/2000/svg" xmlns:xlink="http://www.w3.org/1999/xlink" width="20px" height="20px" version="1.1" viewBox="0 0 20 20">
    <g id="Symbols" fill="none" fill-rule="evenodd" stroke="none" stroke-width="1">
        <g id="Partner-Row" fill="#000000" fill-rule="nonzero" transform="translate(-199.000000, -23.000000)">
            <g id="Group-8">
                <g id="Group-7" transform="translate(17.000000, 17.000000)">
                    <g id="Group-13" transform="translate(182.000000, 6.000000)">
                        <g id="Group-5">
                            <g id="verified-text-paper">
                                <path id="Shape" d="M6.56859844,16.7987637 L2.91138634,16.7987637 C2.21267842,16.7987637 1.63424497,16.2020071 1.63424497,15.4429275 L1.63424497,3.12657315 C1.63424497,2.36749346 2.21267842,1.77545171 2.91138634,1.77545171 L11.76272,1.77545171 C12.4614279,1.77545171 13.0318017,2.36749346 13.0318017,3.12657315 L13.0318017,13.4472281 L14.6666667,11.3356799 L14.6666667,1.80778163 C14.6666667,0.809595202 13.94006,0 13.0225021,0 L1.58650716,0 C0.704287667,0 0,0.777265278 0,1.7350393 L0,16.8102139 C0,17.8084003 0.734666272,18.6206897 1.65470403,18.6206897 L8.07636922,18.6206897 L7.31752406,17.9047165 C6.98521931,17.5915204 6.73537079,17.2082761 6.56859844,16.7987637 Z"/>
                                <path id="Shape" d="M11.1541516,4.13793103 L3.51444737,4.13793103 C3.04474847,4.13793103 2.66666667,4.60197605 2.66666667,5.17280639 C2.66666667,5.74285153 3.04539366,6.20689655 3.51444737,6.20689655 L11.1535064,6.20689655 C11.6232053,6.20689655 11.9999967,5.74285153 11.9999967,5.17280639 C12.0012871,4.60276124 11.6232053,4.13793103 11.1541516,4.13793103 Z"/>
                                <path id="Shape" d="M11.1541516,6.89655172 L3.51444737,6.89655172 C3.04474847,6.89655172 2.66666667,7.35963581 2.66666667,7.93103448 C2.66666667,8.4992936 3.04539366,8.96551724 3.51444737,8.96551724 L11.1535064,8.96551724 C11.6232053,8.96551724 11.9999967,8.4992936 11.9999967,7.93103448 C12.0012871,7.35963581 11.6232053,6.89655172 11.1541516,6.89655172 Z"/>
                                <path id="Shape" d="M11.1541516,9.65517241 L3.51444737,9.65517241 C3.04474847,9.65517241 2.66666667,10.1047374 2.66666667,10.6912665 C2.66666667,11.2753787 3.04539366,11.7241379 3.51444737,11.7241379 L11.1535064,11.7241379 C11.6232053,11.7241379 11.9999967,11.2729617 11.9999967,10.6912665 C12.0012871,10.1047374 11.6232053,9.65517241 11.1541516,9.65517241 Z"/>
                                <path id="Shape" d="M2.66666667,13.4502877 C2.66666667,14.0353277 3.05795109,14.4827586 3.54255718,14.4827586 L6.48752239,14.4827586 C6.61084031,14.1021205 6.80014998,13.6603227 7.05878432,13.2925603 C7.33075032,12.9119221 7.65137691,12.6326802 8,12.4137931 L3.54322376,12.4137931 C3.05795109,12.4162073 2.66666667,12.8668571 2.66666667,13.4502877 Z"/>
                                <path id="Shape" d="M11.2384259,12.4137931 L10.6666667,12.4137931 C10.8541667,12.5227698 11.0329861,12.7049278 11.1967593,12.8998131 L11.9560185,13.7931034 C11.9849537,13.6857177 12,13.5703774 12,13.4454918 C11.9982639,12.8711769 11.6591435,12.4137931 11.2384259,12.4137931 Z"/>
                                <path id="Shape" d="M19.4934399,10.0298094 C18.8904791,9.46753465 17.9813517,9.54766559 17.4652422,10.2063691 L12.7390292,16.227734 L10.3765475,14.0220959 C9.77171224,13.4611793 8.86383446,13.5351986 8.34710017,14.1905067 C7.82911622,14.847173 7.89909717,15.8325119 8.50205798,16.3947867 L11.9592416,19.6217548 C12.2229197,19.8648639 12.5534547,20 12.8964863,20 C12.9352258,20 12.9708411,19.9986418 13.0102054,19.9945674 C13.3894771,19.9626508 13.7450053,19.7663979 13.9924379,19.4506277 L19.6571453,12.2340894 C20.1707555,11.5774231 20.1001497,10.5920841 19.4934399,10.0298094 Z"/>
                            </g>
                        </g>
                    </g>
                </g>
            </g>
        </g>
    </g>
</svg>
