<?xml version="1.0" encoding="UTF-8"?>
<svg version="1.1" viewBox="0 0 453 330" xmlns="http://www.w3.org/2000/svg">
<defs>
<linearGradient id="b" x1="49.99%" x2="49.99%" y1="100.01%" y2="1.3314e-14%">
<stop stop-color="#808080" stop-opacity=".25" offset="0"/>
<stop stop-color="#808080" stop-opacity=".12" offset=".54"/>
<stop stop-color="#808080" stop-opacity=".1" offset="1"/>
</linearGradient>
<linearGradient id="a" x1="50.006%" x2="50.006%" y1="99.969%" y2="-.028182%">
<stop stop-color="#808080" stop-opacity=".25" offset="0"/>
<stop stop-color="#808080" stop-opacity=".12" offset=".54"/>
<stop stop-color="#808080" stop-opacity=".1" offset="1"/>
</linearGradient>
</defs>
<g fill="none" fill-rule="evenodd">
<g transform="translate(-140 -1279)">
<g transform="translate(0 1141)">
<g transform="translate(140 138)">
<ellipse cx="31.5" cy="258" rx="22.5" ry="8" fill="#000" fill-rule="nonzero" opacity=".1"/>
<ellipse cx="396.5" cy="291" rx="22.5" ry="8" fill="#000" fill-rule="nonzero" opacity=".1"/>
<path d="m267 9.255c-34.341 13.282-71.566 13.9-106.14 1.396-49.005-17.717-113-22.251-136.72 58.935-40.474 138.71 42.33 188.21 42.33 188.21s57.811 12.976 89.82 36.423c45.469 33.304 101.15 44.437 153.61 28.82 33.544-9.9882 62.294-26.374 70.513-53.185 22.988-74.985 8.3948-120.05 49.998-139.83 41.603-19.771 18.454-93.013-11.133-94.675s-99.293 15.326-120.86-18.465c-7.6877-11.997-19.447-12.273-31.418-7.6381z" fill="#000" fill-rule="nonzero" opacity=".1"/>
<path d="m395.53 292s6.2658-20.362-1.1801-35.349c-3.171-6.2671-4.1274-13.347-2.7256-20.178 0.69212-3.2383 1.6936-6.4093 2.9919-9.473" stroke="#535461" stroke-width="2"/>
<path d="m390 217.44c0 2.4488 4.4975 9.5603 4.4975 9.5603s4.4975-7.1065 4.4975-9.5603c0-2.452-2.0147-4.4397-4.5-4.4397s-4.5 1.9877-4.5 4.4397h0.004964z" fill="#D14045" fill-rule="nonzero"/>
<path d="m382.74 231.15c1.3831 2.1458 9.265 5.8549 9.265 5.8549s-0.14238-8.7414-1.5255-10.887c-0.89473-1.3881-2.4586-2.1912-4.1025-2.1067s-3.118 1.0436-3.8672 2.5162c-0.74914 1.4726-0.65946 3.2348 0.23527 4.6229h-0.005085z" fill="#D14045" fill-rule="nonzero"/>
<path d="m382.44 255.4c2.1934 1.1022 10.555 0.3429 10.555 0.3429s-4.3574-7.1665-6.5509-8.2687c-2.1925-1.1038-4.8662-0.22434-5.9719 1.9643-1.1057 2.1886-0.22474 4.8577 1.9677 5.9615z" fill="#D14045" fill-rule="nonzero"/>
<path d="m386.78 272.91c1.9392 1.4515 10.219 2.0902 10.219 2.0902s-3.0445-7.7028-4.9934-9.1398c-1.9505-1.4403-4.7016-1.0298-6.1448 0.91689-1.4431 1.9467-1.0318 4.6924 0.91868 6.1327z" fill="#D14045" fill-rule="nonzero"/>
<path d="m401.57 237.55c-1.8676 1.694-10.571 3.4462-10.571 3.4462s2.1329-8.0622 4.0004-9.7562c1.8675-1.6929 4.8522-1.6527 6.6665 0.089796 1.8143 1.7425 1.7712 4.5273-0.096239 6.2202z" fill="#D14045" fill-rule="nonzero"/>
<path d="m405.56 258.4c-2.1934 1.1052-10.555 0.34383-10.555 0.34383s4.3574-7.1861 6.5509-8.2667c2.1925-1.1068 4.8662-0.22496 5.9719 1.9697 1.1057 2.1946 0.22474 4.8709-1.9677 5.9777v-0.024559z" fill="#D14045" fill-rule="nonzero"/>
<path d="m407.22 279.91c-1.9392 1.4515-10.219 2.0902-10.219 2.0902s3.0445-7.7028 4.9934-9.1398c1.9505-1.4403 4.7016-1.0298 6.1448 0.91689 1.4431 1.9467 1.0318 4.6924-0.91868 6.1327z" fill="#D14045" fill-rule="nonzero"/>
<path d="m32.056 259s12.553-43.837-2.3454-76.141c-6.2543-13.551-8.3065-28.757-5.4383-43.46 1.3827-6.9733 3.383-13.802 5.9758-20.399" stroke="#535461" stroke-width="2"/>
<path d="m21.005 98.829c0 5.4275 9.5 21.171 9.5 21.171s9.4951-15.754 9.4951-21.171c0-5.4281-4.2533-9.8285-9.5-9.8285s-9.5 4.4004-9.5 9.8285h0.0049121z" fill="#D14045" fill-rule="nonzero"/>
<path d="m4.4381 127.76c2.9232 4.5053 19.562 12.244 19.562 12.244s-0.30188-18.281-3.2251-22.767c-2.9741-4.3456-8.8904-5.5355-13.327-2.6804-4.4371 2.8551-5.773 8.7116-3.0093 13.193v0.010012z" fill="#D14045" fill-rule="nonzero"/>
<path d="m5.2651 178.67c4.7243 2.4548 22.735 0.76042 22.735 0.76042s-9.4089-15.933-14.108-18.373c-3.0554-1.5881-6.7008-1.3757-9.563 0.55726-2.8622 1.9329-4.5064 5.2927-4.3132 8.8138s2.1944 6.6684 5.2498 8.2565v-0.015311z" fill="#D14045" fill-rule="nonzero"/>
<path d="m14.858 216.4c4.2266 3.167 22.142 4.5983 22.142 4.5983s-6.5933-16.957-10.825-20.109c-4.2256-3.1676-10.185-2.2633-13.31 2.0199-3.1251 4.2831-2.2329 10.323 1.9927 13.491z" fill="#D14045" fill-rule="nonzero"/>
<path d="m45.006 141.49c-3.8876 3.6905-22.006 7.5149-22.006 7.5149s4.4357-17.589 8.3234-21.28c3.8891-3.6983 10.109-3.6151 13.893 0.18601 3.784 3.8011 3.6988 9.8806-0.19032 13.579h-0.020301z" fill="#D14045" fill-rule="nonzero"/>
<path d="m54.735 186.67c-4.7243 2.4548-22.735 0.76042-22.735 0.76042s9.4089-15.933 14.108-18.373c3.0554-1.5881 6.7008-1.3757 9.563 0.55726 2.8622 1.9329 4.5064 5.2927 4.3132 8.8138s-2.1944 6.6684-5.2498 8.2565v-0.015311z" fill="#D14045" fill-rule="nonzero"/>
<path d="m58.142 231.4c-4.2266 3.167-22.142 4.5983-22.142 4.5983s6.5933-16.957 10.825-20.109c4.2256-3.1676 10.185-2.2633 13.31 2.0199 3.1251 4.2831 2.2329 10.323-1.9927 13.491z" fill="#D14045" fill-rule="nonzero"/>
<path d="m189.58 149.97l-27.622-3.58c-1.1202-0.1438-1.9826-0.57022-1.9528-0.94211 0.049565-0.37189 0.99129-0.54543 2.1362-0.3818l27.563 3.9916c0.75834 0.10909 1.3333 0.39668 1.2986 0.64956-0.034695 0.23801-0.66912 0.36197-1.4225 0.2628z" fill="#D14045" fill-rule="nonzero"/>
<path d="m189.68 151.01l-27.571-2.9727c-1.1196-0.11829-2.0715 0.09772-2.106 0.48346s0.85819 0.79204 1.9729 0.89491l27.62 2.5716c0.75955 0.072005 1.381-0.08229 1.4057-0.34459 0.019729-0.27773-0.5672-0.55032-1.3218-0.63261z" fill="#D14045" fill-rule="nonzero"/>
<path d="m232.43 171.97l27.617-3.58c1.1202-0.1438 1.9826-0.57022 1.9528-0.94211-0.049565-0.37189-0.99129-0.54543-2.1362-0.3818l-27.563 3.9916c-0.75834 0.10909-1.3333 0.39668-1.2986 0.64956 0.034695 0.23801 0.66912 0.36197 1.4275 0.2628z" fill="#D14045" fill-rule="nonzero"/>
<path d="m232.32 172.01l27.571-2.9727c1.1196-0.11829 2.0715 0.09772 2.106 0.48346s-0.85819 0.79204-1.9729 0.89491l-27.62 2.5716c-0.75955 0.072005-1.381-0.08229-1.4057-0.34459-0.019729-0.27773 0.5672-0.55032 1.3218-0.63261z" fill="#D14045" fill-rule="nonzero"/>
<rect x="133" y="202" width="7" height="98" fill="#40414D" fill-rule="nonzero"/>
<rect x="282" y="202" width="7" height="98" fill="#40414D" fill-rule="nonzero"/>
<path d="m130 194h157c6.0751 0 11 4.7431 11 10.594v1.4061h-179v-1.4061c0-5.8508 4.9249-10.594 11-10.594z" fill="#DFE6F5" fill-rule="nonzero"/>
<path d="m130 194h157c6.0751 0 11 4.7431 11 10.594v1.4061h-179v-1.4061c0-5.8508 4.9249-10.594 11-10.594z" fill="#000" fill-rule="nonzero" opacity=".1"/>
<path d="m130 192h157c6.0751 0 11 4.7431 11 10.594v1.4061h-179v-1.4061c0-5.8508 4.9249-10.594 11-10.594z" fill="#DFE6F5" fill-rule="nonzero"/>
<circle cx="208.5" cy="169.5" r="13.5" fill="#FFD77C" fill-rule="nonzero" stroke="#FFAB50"/>
<circle cx="209" cy="170" r="11" fill="#FFD77C" fill-rule="nonzero" stroke="#FFAB50"/>
<circle cx="209" cy="170" r="8" fill="#FFD77C" fill-rule="nonzero" stroke="#FFAB50"/>
<circle cx="208.5" cy="169.5" r="4.5" fill="#FFD77C" fill-rule="nonzero" stroke="#FFAB50"/>
<circle cx="201.5" cy="177.5" r="13.5" fill="#FFD77C" fill-rule="nonzero" stroke="#FFAB50"/>
<circle cx="201" cy="178" r="11" fill="#FFD77C" fill-rule="nonzero" stroke="#FFAB50"/>
<circle cx="201" cy="177" r="8" fill="#FFD77C" fill-rule="nonzero" stroke="#FFAB50"/>
<circle cx="201.5" cy="177.5" r="4.5" fill="#FFD77C" fill-rule="nonzero" stroke="#FFAB50"/>
<circle cx="216.5" cy="177.5" r="13.5" fill="#FFD77C" fill-rule="nonzero" stroke="#FFAB50"/>
<circle cx="217" cy="178" r="11" fill="#FFD77C" fill-rule="nonzero" stroke="#FFAB50"/>
<circle cx="217" cy="177" r="8" fill="#FFD77C" fill-rule="nonzero" stroke="#FFAB50"/>
<circle cx="216.5" cy="177.5" r="4.5" fill="#FFD77C" fill-rule="nonzero" stroke="#FFAB50"/>
<path d="m181 174h57v2.6999c0 5.3839-2.1203 10.547-5.8946 14.354s-8.8932 5.9458-14.231 5.9458h-16.749c-11.115 0-20.125-9.0887-20.125-20.3v-2.6999z" fill="#D14045" fill-rule="nonzero"/>
<path d="m231.89 174c-0.30652 12.471-10.354 22.42-22.645 22.421h-11.245c1.6404 0.38027 3.3174 0.57431 5 0.57855h11.33c6.0115 0.002692 11.778-2.4193 16.03-6.733 4.2517-4.3136 6.6405-10.165 6.6405-16.267h-5.11z" fill="#000" fill-rule="nonzero" opacity=".1"/>
<rect transform="translate(211.5 280) rotate(90) translate(-211.5 -280)" x="208" y="206" width="7" height="148" fill="#40414D" fill-rule="nonzero"/>
<rect x="76" y="253" width="6" height="54" fill="#40414D" fill-rule="nonzero"/>
<rect x="123" y="253" width="6" height="54" fill="#40414D" fill-rule="nonzero"/>
<path d="m134 243.5c0 3.5879-12.221 6.5-27.297 6.5-15.076 0-26.703-2.9071-26.703-6.5s11.627-6.5 26.703-6.5c15.076 0 27.297 2.927 27.297 6.5z" fill="#F6C6CD" fill-rule="nonzero"/>
<path d="m71 244h63v5.6028c0 2.9808-2.3727 5.3972-5.2996 5.3972h-48.615c-5.0176 0-9.0851-4.1424-9.0851-9.2523v-1.7477z" fill="#40414D" fill-rule="nonzero"/>
<path transform="translate(70 217.5) rotate(-12.72) translate(-70 -217.5)" d="m69.371 180h1.2677c1.8564 0 3.3613 1.582 3.3613 3.5334v71.467h-1.9208c-3.3575 0-6.0792-2.8611-6.0792-6.3905v-65.076c-3.6e-6 -0.93888 0.35546-1.8392 0.98791-2.5021 0.63245-0.66294 1.4899-1.034 2.383-1.0313z" fill="#40414D" fill-rule="nonzero"/>
<rect transform="translate(340 281) rotate(180) translate(-340 -281)" x="337" y="254" width="6" height="54" fill="#40414D" fill-rule="nonzero"/>
<rect transform="translate(293 281) rotate(180) translate(-293 -281)" x="290" y="254" width="6" height="54" fill="#40414D" fill-rule="nonzero"/>
<path d="m285 244.51c0 3.5838 12.221 6.4926 27.297 6.4926 15.076 0 26.703-2.9038 26.703-6.4926 0-3.5888-11.632-6.5074-26.703-6.5074-15.071 0-27.297 2.9236-27.297 6.5074z" fill="#F6C6CD" fill-rule="nonzero"/>
<path transform="translate(316.5 250.5) rotate(180) translate(-316.5 -250.5)" d="m294.09 245h48.615c2.9269 0 5.2996 2.4164 5.2996 5.3972v5.6028h-63v-1.7477c0-5.1099 4.0675-9.2523 9.0851-9.2523z" fill="#40414D" fill-rule="nonzero"/>
<path transform="translate(349 218.5) rotate(192.72) translate(-349 -218.5)" d="m351.08 181h1.9231v71.467c0 1.9512-1.5067 3.533-3.3654 3.533h-1.2692c-1.8587 0-3.3654-1.5818-3.3654-3.533v-65.077c-4e-6 -3.525 2.7192-6.3841 6.0769-6.3896z" fill="#40414D" fill-rule="nonzero"/>
<path d="m341.24 223.23l1.7612-0.55636s-3.0106-20.089-2.9805-38.093v-1.5538c0.035124-1.1228 0.075264-2.2355 0.13046-3.3231 0.070246-1.3934 0.085299-2.7217 0.075264-4.0098 0.16558-17.337-6.6734-24.66-6.6734-24.66s-8.0282-11.438-12.84-13.663c-0.41646-1.3032-0.89313-2.9773-1.3146-4.9221 0.15554-0.10526 0.30607-0.21052 0.45158-0.32079 1.9873-1.4726 3.8887-3.0574 5.695-4.7466 2.4687-2.3107 4.837-5.1276 4.7065-8.3053 0.013563-0.30941 0.003499-0.61939-0.030106-0.92727-0.4566-3.8344-4.4456-6.7215-6.0562-10.355-1.3548-3.0525-0.94833-6.4508-2.1325-9.5484-1.1842-3.0976-5.3187-5.9796-8.4396-4.3507-1.149 0.60147-1.8415 1.6641-2.7998 2.4711-2.3783 2.0049-6.2118 2.1904-9.4632 1.2781-3.2514-0.91223-4.2148-4.6313-8.7607-4.6414 0.40365 0.1352 0.78945 0.31865 1.149 0.54634-0.37973-0.063906-0.76396-0.097428-1.149-0.10025 1.889 0.59706 3.2494 2.2486 3.4722 4.2153-0.007064 0.12091-0.020462 0.24137-0.040141 0.36088-1.8164 0.97739-4.2047 0.42103-6.3824 0.38595-2.1776-0.035086-4.6563 1.0626-4.4406 2.842-0.03658 0.2022-0.03658 0.4093 0 0.6115 0.286 1.3483 2.0923 2.3658 2.3131 3.6139v0.10024c-4.0299 2.0116-8.3895 3.2816-12.87 3.7492-0.14551 0-0.080281 0.17543 0.13046 0.43106h-0.13046c-0.81787 0.085208 4.9022 4.6013 5.5545 4.897 2.3884 1.0827 5.2434 1.8796 7.7723 2.7116l0.22077 0.070171c-0.85205 1.9773-1.2909 4.1076-1.2895 6.2603 0 7.7189 5.5545 14.205 13.076 16.039 1.4049 1.639 2.8801 3.4384 4.2248 5.2278h-0.095334s-8.6453 11.488-8.3694 28.645c-0.024524 2.1503 0.089443 4.3 0.3412 6.4358-5.5595-0.31577-17.506-1.7794-26.593-8.4256-12.258-8.9569-25.931-6.2704-23.081-0.8972 2.85 5.3732 17.446 9.8491 19.799 10.3 0.22077 0.040098 0.73257 0.16039 1.4651 0.34083-2.9002 0.54634-4.8871 1.5037-4.7667 2.7918 0.23583 2.461 12.73 10.3 20.271 10.746 4.9825 0.29572 10.979 1.8295 15.71 3.1778 0.4566 10.3-2.0371 13.388-2.0371 13.388s0.7426 0.45612 1.9719 1.1027l-0.52685 1.5037c-3.0607 1.7643-6.834 3.6038-10.266 4.3456-4.3735 0.89763-8.6247 2.311-12.664 4.2103l-16.975 8.1951c-3.0819 1.4284-5.2069 4.3452-5.6197 7.7139-0.3713 3.4735 0.67738 7.8141 6.3573 11.258 0.35123 2.8219 2.0773 6.115 6.6082 9.1324 8.7808 5.8343 31.857 23.312 34.998 25.698 0.060211 4.2654-0.50176 12.821-5.7702 14.155-6.6032 1.6741-1.2895 8.0196 4.0492 7.769 1.2669 0.47875 2.6457 0.57974 3.9689 0.29071 5.6599-1.3433 26.403-8.5209 27.818-19.257 0.058754-0.46544 0.085578-0.93434 0.080282-1.4034 0.082281-1.8303-0.3748-3.6445-1.3146-5.2178 0.22135 0.4851 0.40096 0.98814 0.53688 1.5037-1.716-3.9096-5.8957-6.3656-9.1471-7.749v-0.11027c-0.50176-0.19548-1.0035-0.35587-1.415-0.50123 0.008312-0.29052-0.013548-0.58111-0.065228-0.86712l-32.529-22.39s14.145-11.644 28.761-9.8491 16.944-0.8571 16.944-0.8571 7.4963-7.1224 8.2489-15.323l0.47165-0.12531s-0.035123-0.51626-0.10537-1.4636z" fill="url(#b)" fill-rule="nonzero"/>
<path d="m301.21 281.2s1.3288 14.448-5.3201 16.201-0.44125 8.757 4.8738 7.4296c5.3151-1.3274 24.826-8.3211 26.154-18.822s-13.298-14.012-13.298-14.012l-12.41 9.2028z" fill="#B8616E" fill-rule="nonzero"/>
<path d="m301.21 281.2s1.3288 14.448-5.3201 16.201-0.44125 8.757 4.8738 7.4296c5.3151-1.3274 24.826-8.3211 26.154-18.822s-13.298-14.012-13.298-14.012l-12.41 9.2028z" fill="#000" fill-rule="nonzero" opacity=".05"/>
<path d="m304.21 282.2s1.3288 14.448-5.3201 16.201-0.44125 8.757 4.8738 7.4296c5.3151-1.3274 24.826-8.3211 26.154-18.822s-13.298-14.012-13.298-14.012l-12.41 9.2028z" fill="#B8616E" fill-rule="nonzero"/>
<path d="m318.29 273l-12.291 9.353s0.054672 0.63462 0.089463 1.647c4.6421-1.2894 14.756-4.7143 14.911-10.073-0.88379-0.3636-1.7883-0.67307-2.7087-0.92674z" fill="#000" fill-rule="nonzero" opacity=".1"/>
<rect x="305" y="146" width="5" height="4" fill="#F8BDC5" fill-rule="nonzero"/>
<path d="m305.58 210s-8.4453 6.5936-15.382 8.1574c-4.1243 0.88683-8.1225 2.2769-11.904 4.1384l-15.953 8.0578c-2.944 1.4716-4.9339 4.3285-5.2827 7.5847-0.4561 4.4821 1.3583 10.378 12.184 13.884l34.117 28.177 10.636-8.8048-36.332-27.729 27.917-17.171v-16.295z" fill="#758AC8" fill-rule="nonzero"/>
<path d="m305.58 210s-8.4453 6.5936-15.382 8.1574c-4.1243 0.88683-8.1225 2.2769-11.904 4.1384l-15.953 8.0578c-2.944 1.4716-4.9339 4.3285-5.2827 7.5847-0.4561 4.4821 1.3583 10.378 12.184 13.884l34.117 28.177 10.636-8.8048-36.332-27.729 27.917-17.171v-16.295z" fill="#000" fill-rule="nonzero" opacity=".1"/>
<path d="m299.91 180.97s-16.37 0.43399-27.875-8.2853c-11.505-8.7193-24.332-6.1055-21.68-0.87292 2.6524 5.2326 16.37 9.5922 18.582 10.026 2.212 0.43399 34.066 9.1582 34.066 9.1582l-3.0928-10.026z" fill="#F8BDC5" fill-rule="nonzero"/>
<path d="m299.91 180.97s-16.37 0.43399-27.875-8.2853c-11.505-8.7193-24.332-6.1055-21.68-0.87292 2.6524 5.2326 16.37 9.5922 18.582 10.026 2.212 0.43399 34.066 9.1582 34.066 9.1582l-3.0928-10.026z" fill="#000" fill-rule="nonzero" opacity=".05"/>
<path d="m302.51 206l-5.3168 15.956s-29.901 18.392-32.342 20.828c-1.8942 1.8949-4.4298 9.3089 4.4298 15.51 8.8597 6.2009 33.224 25.706 33.224 25.706s18.606-4.0103 17.278-11.53l-30.568-22.157s13.29-11.53 27.025-9.75c13.735 1.7796 15.95-0.88728 15.95-0.88728s10.634-10.647 7.0857-20.823c-3.5479-10.176-36.767-12.853-36.767-12.853z" fill="#758AC8" fill-rule="nonzero"/>
<path d="m295 134.16s14.984 16.227 14.102 21.049c-0.88228 4.8221 11.898-14.035 11.898-14.035s-3.9877-9.6491-3.0855-20.176l-22.914 13.162z" fill="#F8BDC5" fill-rule="nonzero"/>
<path d="m308.54 148.9c1.0301-1.0852 2.115-2.1175 3.2503-3.0927 2.2724-1.8594 4.3571-3.936 6.2243-6.2004 3.1096-4.01 14.654 13.293 14.654 13.293s7.1034 7.9748 6.2192 27.032c-0.88416 19.057 1.1102 44.536 1.1102 44.536l-2.6876 0.74685c-4.5897 1.5282-9.6325 0.81337-13.614-1.9298-3.5467-2.4461-8.0378-5.0124-11.454-5.243-6.6613-0.4411-12.659-4.2104-12.659-4.2104s2.8886-6.867-1.5523-29.027c-4.4409-22.16 6.8773-37.909 6.8773-37.909s0.8942 4.822 3.6321 2.005z" fill="#000" fill-rule="nonzero" opacity=".1"/>
<path d="m341 222.8l-2.6307 0.88714-1.5635 0.52627c-4.5348 1.5289-9.5177 0.81407-13.451-1.9297-3.4993-2.4409-7.9418-5.0121-11.317-5.2427-6.5718-0.44608-14.017-5.3179-14.017-5.3179s4.3878-5.7589 0-27.918c-4.3878-22.159 6.8001-37.887 6.8001-37.887s0.88352 4.7966 3.5887 1.9748c1.0157-1.084 2.0859-2.1145 3.2065-3.0875 2.2453-1.8592 4.305-3.9358 6.1499-6.2 3.0725-4.0097 14.479 13.292 14.479 13.292s7.0185 7.9743 6.145 27.03c-0.094308 2.0048-0.13402 4.0698-0.13898 6.1599-0.064527 17.833 2.7498 37.711 2.7498 37.711z" fill="#5E52AD" fill-rule="nonzero"/>
<path d="m316.51 179.71l0.43747 9.9089s-23.295 1.3501-28.128-3.6018c-4.8321-4.9519 13.174 14.565 17.151 15.763 3.7334 1.1259 13.373 2.1193 18.429 2.2212 2.9509 0.097339 5.68-1.5987 6.9598-4.3253 0.58932-1.3131 0.77984-2.7775 0.54684-4.203-0.87992-5.8536 0-18.468 0-18.468l-15.396 2.7052z" fill="#000" fill-rule="nonzero" opacity=".1"/>
<path d="m316.31 178.71l0.44311 9.9089s-23.595 1.3501-28.49-3.6018c-4.8943-4.9519-22.603-3.8566-22.256 0 0.22155 2.476 12.019 10.357 19.134 10.811 7.1149 0.45342 16.465 3.7547 20.494 4.9519 3.7815 1.1259 13.545 2.1193 18.666 2.2212 2.9889 0.097339 5.7531-1.5987 7.0494-4.3253 0.5969-1.3131 0.78988-2.7775 0.55388-4.203-0.89125-5.8536 0-18.468 0-18.468l-15.594 2.7052z" fill="#F8BDC5" fill-rule="nonzero"/>
<path d="m321.91 150.01s-10.11 1.3363-8.7925 16.495c1.3179 15.159 3.0784 16.495 3.0784 16.495s14.949-1.3363 16.705-1.7852c1.7555-0.44881 0.88024-16.939 0.88024-16.939s-0.44261-14.71-11.871-14.266z" fill="#000" fill-rule="nonzero" opacity=".1"/>
<path d="m321.91 150.01s-10.11 1.3363-8.7925 16.495c1.3179 15.159 3.0784 16.495 3.0784 16.495s14.949-1.3363 16.705-1.7851c1.7555-0.4488 0.88024-16.939 0.88024-16.939s-0.44261-14.72-11.871-14.266z" fill="#5E52AD" fill-rule="nonzero"/>
<path d="m317.9 129.92c-0.695-3.4457 0.73-4.5089 1.105-8.9194l-23 13.054s2.635 2.8255 5.63 6.4533c1.3385 0.33328 2.7144 0.49867 4.095 0.49224 6.025 0.024612 9.32-6.345 12.17-11.08z" fill="#000" fill-rule="nonzero" opacity=".1"/>
<circle cx="305.5" cy="124.5" r="16.5" fill="#F8BDC5" fill-rule="nonzero"/>
<path d="m308.91 119.85c-2.4878 1.586-2.5226 5.1719-0.92048 7.6556s4.3636 4.1246 7.0205 5.6706c0.77121 0.44886 1.622 0.91269 2.4878 0.81294 0.6656-0.13003 1.2822-0.44251 1.7813-0.90272 1.8593-1.4542 3.6336-3.0145 5.3139-4.6732 2.4181-2.384 4.7417-5.3215 4.3636-8.6481-0.4279-3.7754-4.1496-6.6182-5.6522-10.194-1.2638-2.9924-0.88565-6.3489-1.9902-9.4062-1.1046-3.0573-4.9756-5.8851-7.8713-4.2842-1.0697 0.58851-1.7166 1.6408-2.6122 2.4338-2.2191 1.965-5.7965 2.1595-8.8316 1.2618-3.0351-0.89773-3.9357-4.5635-8.1699-4.5734 2.1047 0.74312 3.5277 2.9426 3.2043 4.9475-1.6967 0.96256-3.9257 0.41395-5.9707 0.37904-2.045-0.034912-4.478 1.1122-4.1247 2.9575 0.30848 1.4962 2.4629 2.6084 2.1445 4.1046-3.7376 1.9737-7.812 3.2256-12.011 3.6907-0.76126 0.084786 4.5725 4.5285 5.1796 4.8228 2.2241 1.0673 4.896 1.8503 7.2494 2.6682 6.3936 2.2094 12.941 2.9974 19.41 1.2768z" fill="#000" fill-rule="nonzero" opacity=".1"/>
<path d="m308.91 118.85c-2.4878 1.586-2.5226 5.1719-0.92048 7.6556s4.3636 4.1246 7.0205 5.6706c0.77121 0.44886 1.622 0.91269 2.4878 0.81294 0.6656-0.13003 1.2822-0.44251 1.7813-0.90272 1.8593-1.4542 3.6336-3.0145 5.3139-4.6732 2.4181-2.384 4.7417-5.3215 4.3636-8.6481-0.4279-3.7754-4.1496-6.6182-5.6522-10.194-1.2638-2.9924-0.88565-6.3489-1.9902-9.4062-1.1046-3.0573-4.9756-5.8851-7.8713-4.2842-1.0697 0.58851-1.7166 1.6408-2.6122 2.4338-2.2191 1.965-5.7965 2.1595-8.8316 1.2618-3.0351-0.89773-3.9357-4.5635-8.1699-4.5734 2.1047 0.74312 3.5277 2.9426 3.2043 4.9475-1.6967 0.96256-3.9257 0.41395-5.9707 0.37904-2.045-0.034912-4.478 1.1122-4.1247 2.9575 0.30848 1.4962 2.4629 2.6084 2.1445 4.1046-3.7376 1.9737-7.812 3.2256-12.011 3.6907-0.76126 0.084786 4.5725 4.5285 5.1796 4.8228 2.2241 1.0673 4.896 1.8503 7.2494 2.6682 6.3936 2.2144 12.941 2.9874 19.41 1.2768z" fill="#916168" fill-rule="nonzero"/>
<path d="m328.74 281c0.71553 1.6205 0.9648 3.4028 0.72071 5.1527-1.3356 10.503-20.941 17.503-26.288 18.809-2.8173 0.69297-5.8866-0.92561-7.1718-2.8709 0.82654 2.2868 4.3847 4.539 7.6203 3.747 5.3473-1.3117 24.953-8.3157 26.288-18.809 0.29186-2.0811-0.11886-4.1988-1.1693-6.0289z" fill="#fff" fill-rule="nonzero" opacity=".1"/>
<path d="m187.92 293.32c-0.39474-0.89436-2.4434-2.6379-12.322-3.0147-6.7656-0.25625-9.0691-3.8488-9.6937-7.3559 2.2236-0.29142 3.9624-0.69338 4.5321-1.2511 0 0-0.029981-0.16078-0.079949-0.44718l0.079949-0.060294c-0.43206-2.5297-0.65767-5.0907-0.67456-7.6574-0.01298-2.1963 0.21831-4.3872 0.68956-6.5319 0.27512-1.4178 0.39077-2.8622 0.34478-4.306 0.054965-8.5417-2.9281-23.555-2.9281-23.555l-0.40974-12.476c-0.083815-3.1708-1.8835-6.0423-4.692-7.4865-0.9813-0.51063-2.0681-0.78255-3.173-0.79387 0 0-15.66-2.4821-29.756-3.8337-0.99935-0.80895-4.5221-2.9896-12.597-1.7385l-4.647-13.677c-0.037543-0.16555-0.06425-0.33339-0.079948-0.50245 0.16489-1.7385 1.3191-4.3563 6.7007-4.5221l1.1243 1.0049s0.19987-0.39694 0.53466-1.0049c6.6757-0.075368 43.042-0.44718 44.916 0 2.0637 0.50245 20.142-3.5473 20.662-4.0498 7.0255-6.8886-20.662-3.5473-20.662-3.5473-2.7232 0.44718-11.523-0.085417-20.537-0.82402 4.4621-6.7278 8.6594-29.564 8.6594-29.564s15.99-8.1045 11.363-12.662c-4.627-4.5572-18.593 10.129-18.593 10.129s-5.6813 16.717-8.2647 21.781c-0.99935 2.0098-2.2935 2.4218-3.4478 2.1907 0.52466-0.42206 0.86444-0.67328 0.86444-0.67328s-11.363-9.1195-12.397-12.662c-0.19263-0.58035-0.44729-1.138-0.75951-1.6631-0.54465-3.2107-1.499-6.3711-3.8275-8.4764-0.39108-0.4222-0.82293-0.80426-1.2892-1.1406-0.62959-0.45221-1.3441-0.84412-1.9387-1.3365 0.33478-1.5476 0.72453-3.1554 1.1293-4.713 8.4346-1.0049 14.99-8.0392 14.99-16.581-0.001294-1.2881-0.15392-2.5716-0.45471-3.8237 2.564 0.16975 5.029-1.0238 6.4958-3.1453 1.7039-2.5525 1.6489-6.0294 0.21986-8.7226-0.59072-1.0934-1.365-2.0759-2.2885-2.9042-1.4724-1.4912-3.2682-2.6194-5.2466-3.2961-1.7139-0.59792-3.6077-0.95466-4.9668-2.1254-0.60737-0.79871-1.16-1.6381-1.6539-2.5123-0.57035-0.85832-1.2414-1.6445-1.9987-2.3414-2.4984-2.5876-6.0261-4.1804-9.6188-4.8838-4.3772-0.85919-8.8992-0.5527-13.351-0.2462-1.6639 0.11556-3.6177 0.41201-4.3672 1.8691-0.56464 1.0953-0.19487 2.4067-0.26983 3.6277-0.23485 3.8839-4.652 6.0294-8.4945 6.969-3.8425 0.93958-8.4246 1.7536-10.278 5.1602-1.6839 3.075-0.49968 6.8032 0.039974 10.255 0.89881 6.0609-0.43957 12.243-3.7626 17.38-1.6889 2.5977-3.8675 4.909-5.2016 7.6976-1.478 3.1087-1.8212 6.6412-0.96937 9.9787 0.24984 0.97476 0.60961 1.9696 0.42972 2.9645-0.20447 0.82035-0.60595 1.5777-1.1692 2.2058-4.645 5.7677-11.473 9.3245-18.838 9.8129 0.30595 1.0201 0.90376 1.927 1.7189 2.6077 1.0356 1.0297 2.2432 1.8682 3.5677 2.4771 3.4893 1.7596 7.1585 3.1327 10.943 4.095 2.5484 0.64816 5.2116 1.1104 7.805 0.66826s5.1217-1.9344 6.186-4.296c0.6196-1.3667 0.70954-2.9142 1.2592-4.306 1.0943-2.7836 3.8075-4.5874 5.6414-6.974-0.61752 6.1502-0.90941 12.329-0.87444 18.51v5.2958c0 6.979-0.49968 11.793-4.8019 20.51-0.51272 0.91638-0.73745 1.9674-0.64458 3.0147-0.1903 1.1511 0.23698 2.3179 1.1243 3.07-0.29986 1.7388-0.44534 3.501-0.43472 5.2657-0.059961 6.351 2.0737 14.878 13.386 17.038l20.142-1.0049s28.407-5.5722 36.152-1.5074c1.3171 0.2817 2.26 1.4496 2.2635 2.8037-0.023966 0.42246-0.089239 0.84151-0.19487 1.2511-0.21577 1.3164-0.29781 2.6514-0.24484 3.9844-0.034977 8.5417 1.7938 27.926 1.7938 27.926v8.2201c-1.2892 1.9495-2.8781 4.8336-2.6733 6.959v0.14069c0 0.045221 0 0.12561 0.02998 0.18591 0.029981 0.060295 0 0.11054 0.034978 0.16581 0.034977 0.05527 0.02998 0.10552 0.044971 0.16078 0.01499 0.055269 0.039974 0.12059 0.064958 0.17586 0.024983 0.055269 0.034977 0.090441 0.054964 0.13566 0.019987 0.04522 0.064958 0.13064 0.099936 0.19093l0.059961 0.10552c0.060097 0.096715 0.12689 0.18906 0.19987 0.27635 2.5833 3.0147 15.49 8.8482 19.627 8.612 4.3922-0.25123 19.108 0.50245 19.627-6.0797 0.065893-0.19632 0.053352-0.41071-0.034977-0.59792z" fill="url(#a)" fill-rule="nonzero"/>
<path d="m151.15 279.59s-6.0579 7.6573-3.5338 10.72c2.5241 3.0629 15.145 8.9182 19.183 8.6783 4.291-0.25524 18.679 0.51049 19.183-6.1258 0 0 1.0097-3.0629-12.116-3.5734s-9.0869-14.294-9.0869-14.294l-13.63 4.5944z" fill="#594C76" fill-rule="nonzero"/>
<path d="m79.957 216.66s-5.9803 20.607 11.961 24.125l19.436-1.0052s27.41-5.5287 34.885-1.5078c0 0 2.9901 0.50261 1.9934 4.5235-0.99672 4.0209 1.4951 31.162 1.4951 31.162v9.047s16.944 0 18.938-2.0104c0 0-1.4951-8.0418 0-14.576 1.4951-6.5339-2.4918-27.141-2.4918-27.141l-0.3937-12.404c-0.05946-3.1209-1.7863-5.9658-4.5151-7.4386-0.94317-0.50426-1.9925-0.77313-3.0599-0.78407 0 0-33.888-5.5287-45.849-4.5235-11.961 1.0052-32.398 2.5332-32.398 2.5332z" fill="#000" fill-rule="nonzero" opacity=".1"/>
<path d="m79.957 216.66s-5.9803 20.607 11.961 24.125l19.436-1.0052s27.41-5.5287 34.885-1.5078c0 0 2.9901 0.50261 1.9934 4.5235-0.99672 4.0209 1.4951 31.162 1.4951 31.162v9.047s16.944 0 18.938-2.0104c0 0-1.4951-8.0418 0-14.576 1.4951-6.5339-2.4918-27.141-2.4918-27.141l-0.3937-12.404c-0.05946-3.1209-1.7863-5.9658-4.5151-7.4386-0.94317-0.50426-1.9925-0.77313-3.0599-0.78407 0 0-33.888-5.5287-45.849-4.5235-11.961 1.0052-32.398 2.5332-32.398 2.5332z" fill="#8B9CD1" fill-rule="nonzero"/>
<path d="m130.97 175.66s3.9658 5.0462 6.4444 0c2.4786-5.0462 7.9315-21.698 7.9315-21.698s13.384-14.634 17.846-10.092c4.4615 4.5415-10.906 12.615-10.906 12.615s-5.4529 30.782-10.41 31.286c-4.9572 0.50462-12.393 0-12.393 0l-2.4786-5.5508 3.9658-6.56z" fill="#F8BDC5" fill-rule="nonzero"/>
<path d="m130.97 175.66s3.9658 5.0462 6.4444 0c2.4786-5.0462 7.9315-21.698 7.9315-21.698s13.384-14.634 17.846-10.092c4.4615 4.5415-10.906 12.615-10.906 12.615s-5.4529 30.782-10.41 31.286c-4.9572 0.50462-12.393 0-12.393 0l-2.4786-5.5508 3.9658-6.56z" fill="#000" fill-rule="nonzero" opacity=".05"/>
<path d="m113 151s9 10.515 10 14.02 12 12.518 12 12.518-8 6.0084-6.5 9.0127-10.5-10.014-10.5-10.014l-14-20.529 9-5.007z" fill="#EB6475" fill-rule="nonzero"/>
<path d="m113 151s9 10.515 10 14.02 12 12.518 12 12.518-8 6.0084-6.5 9.0127-10.5-10.014-10.5-10.014l-14-20.529 9-5.007z" fill="#000" fill-rule="nonzero" opacity=".1"/>
<path d="m119 138.52s-4.4981 14.782-4.4981 20.39c0 5.6071-18.992-1.5292-18.492-4.5877 0.49979-3.0584 10.995-14.273 11.495-18.86s11.495 3.0584 11.495 3.0584z" fill="#F8BDC5" fill-rule="nonzero"/>
<path d="m104.33 148.31s-17.614-4.5152-20.13 21.071c-2.5163 25.586 2.013 28.596-5.5358 44.148-7.5488 15.552 51.332 2.0067 51.332 2.0067s-3.0195-3.5118-12.581-2.0067l-4.5293-13.545s-1.5098-6.0202 7.0455-6.0202c8.5553 0 4.5293-17.559 4.5293-17.559s-4.5293-15.051-7.0455-16.556-7.0455-10.535-13.085-11.539z" fill="#000" fill-rule="nonzero" opacity=".1"/>
<path d="m104.33 147.31s-17.614-4.5152-20.13 21.071c-2.5163 25.586 2.013 28.596-5.5358 44.148-7.5488 15.552 51.332 2.0067 51.332 2.0067s-3.0195-3.5118-12.581-2.0067l-4.5293-13.545s-1.5098-6.0202 7.0455-6.0202c8.5553 0 4.5293-17.559 4.5293-17.559s-4.5293-15.051-7.0455-16.556-7.0455-10.535-13.085-11.539z" fill="#EB6475" fill-rule="nonzero"/>
<path d="m121.5 184s36.442 4.1733 42.432 3.13c0 0 26.757-3.443 19.968 3.6517-0.4992 0.52166-17.971 4.695-19.968 4.1733-1.9968-0.52167-44.429 0-44.429 0l-0.4992-5.2167 2.496-5.7383z" fill="#F8BDC5" fill-rule="nonzero"/>
<path d="m93.502 171.19l26.833 23.812s5.0629-9.9216 6.5817-9.9216c1.5189 0-18.226-29.269-18.226-29.269s-5.0629-5.9529-8.1006-2.9765c-3.0377 2.9765-12.151 0.99216-7.088 18.355z" fill="#000" fill-rule="nonzero" opacity=".1"/>
<path d="m93.502 170.19l26.833 23.812s5.0629-9.9216 6.5817-9.9216c1.5189 0-18.226-29.269-18.226-29.269s-5.0629-5.9529-8.1006-2.9765c-3.0377 2.9765-12.151 0.99216-7.088 18.355z" fill="#EB6475" fill-rule="nonzero"/>
<circle cx="114.5" cy="130.5" r="16.5" fill="#F8BDC5" fill-rule="nonzero"/>
<path d="m129.83 127.33c2.8147 1.1095 6.2626-0.22089 7.9213-2.7461 1.6586-2.5252 1.6084-5.9641 0.2111-8.6449-1.3973-2.6808-3.9808-4.6287-6.8306-5.6428-1.729-0.61247-3.654-0.96389-4.981-2.229-0.83938-0.79822-1.337-1.8776-1.9652-2.8515-2.3472-3.6548-6.5341-5.8135-10.791-6.6619s-8.6601-0.54721-12.993-0.24599c-1.6184 0.11547-3.5183 0.40664-4.2522 1.8525-0.54786 1.0844-0.191 2.3846-0.26136 3.5945-0.22618 3.8505-4.5236 5.9842-8.2782 6.9079-3.7546 0.92373-8.1073 1.7922-9.9368 5.1859-1.6385 3.0473-0.46744 6.7422 0.04021 10.166 0.8681 5.9806-0.42943 12.074-3.6591 17.184-1.6436 2.5754-3.7596 4.8646-5.0614 7.6308-1.44 3.0912-1.7736 6.5825-0.94493 9.8899 0.24628 0.96891 0.59309 1.9529 0.4222 2.9369-0.19698 0.80871-0.58668 1.5579-1.1359 2.1838-4.4546 5.6931-11.115 9.2354-18.331 9.7494 0.57299 2.1537 2.6589 3.5142 4.6442 4.5182 3.3878 1.7404 6.958 3.1008 10.645 4.0564 2.4779 0.6426 5.0714 1.0994 7.5946 0.66268 2.5232-0.43676 4.981-1.9177 6.0314-4.2572 0.60314-1.3555 0.69362-2.8867 1.2264-4.2722 1.2013-3.1075 4.403-4.9851 6.1219-7.8417 1.6436-2.731 2.2819-3.0523 2.6991-6.2051s1.337-6.5565 3.9305-8.409c2.7142-1.9428 6.5341-1.5713 9.5498-0.080324 3.0157 1.491 4.8804 0.90867 7.3986 3.0975 4.4174 3.8329 9.3614 7.0146 14.682 9.4481-0.50262-4.3777-1.3118-9.2624-4.8704-11.868-1.0052-0.74802-2.2769-1.3203-2.8096-2.465-0.84943-1.8224 0.60314-4.0463-0.055289-5.949-0.65843-1.9027-3.1615-2.6055-4.2723-4.3325-0.94493-1.4659-0.68859-3.459 0.19602-4.965s2.2819-2.6206 3.6742-3.6748c1.2364-0.93377 2.4896-1.8458 3.7596-2.736 1.1476-0.72736 2.178-1.6245 3.0559-2.6607 0.50262-0.68778 0.83435-2.1939 1.533-2.6808 1.7592-1.2149 4.4633 1.7169 6.0918 2.3545z" fill="#000" fill-rule="nonzero" opacity=".1"/>
<path d="m128.83 126.33c2.8147 1.1095 6.2626-0.22089 7.9213-2.7461 1.6586-2.5252 1.6084-5.9641 0.2111-8.6449-1.3973-2.6808-3.9808-4.6287-6.8306-5.6428-1.729-0.61247-3.654-0.96389-4.981-2.229-0.83938-0.79822-1.337-1.8776-1.9652-2.8515-2.3472-3.6548-6.5341-5.8135-10.791-6.6619s-8.6601-0.54721-12.993-0.24599c-1.6184 0.11547-3.5183 0.40664-4.2522 1.8525-0.54786 1.0844-0.191 2.3846-0.26136 3.5945-0.22618 3.8505-4.5236 5.9842-8.2782 6.9079-3.7546 0.92373-8.1073 1.7922-9.9368 5.1859-1.6385 3.0473-0.46744 6.7422 0.04021 10.166 0.8681 5.9806-0.42943 12.074-3.6591 17.184-1.6436 2.5754-3.7596 4.8646-5.0614 7.6308-1.44 3.0912-1.7736 6.5825-0.94493 9.8899 0.24628 0.96891 0.59309 1.9529 0.4222 2.9369-0.19698 0.80871-0.58668 1.5579-1.1359 2.1838-4.4546 5.6931-11.115 9.2354-18.331 9.7494 0.57299 2.1537 2.6589 3.5142 4.6442 4.5182 3.3878 1.7404 6.958 3.1008 10.645 4.0564 2.4779 0.6426 5.0714 1.0994 7.5946 0.66268 2.5232-0.43676 4.981-1.9177 6.0314-4.2572 0.60314-1.3555 0.69362-2.8867 1.2264-4.2722 1.2013-3.1075 4.403-4.9851 6.1219-7.8417 1.6436-2.731 2.2819-3.0523 2.6991-6.2051s1.337-6.5565 3.9305-8.409c2.7142-1.9428 6.5341-1.5713 9.5498-0.080324 3.0157 1.491 4.8804 0.90867 7.3986 3.0975 4.4174 3.8329 9.3614 7.0146 14.682 9.4481-0.50262-4.3777-1.3118-9.2624-4.8704-11.868-1.0052-0.74802-2.2769-1.3203-2.8096-2.465-0.84943-1.8224 0.60314-4.0463-0.055289-5.949-0.65843-1.9027-3.1615-2.6055-4.2723-4.3325-0.94493-1.4659-0.68859-3.459 0.19602-4.965s2.2819-2.6206 3.6742-3.6748c1.2364-0.93377 2.4896-1.8458 3.7596-2.736 1.1476-0.72736 2.178-1.6245 3.0559-2.6607 0.50262-0.68778 0.83435-2.1939 1.533-2.6808 1.7592-1.2149 4.4633 1.7169 6.0918 2.3545z" fill="#916168" fill-rule="nonzero"/>
<g transform="translate(147 275)" fill="#fff" fill-rule="nonzero" opacity=".1">
<path d="m17.305 4.065c0.037576-1.3309 0.22884-2.653 0.57-3.94l-0.25 0.085c-0.24953 1.2691-0.35686 2.5621-0.32 3.855z"/>
<path d="m19.875 22.625c-4 0.235-16.5-5.5-19-8.5-0.32832-0.40626-0.53001-0.90005-0.58-1.42-0.14821 0.85212 0.061623 1.7276 0.58 2.42 2.5 3 15 8.735 19 8.5 4.25-0.25 18.5 0.5 19-6 0.037319-0.1795 0.012641-0.36635-0.07-0.53-1.145 5.99-14.785 5.285-18.93 5.53z"/>
</g>
<rect x="187" y="148" width="1" height="21" fill="#FFD77C" fill-rule="nonzero" stroke="#FFAB50" stroke-width=".25"/>
<rect x="187" y="148" width="1" height="21" fill="#FFD77C" fill-rule="nonzero" stroke="#FFAB50" stroke-width=".25"/>
<rect x="188" y="148" width="1" height="21" fill="#FFD77C" fill-rule="nonzero" stroke="#FFAB50" stroke-width=".25"/>
<rect x="188" y="148" width="1" height="21" fill="#FFD77C" fill-rule="nonzero" stroke="#FFAB50" stroke-width=".25"/>
<rect x="189" y="148" width="1" height="21" fill="#FFD77C" fill-rule="nonzero" stroke="#FFAB50" stroke-width=".25"/>
<rect x="189" y="148" width="1" height="21" fill="#FFD77C" fill-rule="nonzero" stroke="#FFAB50" stroke-width=".25"/>
<rect x="190" y="148" width="1" height="21" fill="#FFD77C" fill-rule="nonzero" stroke="#FFAB50" stroke-width=".25"/>
</g>
</g>
</g>
</g>
</svg>
