<?xml version="1.0" encoding="UTF-8"?>
<svg width="313px" height="413px" viewBox="0 0 313 413" version="1.1" xmlns="http://www.w3.org/2000/svg" xmlns:xlink="http://www.w3.org/1999/xlink">
    <defs>
        <polygon id="path-1" points="0.614905851 0.0568208576 94.3665078 0.0568208576 94.3665078 94.4589404 0.614905851 94.4589404"></polygon>
        <polygon id="path-3" points="7.65985177e-06 0.662396621 319.424306 0.662396621 319.424306 253.59952 7.65985177e-06 253.59952"></polygon>
    </defs>
    <g id="Page-1" stroke="none" stroke-width="1" fill="none" fill-rule="evenodd">
        <g id="FAQ" transform="translate(-1037.000000, -1170.000000)">
            <g id="footer" transform="translate(0.000000, 1141.000000)">
                <g id="Group-14">
                    <g id="Group-5">
                        <g id="Group-11" transform="translate(1187.770248, 224.602105) rotate(-16.000000) translate(-1187.770248, -224.602105) translate(1002.270248, 44.602105)">
                            <g id="Group-3" transform="translate(164.739845, 0.000000)">
                                <mask id="mask-2" fill="white">
                                    <use xlink:href="#path-1"></use>
                                </mask>
                                <g id="Clip-2"></g>
                                <path d="M35.9999635,36.533727 C35.9999635,36.533727 32.7198423,20.7473037 41.8135898,10.3311433 C53.2028464,-2.71832679 70.17733,-2.57245832 80.7969385,6.46179023 C91.2898718,15.3943147 93.5239625,30.9715319 94.1899673,42.4490773 C95.0901293,58.058923 92.3838853,77.71278 89.788962,88.2287451 C79.3900755,91.2305647 59.8571357,94.7198921 44.2242582,94.4435097 C32.7313582,94.2323843 17.0696909,92.6220731 7.73410877,82.4918917 C-1.72239062,72.2407931 -2.54002178,55.2855027 10.0488111,43.3895451 C20.1022196,33.886982 35.9999635,36.533727 35.9999635,36.533727" id="Fill-1" fill="#D14045" mask="url(#mask-2)"></path>
                            </g>
                            <path d="M321.497726,32.0729051 C321.497726,32.0729051 333.343427,21.1736675 346.88847,23.6745331 C363.853225,26.8020569 372.365231,41.4881548 370.036998,55.2573328 C367.722145,68.8592738 355.524725,78.7550896 346.034019,85.2023635 C333.127425,93.9563544 314.924003,101.683856 304.599874,104.834447 C296.737785,97.410663 283.812075,82.382402 276.099085,68.7766165 C270.4276,58.7750762 263.842408,44.4695865 267.766762,31.242487 C271.735081,17.8577618 285.836377,8.4809574 302.420739,13.2327943 C315.67332,17.029266 321.497726,32.0729051 321.497726,32.0729051" id="Fill-4" fill="#D14045"></path>
                            <path d="M260.77618,96.3301793 C260.472861,96.3301793 260.171462,96.211047 259.941093,95.9766252 C254.897934,90.8039757 251.615177,87.9409564 251.580622,87.9121341 C251.094927,87.4894064 251.043094,86.7534759 251.463517,86.2654176 C251.88586,85.7812023 252.624961,85.7274006 253.110655,86.1482068 C253.245037,86.2673391 256.493238,89.0957716 261.611267,94.3491237 C262.060486,94.8102812 262.050888,95.5481331 261.59015,95.9977616 C261.363621,96.2187329 261.0699,96.3301793 260.77618,96.3301793 M276.262729,113.819576 C275.924854,113.819576 275.58698,113.6697 275.356611,113.38532 C272.941577,110.389718 270.415198,107.403723 267.852344,104.504195 C267.426162,104.021902 267.470316,103.28405 267.952171,102.855557 C268.430186,102.430908 269.169287,102.47126 269.599308,102.957396 C272.185199,105.883825 274.734615,108.89672 277.170766,111.917302 C277.575831,112.420732 277.497122,113.154741 276.99607,113.560175 C276.781059,113.735031 276.521894,113.819576 276.262729,113.819576 M290.077183,132.644408 C289.697075,132.644408 289.328484,132.461867 289.103875,132.123685 C286.980641,128.926326 284.742224,125.71936 282.450053,122.595018 C282.069944,122.074295 282.17937,121.34605 282.699619,120.963674 C283.217949,120.581298 283.945531,120.696587 284.329479,121.213468 C286.644687,124.368553 288.902302,127.60242 291.046652,130.832444 C291.401804,131.368539 291.255904,132.092941 290.720296,132.450338 C290.520643,132.580999 290.297953,132.644408 290.077183,132.644408 M301.962298,152.73358 C301.539955,152.73358 301.13297,152.503002 300.927558,152.103332 C299.178674,148.748411 297.280051,145.335846 295.279681,141.959789 C294.951405,141.4064 295.131861,140.689684 295.688586,140.36111 C296.24531,140.032535 296.959454,140.21892 297.28581,140.770387 C299.305377,144.181031 301.227038,147.632026 302.993199,151.027298 C303.290759,151.59798 303.069989,152.303167 302.497906,152.599076 C302.328969,152.689386 302.142754,152.73358 301.962298,152.73358 M311.493811,174.029448 C311.021555,174.029448 310.576175,173.739303 310.403399,173.270459 C309.076858,169.725311 307.592898,166.116754 305.989914,162.546627 C305.72499,161.958651 305.987995,161.266915 306.573516,161.003671 C307.159037,160.742348 307.852063,161.001749 308.115068,161.589725 C309.739168,165.20789 311.242325,168.860641 312.584224,172.451905 C312.810753,173.057174 312.505515,173.727774 311.902716,173.952588 C311.768334,174.004468 311.630113,174.029448 311.493811,174.029448 M318.122676,196.385977 C317.587068,196.385977 317.105214,196.013208 316.98427,195.469427 C316.177979,191.764795 315.20659,187.992911 314.09314,184.255615 C313.910765,183.636895 314.260158,182.989353 314.880234,182.80489 C315.498391,182.605055 316.145343,182.975903 316.327719,183.590779 C317.456526,187.383799 318.443273,191.211406 319.264922,194.96984 C319.401223,195.600088 319.001917,196.220729 318.374162,196.360998 C318.289694,196.37637 318.205225,196.385977 318.122676,196.385977 M321.242255,219.480359 C320.624098,219.480359 320.109608,218.996144 320.078892,218.373581 C319.884998,214.565189 319.524087,210.693388 319.001917,206.860016 C318.913609,206.222082 319.362829,205.634106 320.000183,205.547639 C320.652894,205.457329 321.224977,205.905036 321.311366,206.544892 C321.843134,210.441673 322.209804,214.380726 322.407538,218.254449 C322.438253,218.896226 321.94488,219.445772 321.299847,219.478437 C321.282569,219.480359 321.261452,219.480359 321.242255,219.480359 M320.209434,242.745753 C320.148003,242.745753 320.086571,242.739989 320.023219,242.730381 C319.387785,242.630464 318.955844,242.03288 319.05567,241.394946 C319.610475,237.899757 319.971386,234.316179 320.126885,230.746051 L320.159521,229.937104 C320.180638,229.293405 320.704727,228.814955 321.365118,228.80919 C322.008231,228.832248 322.511204,229.372187 322.490086,230.015885 L322.455531,230.853655 C322.296193,234.504485 321.927602,238.176451 321.359359,241.763872 C321.269131,242.336476 320.771918,242.745753 320.209434,242.745753 M192.410372,243.81218 C192.239515,243.81218 192.068658,243.77375 191.90548,243.69689 C188.509458,242.067467 184.884988,240.962611 181.131895,240.414986 C180.494541,240.322755 180.051081,239.730936 180.145148,239.094923 C180.239215,238.455067 180.836255,238.011203 181.465929,238.107278 C185.455151,238.687567 189.306151,239.859676 192.913344,241.592859 C193.495025,241.871475 193.738832,242.567055 193.46239,243.149266 C193.260817,243.568151 192.842313,243.81218 192.410372,243.81218 M158.811069,244.542346 C158.417522,244.542346 158.033574,244.342511 157.814723,243.985114 C157.476849,243.435568 157.649626,242.716931 158.198671,242.38067 C161.519823,240.345813 165.31899,238.950811 169.492506,238.232174 C170.102984,238.128414 170.730739,238.54922 170.838245,239.185233 C170.94767,239.819325 170.521487,240.422672 169.886053,240.532197 C166.006257,241.200876 162.483533,242.490195 159.417707,244.369412 C159.227652,244.484701 159.016481,244.542346 158.811069,244.542346 M10.7414631,258.870892 C10.2711267,258.870892 9.82766654,258.582669 9.65105039,258.115747 C9.0962453,256.655415 8.56447711,255.168182 8.04998659,253.661735 C7.84265458,253.052622 8.16709077,252.387787 8.7756486,252.178345 C9.38420642,251.974667 10.046517,252.297477 10.2576885,252.906589 C10.7625803,254.391901 11.2866695,255.852232 11.8299562,257.291428 C12.0584053,257.892854 11.757006,258.567297 11.1542074,258.795954 C11.0179058,258.845913 10.8777647,258.870892 10.7414631,258.870892 M209.079481,259.581843 C208.670576,259.581843 208.27319,259.366637 208.060098,258.982339 C206.190271,255.637026 203.871224,252.639502 201.170149,250.076235 C200.703652,249.632371 200.682535,248.892598 201.127914,248.425676 C201.569455,247.958754 202.308555,247.939539 202.775052,248.383403 C205.646984,251.108075 208.110012,254.291983 210.096943,257.846739 C210.409861,258.407813 210.208288,259.118765 209.645804,259.433889 C209.465349,259.533806 209.271455,259.581843 209.079481,259.581843 M147.645856,263.851393 L147.6209,263.851393 C146.977787,263.836021 146.467136,263.301847 146.480574,262.658148 C146.576561,258.369384 147.645856,254.434173 149.665424,250.965885 C149.98794,250.410574 150.700164,250.216504 151.258808,250.545079 C151.815533,250.867889 152.003668,251.582683 151.679232,252.139915 C149.863157,255.264257 148.899447,258.819012 148.813059,262.710028 C148.797701,263.34412 148.277451,263.851393 147.645856,263.851393 M313.743747,265.096518 C313.590168,265.096518 313.434669,265.065774 313.284929,265.000444 C312.691729,264.746807 312.417207,264.060835 312.672532,263.469017 C314.185288,259.941162 315.490712,256.294175 316.552328,252.629895 C316.730864,252.011175 317.370138,251.648014 317.995973,251.834398 C318.61413,252.011175 318.969282,252.658717 318.790746,253.279358 C317.702253,257.03587 316.366113,260.773167 314.813043,264.38941 C314.624908,264.831353 314.194887,265.096518 313.743747,265.096518 M20.9429656,279.803598 C20.5494187,279.803598 20.1654706,279.605685 19.9466201,279.244445 C17.9289726,275.93564 16.0322687,272.459666 14.3064218,268.914518 C14.0261396,268.338071 14.2661072,267.636727 14.8458689,267.35619 C15.4121924,267.071809 16.1205768,267.313917 16.4027787,267.894207 C18.09599,271.372103 19.9581386,274.782746 21.9373913,278.030064 C22.2733459,278.57961 22.0986495,279.298247 21.5496037,279.632586 C21.3595493,279.749797 21.1502976,279.803598 20.9429656,279.803598 M214.984603,281.926844 C214.364527,281.926844 213.850037,281.436864 213.82124,280.81238 C213.642705,276.834897 213.101338,273.038034 212.204819,269.52363 C212.0474,268.899146 212.423669,268.263133 213.047585,268.103649 C213.681099,267.934558 214.305015,268.322699 214.466273,268.945262 C215.399267,272.615306 215.965591,276.573575 216.149886,280.706698 C216.180602,281.350397 215.681469,281.8961 215.038356,281.924923 C215.019159,281.926844 215.001881,281.926844 214.984603,281.926844 M302.041008,285.226042 C301.795281,285.226042 301.549554,285.149182 301.340302,284.99162 C300.823892,284.601557 300.724066,283.871391 301.109933,283.356432 C303.4309,280.274363 305.57525,277.048182 307.489232,273.758593 C307.811748,273.203282 308.522053,273.00729 309.082617,273.337786 C309.639342,273.660597 309.827476,274.375391 309.50304,274.932623 C307.542985,278.300994 305.346801,281.607877 302.972082,284.75912 C302.741713,285.064636 302.39424,285.226042 302.041008,285.226042 M154.518528,285.835154 C154.121142,285.835154 153.733354,285.633397 153.516424,285.266393 C151.327919,281.598269 149.627029,277.978183 148.454067,274.507973 C148.248655,273.89694 148.576931,273.234026 149.185488,273.028427 C149.794046,272.820906 150.456357,273.147559 150.663689,273.760514 C151.782898,277.075083 153.414677,280.543372 155.518713,284.069305 C155.848909,284.622694 155.668453,285.339409 155.115568,285.669906 C154.927433,285.783273 154.722021,285.835154 154.518528,285.835154 M34.9455548,298.403616 C34.6307173,298.403616 34.3177995,298.276798 34.0893504,298.027004 C31.4401081,295.152456 28.9060503,292.108817 26.5543679,288.984475 C26.1685,288.469516 26.272166,287.737428 26.7847368,287.349287 C27.2992273,286.966911 28.0306485,287.064907 28.4184361,287.579866 C30.7221251,290.64272 33.2062696,293.626793 35.8036789,296.445618 C36.23946,296.920226 36.2087442,297.658078 35.7345682,298.094256 C35.5118783,298.299856 35.2296764,298.403616 34.9455548,298.403616 M285.995814,302.09864 C285.663699,302.09864 285.331584,301.95645 285.101215,301.679756 C284.688471,301.185933 284.753742,300.448081 285.247115,300.036882 C288.193918,297.565847 291.023615,294.914191 293.65558,292.147246 C294.09712,291.682246 294.834301,291.663031 295.302718,292.108817 C295.771134,292.550759 295.786492,293.290533 295.343032,293.757455 C292.651556,296.585887 289.758506,299.300952 286.742594,301.825789 C286.525663,302.00833 286.258819,302.09864 285.995814,302.09864 M169.050966,303.997072 C168.759165,303.997072 168.469284,303.89139 168.244675,303.67234 C165.745172,301.278164 163.335898,298.668782 161.080202,295.917209 L160.291189,294.943014 C159.889963,294.441505 159.970592,293.707496 160.475484,293.303983 C160.972697,292.906235 161.709877,292.981173 162.113023,293.486525 L162.884759,294.439583 C165.079022,297.116218 167.424945,299.656427 169.857257,301.987194 C170.321834,302.432979 170.339112,303.170831 169.891812,303.637753 C169.663363,303.87794 169.358124,303.997072 169.050966,303.997072 M210.298516,304.458229 C210.116141,304.458229 209.933765,304.415957 209.760989,304.325647 C209.188906,304.027816 208.970055,303.322629 209.267615,302.751947 C211.033777,299.370125 212.310404,295.794233 213.061023,292.120346 C213.189646,291.488176 213.796284,291.076977 214.435557,291.211481 C215.065232,291.340221 215.472217,291.957019 215.343595,292.589189 C214.550742,296.474441 213.201164,300.259775 211.333256,303.831824 C211.125924,304.231494 210.720859,304.458229 210.298516,304.458229 M52.317289,313.904271 C52.0773214,313.904271 51.8373538,313.831255 51.6300218,313.679457 C48.4605298,311.362141 45.3831853,308.873812 42.4766978,306.283644 C41.9967626,305.855152 41.9545283,305.1173 42.3826305,304.635006 C42.8145722,304.154634 43.5498329,304.114283 44.0297681,304.540853 C46.8767436,307.082984 49.8964959,309.521354 53.0045562,311.796397 C53.5248059,312.176852 53.6399904,312.907018 53.257962,313.425821 C53.0295128,313.739023 52.6762805,313.904271 52.317289,313.904271 M266.585315,314.966855 C266.161053,314.966855 265.754068,314.734355 265.544816,314.330842 C265.253015,313.758238 265.479545,313.054973 266.053547,312.760985 C269.466846,311.01243 272.814874,309.052511 276.005483,306.935029 C276.54685,306.583397 277.266753,306.72943 277.619985,307.261682 C277.977057,307.801621 277.831157,308.526022 277.293629,308.879577 C274.03007,311.045095 270.607172,313.049209 267.115164,314.840037 C266.946227,314.926504 266.763851,314.966855 266.585315,314.966855 M187.985369,317.459027 C187.806833,317.459027 187.628297,317.420597 187.46128,317.33413 C183.967352,315.574046 180.561732,313.516131 177.338487,311.221872 C176.814398,310.849103 176.689614,310.120859 177.063964,309.594371 C177.436394,309.069804 178.163975,308.941064 178.688065,309.319598 C181.817242,311.546604 185.123036,313.54111 188.509458,315.251235 C189.085381,315.539459 189.315749,316.240803 189.025869,316.817249 C188.822376,317.224605 188.411552,317.459027 187.985369,317.459027 M195.005861,321.793907 C194.650709,321.793907 194.299397,321.63058 194.070947,321.323142 C193.686999,320.80434 193.794505,320.072252 194.310915,319.689876 C197.486166,317.332209 200.333142,314.759334 202.769293,312.040427 C203.201234,311.561976 203.938415,311.521624 204.41835,311.952038 C204.896366,312.382452 204.93476,313.120304 204.504738,313.598755 C201.963002,316.434873 199.000842,319.113429 195.702727,321.563328 C195.491556,321.718969 195.247748,321.793907 195.005861,321.793907 M244.77898,323.112049 C244.252971,323.112049 243.776875,322.754652 243.646333,322.222399 C243.494673,321.594072 243.876702,320.963824 244.502537,320.812026 C248.196119,319.912769 251.899299,318.771404 255.512251,317.420597 C256.11313,317.193861 256.788878,317.499378 257.011568,318.102726 C257.238098,318.706074 256.932859,319.378595 256.33006,319.603409 C252.63072,320.990724 248.837312,322.15899 245.055423,323.079383 C244.963275,323.102441 244.869208,323.112049 244.77898,323.112049 M210.071987,324.631947 C210.008635,324.631947 209.943364,324.628104 209.880013,324.618497 C205.97718,323.972876 202.112741,323.033268 198.394204,321.828494 C197.783726,321.63058 197.447771,320.97151 197.643585,320.358554 C197.845158,319.745599 198.49595,319.417025 199.114106,319.607252 C202.721299,320.779361 206.472473,321.688225 210.260121,322.312709 C210.895555,322.418391 211.323658,323.019817 211.221911,323.65583 C211.125924,324.226513 210.632551,324.631947 210.071987,324.631947 M223.466018,325.71951 C222.85746,325.71951 222.250822,325.713745 221.640345,325.700295 C220.997231,325.684923 220.4885,325.152671 220.501938,324.50705 C220.515376,323.872959 221.035626,323.365685 221.667221,323.365685 L221.694097,323.365685 C225.489425,323.444466 229.336585,323.265768 233.172227,322.831511 C233.809581,322.750809 234.391263,323.217731 234.462293,323.859508 C234.535243,324.499364 234.074506,325.077732 233.435232,325.150749 C230.108321,325.527361 226.754534,325.71951 223.466018,325.71951 M72.3056299,325.840564 C72.1347729,325.840564 71.963916,325.804055 71.8026578,325.727196 C68.2607361,324.026678 64.7744868,322.157069 61.4437366,320.170248 C60.8908513,319.839752 60.7084759,319.124958 61.0386713,318.571569 C61.3650272,318.014337 62.0830103,317.829874 62.6358956,318.166135 C65.9071339,320.118368 69.3300317,321.953391 72.8105217,323.621243 C73.3902834,323.901781 73.6360102,324.59736 73.3576478,325.179571 C73.1579948,325.596535 72.7394913,325.840564 72.3056299,325.840564 M174.43008,332.604207 C173.953984,332.604207 173.506684,332.310219 173.333908,331.833689 C173.115057,331.22842 173.427975,330.559742 174.032693,330.338771 C177.737793,328.993728 181.285474,327.445007 184.57591,325.738725 C185.147992,325.43513 185.848698,325.663787 186.146257,326.236391 C186.441898,326.808994 186.219208,327.51226 185.647125,327.81009 C182.268381,329.562489 178.628553,331.151561 174.829386,332.535033 C174.696924,332.581149 174.564461,332.604207 174.43008,332.604207 M94.0870086,334.058774 C93.9814229,334.058774 93.8758372,334.043402 93.7702514,334.012658 C89.9902818,332.94431 86.2352689,331.708793 82.6107983,330.340692 C82.0079997,330.113956 81.7046807,329.439514 81.9312101,328.838087 C82.1577395,328.23474 82.8392475,327.931144 83.4324474,328.155959 C86.997406,329.501001 90.6871477,330.715382 94.4037659,331.768359 C95.0238421,331.943214 95.3847534,332.588835 95.2081372,333.207554 C95.0641567,333.722513 94.5976597,334.058774 94.0870086,334.058774 M151.819373,338.151547 C151.24921,338.151547 150.751997,337.73074 150.667528,337.148529 C150.577301,336.510595 151.018841,335.918776 151.656195,335.828466 C155.532151,335.275077 159.344757,334.546832 162.994184,333.659104 C163.608501,333.503464 164.251614,333.891605 164.403274,334.516089 C164.554933,335.142494 164.172905,335.772743 163.547069,335.92454 C159.822772,336.831483 155.935297,337.577021 151.98639,338.140018 C151.930718,338.147704 151.873126,338.151547 151.819373,338.151547 M116.939603,338.555059 C116.895449,338.555059 116.851295,338.553138 116.807141,338.547373 C112.929264,338.105431 109.022592,337.502083 105.192709,336.748859 C104.561114,336.625884 104.15029,336.011007 104.275073,335.378837 C104.397936,334.748589 105.000735,334.335469 105.641928,334.460365 C109.410379,335.198217 113.25562,335.793879 117.070145,336.228136 C117.709419,336.301152 118.170157,336.877599 118.097206,337.517455 C118.030016,338.115038 117.525124,338.555059 116.939603,338.555059 M132.975197,339.463924 C131.496997,339.463924 130.016877,339.440866 128.525238,339.39475 C127.882125,339.373614 127.379153,338.835597 127.396431,338.189976 C127.417548,337.559728 127.935878,337.060141 128.563633,337.060141 L128.58859,337.060141 C132.491423,337.186959 136.371219,337.140843 140.158867,336.941008 C140.784703,336.841091 141.351026,337.400244 141.385582,338.043943 C141.418217,338.687642 140.924844,339.237188 140.281731,339.271775 C137.878215,339.396672 135.420947,339.462002 132.975197,339.463924" id="Fill-6" fill="#D14045"></path>
                            <g id="Group-10" transform="translate(0.000000, 105.832870)">
                                <mask id="mask-4" fill="white">
                                    <use xlink:href="#path-3"></use>
                                </mask>
                                <g id="Clip-9"></g>
                                <path d="M300.229967,14.2325046 C300.149153,14.2325046 300.066415,14.2248197 299.985601,14.2056076 C299.354483,14.0730443 298.950414,13.4544151 299.085104,12.8242587 C299.920181,8.90115102 300.980382,5.07218251 302.234921,1.44878332 C302.442729,0.837839019 303.112329,0.516997203 303.720358,0.726408927 C304.332234,0.93774186 304.65549,1.60247999 304.443835,2.20958188 C303.220081,5.74460548 302.186818,9.47751356 301.370982,13.3084033 C301.25361,13.8578689 300.768726,14.2325046 300.229967,14.2325046 M297.71704,37.3984364 L297.695874,37.3984364 C297.051287,37.384988 296.537542,36.8528132 296.549087,36.2072872 C296.626052,32.1535373 296.864646,28.2035326 297.259094,24.4648609 C297.324515,23.8231773 297.901757,23.3544024 298.542496,23.4274084 C299.183235,23.4927294 299.648877,24.0671708 299.581532,24.7088544 C299.196704,28.3802838 298.961959,32.2649674 298.886917,36.2533962 C298.873448,36.8893162 298.352006,37.3984364 297.71704,37.3984364 M298.806103,60.6950105 C298.213468,60.6950105 297.705495,60.2473689 297.643923,59.6479519 C297.228308,55.6153353 296.926218,51.6807003 296.743425,47.9535558 C296.710714,47.309951 297.207143,46.7624066 297.85173,46.729746 C298.486696,46.6452129 299.044697,47.1908361 299.075483,47.8363621 C299.258276,51.5250824 299.558442,55.4174508 299.970208,59.4078008 C300.035629,60.0494844 299.568063,60.6220046 298.927324,60.6892469 C298.886917,60.6930893 298.84651,60.6950105 298.806103,60.6950105 M302.098307,83.7956213 C301.542231,83.7956213 301.047727,83.3960099 300.947672,82.8292534 C300.229967,78.7274733 299.623863,74.9484562 299.090876,71.2731844 C299.000441,70.6353432 299.442994,70.043611 300.081808,69.951393 C300.722547,69.8630174 301.313258,70.3029741 301.405617,70.9408153 C301.932831,74.5911114 302.535087,78.3489952 303.250868,82.4277208 C303.362468,83.0617196 302.937233,83.6669003 302.300342,83.7783304 C302.232997,83.7898576 302.165652,83.7956213 302.098307,83.7956213 M306.564237,106.715638 C306.023554,106.715638 305.536746,106.335239 305.421298,105.785774 C304.628552,101.977938 303.845427,98.1585759 303.096936,94.3315286 C302.973791,93.699451 303.387481,93.0885067 304.020524,92.9636281 C304.645869,92.842592 305.265442,93.2518094 305.390512,93.8858082 C306.137078,97.6994071 306.918279,101.513006 307.711025,105.309314 C307.841866,105.93947 307.435873,106.560021 306.804755,106.690663 C306.723941,106.707954 306.643127,106.715638 306.564237,106.715638 M311.353422,129.551122 C310.810815,129.551122 310.324007,129.170723 310.210483,128.619336 C309.436979,124.844162 308.634612,121.038248 307.826473,117.209279 C307.693708,116.577202 308.097777,115.958572 308.728895,115.82793 C309.338848,115.676155 309.979586,116.096899 310.112352,116.728977 C310.924339,120.561788 311.726706,124.371544 312.50021,128.150561 C312.629128,128.782639 312.22121,129.397426 311.590092,129.528068 C311.511202,129.545359 311.432312,129.551122 311.353422,129.551122 M315.619242,152.501879 C315.055469,152.501879 314.557116,152.092662 314.466682,151.516299 C313.89906,147.939009 313.244852,144.18881 312.465576,140.052448 C312.346279,139.418449 312.763817,138.809426 313.398784,138.690311 C314.026053,138.582724 314.643702,138.988099 314.762999,139.622097 C315.546124,143.779592 316.20418,147.552846 316.77565,151.153191 C316.875705,151.789111 316.44085,152.386606 315.803959,152.486509 C315.742387,152.496115 315.680814,152.501879 315.619242,152.501879 M318.186045,175.688944 C317.568396,175.688944 317.050802,175.202878 317.02194,174.580407 C316.842995,170.981983 316.517815,167.093457 316.054097,163.026259 C315.98098,162.386497 316.44085,161.808213 317.083512,161.735207 C317.730024,161.656437 318.303417,162.123291 318.376535,162.764975 C318.844101,166.880203 319.175053,170.816759 319.353998,174.463213 C319.386708,175.106818 318.89028,175.654362 318.245693,175.687023 C318.226452,175.688944 318.20721,175.688944 318.186045,175.688944 M84.6819937,198.261223 C84.6011798,198.261223 84.5184417,198.253538 84.4357037,198.234326 C80.6855542,197.437024 76.8565149,196.958643 73.0563377,196.816474 C72.4098266,196.793419 71.907626,196.251639 71.9326398,195.608034 C71.9538053,194.977877 72.4733232,194.484127 73.0986688,194.484127 C73.0986688,194.484127 73.1275309,194.484127 73.142924,194.486048 C77.077791,194.63206 81.0415202,195.12581 84.9244354,195.953851 C85.5555534,196.086415 85.9576987,196.708886 85.8210848,197.339043 C85.7056363,197.886587 85.220753,198.261223 84.6819937,198.261223 M317.027712,198.945173 C316.960367,198.945173 316.891098,198.939409 316.823753,198.925961 C316.186863,198.812609 315.763552,198.20935 315.877076,197.575351 C316.504346,194.034564 316.912264,190.184462 317.089285,186.132633 C317.114299,185.489029 317.687692,184.964539 318.307266,185.018333 C318.949929,185.045229 319.450205,185.588931 319.423267,186.232536 C319.242398,190.38811 318.822935,194.341957 318.176424,197.980726 C318.076369,198.547483 317.585713,198.945173 317.027712,198.945173 M50.0532399,199.924989 C49.5568117,199.924989 49.0930939,199.604147 48.9372386,199.106554 C48.7467487,198.489846 49.0892456,197.836636 49.7068947,197.644515 C53.5012994,196.462971 57.3976836,195.594585 61.2844471,195.068174 C61.9232617,194.96635 62.5139728,195.42744 62.6005591,196.067203 C62.6871454,196.706965 62.2388207,197.292934 61.6000061,197.379388 C57.8402359,197.890429 54.0727691,198.728076 50.4015094,199.873117 C50.2879851,199.90962 50.1686884,199.924989 50.0532399,199.924989 M106.567166,206.314929 C106.397842,206.314929 106.226593,206.278426 106.063041,206.199656 C101.970395,204.251551 98.4934731,202.729954 95.4340899,201.546489 C94.8337581,201.314023 94.5355164,200.635836 94.7683373,200.036419 C95.0011583,199.435081 95.6803799,199.1469 96.2807117,199.36976 C99.3939707,200.576279 102.922844,202.12093 107.067442,204.094012 C107.652381,204.370666 107.898671,205.066143 107.619671,205.65019 C107.421484,206.069014 107.002022,206.314929 106.567166,206.314929 M29.1936345,210.232273 C28.8241996,210.232273 28.4624612,210.059364 28.2354126,209.73468 C27.8640535,209.206347 27.9929709,208.478209 28.5201854,208.109337 C31.7719826,205.832705 35.2008007,203.796224 38.7027361,202.061373 C39.278054,201.778955 39.9803653,202.0095 40.2689863,202.587784 C40.5556832,203.164147 40.319014,203.863467 39.7398477,204.151648 C36.3418159,205.834626 33.0188255,207.809629 29.8613112,210.019019 C29.6573523,210.161188 29.4245313,210.232273 29.1936345,210.232273 M127.434468,216.854678 C127.255523,216.854678 127.070805,216.812412 126.899557,216.722115 L126.430067,216.480043 C123.007021,214.708688 119.695575,212.99497 116.513047,211.373471 C115.937729,211.081447 115.710681,210.378285 116.00315,209.803843 C116.295619,209.231323 116.996007,209.002699 117.575173,209.294723 C120.761549,210.918144 124.076843,212.635704 127.503737,214.407059 L127.975151,214.651052 C128.546621,214.94884 128.771745,215.652002 128.473504,216.224522 C128.265697,216.626055 127.857779,216.854678 127.434468,216.854678 M308.771226,220.589508 C308.551874,220.589508 308.328674,220.528029 308.130487,220.397387 C307.591728,220.041963 307.443569,219.319589 307.799535,218.78165 C309.8372,215.692347 311.56123,212.276439 312.921597,208.626142 C313.146721,208.022883 313.812474,207.721253 314.42435,207.93835 C315.028531,208.163131 315.338317,208.835554 315.111269,209.438814 C313.689329,213.254334 311.886409,216.829703 309.748689,220.065018 C309.525489,220.405072 309.152206,220.589508 308.771226,220.589508 M12.3016064,226.237861 C12.0495441,226.237861 11.7974817,226.15717 11.5839021,225.990025 C11.075929,225.594256 10.9835703,224.860354 11.3818674,224.353155 C13.7870428,221.273458 16.4673703,218.326324 19.3497325,215.596287 C19.8192228,215.152488 20.5600168,215.1717 21.0025691,215.638553 C21.4470455,216.105407 21.4278041,216.845072 20.9583138,217.28695 C18.1586896,219.938218 15.5572519,222.798897 13.2232697,225.786377 C12.994297,226.084164 12.6498758,226.237861 12.3016064,226.237861 M148.288301,227.425167 C148.115128,227.425167 147.941956,227.386743 147.77648,227.304131 C144.203351,225.559674 140.711036,223.805611 137.30146,222.070759 C136.726142,221.776814 136.497169,221.075573 136.791562,220.501132 C137.084032,219.922848 137.79404,219.701909 138.361661,219.992012 C141.761617,221.719178 145.244311,223.469399 148.802046,225.210014 C149.383137,225.494353 149.623654,226.191752 149.338882,226.771957 C149.136847,227.185016 148.719308,227.425167 148.288301,227.425167 M292.150502,236.785295 C291.782991,236.785295 291.425101,236.614308 291.198052,236.295387 C290.820921,235.770897 290.944066,235.042759 291.469356,234.668123 C294.21318,232.716176 296.926218,230.558658 299.539201,228.253208 C299.843215,227.984239 300.143381,227.713349 300.439698,227.440537 C300.911113,227.00058 301.655755,227.029398 302.090611,227.503937 C302.529315,227.976554 302.500453,228.714298 302.027114,229.150413 C301.717328,229.436673 301.405617,229.721012 301.08621,230.003429 C298.415503,232.360752 295.63512,234.570142 292.825875,236.568199 C292.619992,236.71421 292.383323,236.785295 292.150502,236.785295 M169.534659,237.171458 C169.382652,237.171458 169.22872,237.140719 169.080561,237.07924 C165.65944,235.63257 162.053601,234.037967 158.359252,232.339619 C157.772389,232.070649 157.514554,231.377093 157.785858,230.793046 C158.053313,230.205156 158.746004,229.945793 159.334791,230.220526 C163.007975,231.909268 166.592648,233.494265 169.99068,234.929408 C170.585239,235.181086 170.86424,235.865036 170.612177,236.45869 C170.421687,236.90441 169.99068,237.171458 169.534659,237.171458 M191.41021,245.390388 C191.292838,245.390388 191.169693,245.373097 191.050396,245.334673 C187.45995,244.174263 183.730966,242.863999 179.969272,241.444226 C179.367016,241.215602 179.061077,240.541258 179.29005,239.937998 C179.519023,239.338581 180.198244,239.03503 180.796652,239.259812 C184.521788,240.666136 188.214213,241.962952 191.771949,243.113756 C192.383825,243.31164 192.72055,243.970615 192.522363,244.58348 C192.360735,245.077231 191.90279,245.390388 191.41021,245.390388 M1.16853043,246.629567 C1.04730959,246.629567 0.922240466,246.610355 0.799095484,246.57001 C0.187218855,246.364441 -0.143733284,245.703545 0.0602255927,245.092601 C1.28205471,241.432698 2.89063604,237.77856 4.84171434,234.23393 C5.1495768,233.669095 5.86150872,233.461604 6.43105426,233.77284 C6.99675152,234.085997 7.2007104,234.794923 6.89092381,235.359758 C5.00526627,238.77951 3.45440916,242.303006 2.27683527,245.832266 C2.11328334,246.320253 1.65726208,246.629567 1.16853043,246.629567 M271.604531,247.761159 C271.131193,247.761159 270.686716,247.471057 270.51162,247.004203 C270.284571,246.400944 270.590509,245.728521 271.192765,245.501818 C274.767818,244.160814 278.296691,242.560448 281.681254,240.746827 C282.258496,240.447118 282.960808,240.65653 283.264822,241.223287 C283.568836,241.791964 283.355256,242.498969 282.787635,242.804441 C279.308789,244.664171 275.685633,246.308726 272.016297,247.686232 C271.881608,247.736183 271.741145,247.761159 271.604531,247.761159 M214.032328,251.242389 C213.961135,251.242389 213.888018,251.234704 213.8149,251.223177 C210.083992,250.521936 206.222242,249.651628 202.333555,248.639151 C201.710133,248.475849 201.33685,247.838008 201.498478,247.215536 C201.660106,246.589222 202.302769,246.226114 202.924266,246.37981 C206.761002,247.38076 210.568876,248.23954 214.245908,248.929254 C214.882798,249.048369 215.298412,249.657392 215.179116,250.291391 C215.073288,250.852384 214.582632,251.242389 214.032328,251.242389 M248.913144,253.044482 C248.322433,253.044482 247.816384,252.596841 247.754812,251.999345 C247.685543,251.357661 248.153109,250.78322 248.793848,250.715978 C252.66137,250.312524 256.488485,249.676604 260.169365,248.823587 C260.788938,248.677576 261.421981,249.067581 261.570139,249.699659 C261.71445,250.325972 261.323849,250.952286 260.694656,251.098298 C256.923341,251.970527 253.000018,252.623738 249.038213,253.036798 C248.995882,253.042561 248.955475,253.044482 248.913144,253.044482 M237.25093,253.599712 L237.241309,253.599712 C233.416118,253.570894 229.456237,253.348033 225.469418,252.934974 C224.82868,252.867731 224.361114,252.29329 224.428458,251.653528 C224.495803,251.011844 225.067273,250.554596 225.709936,250.612233 C229.623637,251.019529 233.506553,251.238547 237.258626,251.265443 C237.903213,251.271207 238.422731,251.795697 238.418883,252.441223 C238.41311,253.080985 237.891668,253.599712 237.25093,253.599712" id="Fill-8" fill="#D14045" mask="url(#mask-4)"></path>
                            </g>
                        </g>
                    </g>
                </g>
            </g>
        </g>
    </g>
</svg>