<?xml version="1.0" encoding="UTF-8"?>
<svg width="11px" height="9px" viewBox="0 0 11 9" version="1.1" xmlns="http://www.w3.org/2000/svg" xmlns:xlink="http://www.w3.org/1999/xlink">
    <g id="Symbols" stroke="none" stroke-width="1" fill="none" fill-rule="evenodd">
        <g id="Partner-Row" transform="translate(-199.000000, -58.000000)" fill="#CB3B41" fill-rule="nonzero">
            <g id="Group-8">
                <g id="Group-7" transform="translate(17.000000, 17.000000)">
                    <g id="Group-13" transform="translate(182.000000, 6.000000)">
                        <g id="Group-4" transform="translate(0.000000, 30.000000)">
                            <g id="valentines-heart" transform="translate(0.000000, 5.000000)">
                                <path d="M11,2.80566802 C11,1.25611505 9.67002693,0 8.02944477,0 C6.95817494,0 6.02261938,0.537365047 5.49996651,1.34043944 C4.97738062,0.537365047 4.0414232,0 2.9701757,0 C1.32959354,0 0,1.25611505 0,2.80566802 C0,3.64931258 0.395801664,4.4040781 1.01960955,4.91805837 L5.22889517,8.89395665 C5.30078199,8.96185476 5.39827569,9 5.49996651,9 C5.60165733,9 5.69915104,8.96185476 5.77103785,8.89395665 L9.98032347,4.91805837 C10.6041537,4.4040781 11,3.64931258 11,2.80566802 Z" id="Shape"></path>
                            </g>
                        </g>
                    </g>
                </g>
            </g>
        </g>
    </g>
</svg>