<?xml version="1.0" encoding="UTF-8"?>
<svg width="20px" height="19px" viewBox="0 0 20 19" version="1.1" xmlns="http://www.w3.org/2000/svg" xmlns:xlink="http://www.w3.org/1999/xlink">
    <g id="Symbols" stroke="none" stroke-width="1" fill="none" fill-rule="evenodd">
        <g id="Partner-Row" transform="translate(-236.000000, -24.000000)" fill="#000000" fill-rule="nonzero">
            <g id="Group-8">
                <g id="Group-7" transform="translate(17.000000, 17.000000)">
                    <g id="Group-13" transform="translate(182.000000, 6.000000)">
                        <g id="Group-5">
                            <g id="couple" transform="translate(37.000000, 1.000000)">
                                <path d="M18.5036545,1.58364089 C17.537308,0.562384378 16.252203,0 14.8854628,0 C13.5187227,0 12.2337703,0.562384378 11.2672712,1.58364089 L10.0000191,2.92268969 L8.73276701,1.58364089 C6.73781769,-0.524494365 3.49148555,-0.524494365 1.49638369,1.58364089 C-0.498565624,3.69177611 -0.498565624,7.12186938 1.4950104,9.22839227 L4.30066532,12.2142857 C4.90369726,11.1046729 6.03895983,10.3552571 7.33734012,10.3552571 C8.40149616,10.3552571 9.35639849,10.858791 9.99818803,11.6512564 C10.6399776,10.858791 11.5947273,10.3552571 12.6588834,10.3552571 C13.9529911,10.3552571 15.0852019,11.0996747 15.6897598,12.203483 L18.5038071,9.23000463 C20.4987564,7.12186938 20.4987564,3.69177611 18.5036545,1.58364089 Z" id="Shape"></path>
                                <path d="M5.55363995,15.3890168 C4.62685292,15.9051965 4,16.8796297 4,17.995239 L4,19 L16,19 L16,17.995239 C16,16.8785683 15.3719064,15.9033768 14.4435685,15.3876521 C14.8291094,14.9782264 15.0649935,14.4330836 15.0649935,13.8353221 C15.0649935,12.5673155 14.0049886,11.5357143 12.7022759,11.5357143 C11.3994081,11.5357143 10.3394032,12.5673155 10.3394032,13.8353221 C10.3394032,14.4330836 10.5751321,14.9782264 10.9608282,15.3876521 C10.5835067,15.5972174 10.2559676,15.882299 9.99992246,16.2224256 C9.74341211,15.8815408 9.41478735,15.5958526 9.03653541,15.3861357 C9.42114582,14.9770133 9.65640952,14.4323254 9.65640952,13.8353221 C9.65640952,12.5673155 8.59655971,11.5357143 7.29369195,11.5357143 C5.99082414,11.5357143 4.93081922,12.5673155 4.93081922,13.8353221 C4.93097433,14.4338418 5.16732363,14.9794395 5.55363995,15.3890168 Z" id="Shape"></path>
                            </g>
                        </g>
                    </g>
                </g>
            </g>
        </g>
    </g>
</svg>