<?xml version="1.0" encoding="UTF-8"?>
<svg width="13px" height="19px" viewBox="0 0 13 19" version="1.1" xmlns="http://www.w3.org/2000/svg" xmlns:xlink="http://www.w3.org/1999/xlink">
    <g id="Symbols" stroke="none" stroke-width="1" fill="none" fill-rule="evenodd">
        <g id="Partner-Row" transform="translate(-277.000000, -23.000000)" fill="#000000" fill-rule="nonzero">
            <g id="Group-8">
                <g id="Group-7" transform="translate(17.000000, 17.000000)">
                    <g id="Group-13" transform="translate(182.000000, 6.000000)">
                        <g id="Group-5">
                            <g id="app" transform="translate(78.000000, 0.000000)">
                                <path d="M3.16448371,8.14285714 L5.73025314,8.14285714 C5.96662464,8.14285714 6.15789474,7.95316345 6.15789474,7.71874006 L6.15789474,5.17411708 C6.15789474,4.93969369 5.96662464,4.75 5.73025314,4.75 L3.16448371,4.75 C2.9281122,4.75 2.73684211,4.93969369 2.73684211,5.17411708 L2.73684211,7.71874006 C2.73684211,7.95320321 2.9281122,8.14285714 3.16448371,8.14285714 Z" id="Shape"></path>
                                <path d="M6.84210526,7.71874006 C6.84210526,7.95316345 7.03337536,8.14285714 7.26974686,8.14285714 L9.83551629,8.14285714 C10.0718878,8.14285714 10.2631579,7.95316345 10.2631579,7.71874006 L10.2631579,5.17411708 C10.2631579,4.93969369 10.0718878,4.75 9.83551629,4.75 L7.26974686,4.75 C7.03337536,4.75 6.84210526,4.93969369 6.84210526,5.17411708 L6.84210526,7.71874006 Z" id="Shape"></path>
                                <path d="M3.16448371,12.8928571 L5.73025314,12.8928571 C5.96662464,12.8928571 6.15789474,12.7031635 6.15789474,12.4687401 L6.15789474,9.92411708 C6.15789474,9.68969369 5.96662464,9.5 5.73025314,9.5 L3.16448371,9.5 C2.9281122,9.5 2.73684211,9.68969369 2.73684211,9.92411708 L2.73684211,12.4687401 C2.73684211,12.7032032 2.9281122,12.8928571 3.16448371,12.8928571 Z" id="Shape"></path>
                                <path d="M9.83551629,9.5 L7.26974686,9.5 C7.03337536,9.5 6.84210526,9.68969369 6.84210526,9.92411708 L6.84210526,12.4687401 C6.84210526,12.7031635 7.03337536,12.8928571 7.26974686,12.8928571 L9.83551629,12.8928571 C10.0718878,12.8928571 10.2631579,12.7031635 10.2631579,12.4687401 L10.2631579,9.92411708 C10.2631579,9.68969369 10.0718878,9.5 9.83551629,9.5 Z" id="Shape"></path>
                                <path d="M6.67106466,3.39285714 L7.69735639,3.39285714 C7.9810022,3.39285714 8.21052632,3.24110575 8.21052632,3.05357143 C8.21052632,2.86603711 7.9810022,2.71428571 7.69735639,2.71428571 L6.67106466,2.71428571 C6.38741885,2.71428571 6.15789474,2.86603711 6.15789474,3.05357143 C6.15794285,3.24113755 6.38746696,3.39285714 6.67106466,3.39285714 Z" id="Shape"></path>
                                <path d="M11.3749905,0 L1.62500952,0 C0.728811077,0 0,0.710087891 0,1.5833457 L0,17.4166914 C0,18.2899121 0.728811077,19 1.62500952,19 L11.3749905,19 C12.2711889,19 13,18.2899121 13,17.4166543 L13,1.5833457 C13,0.710087891 12.2711889,0 11.3749905,0 Z M7.71874762,17.4166543 L5.28125238,17.4166543 C5.05669813,17.4166543 4.87499048,17.2396055 4.87499048,17.0208086 C4.87499048,16.8020117 5.05669813,16.625 5.28125238,16.625 L7.71874762,16.625 C7.94330187,16.625 8.12500952,16.8020488 8.12500952,17.0208457 C8.12500952,17.2396426 7.94330187,17.4166543 7.71874762,17.4166543 Z M11.3749905,15.0416543 L1.62500952,15.0416543 L1.62500952,1.5833457 L11.3749905,1.5833457 L11.3749905,15.0416543 Z" id="Shape"></path>
                                <ellipse id="Oval" cx="9.92105263" cy="3.05357143" rx="1" ry="1"></ellipse>
                            </g>
                        </g>
                    </g>
                </g>
            </g>
        </g>
    </g>
</svg>