<svg xmlns="http://www.w3.org/2000/svg" viewBox="0 0 92px 184px">
    <defs>
        <linearGradient id="a" x1="10.856%" x2="89.147%" y1="101.73%" y2="-1.736%">
            <stop offset="0" stop-color="gray" stop-opacity=".25"/>
            <stop offset=".54" stop-color="gray" stop-opacity=".12"/>
            <stop offset="1" stop-color="gray" stop-opacity=".1"/>
        </linearGradient>
        <linearGradient id="b" x1="49.997%" x2="49.997%" y1="100.03%" y2=".023%">
            <stop offset="0" stop-color="gray" stop-opacity=".25"/>
            <stop offset=".54" stop-color="gray" stop-opacity=".12"/>
            <stop offset="1" stop-color="gray" stop-opacity=".1"/>
        </linearGradient>
        <linearGradient id="c" x1="49.997%" x2="49.997%" y1="99.985%" y2=".023%">
            <stop offset="0" stop-color="gray" stop-opacity=".25"/>
            <stop offset=".54" stop-color="gray" stop-opacity=".12"/>
            <stop offset="1" stop-color="gray" stop-opacity=".1"/>
        </linearGradient>
        <linearGradient id="d" x1="50%" x2="50%" y1="100%">
            <stop offset="0" stop-color="gray" stop-opacity=".25"/>
            <stop offset=".54" stop-color="gray" stop-opacity=".12"/>
            <stop offset="1" stop-color="gray" stop-opacity=".1"/>
        </linearGradient>
    </defs>
    <g fill="none">
        <path fill="url(#a)" d="M96.723.275L3.954.5A3.82 3.82 0 0 0 1.26 1.617 3.783 3.783 0 0 0 .151 4.303l.421 172.64a3.783 3.783 0 0 0 1.124 2.68 3.82 3.82 0 0 0 2.699 1.104l92.769-.225a3.821 3.821 0 0 0 2.694-1.119 3.783 3.783 0 0 0 1.109-2.687l-.422-172.64a3.783 3.783 0 0 0-1.124-2.678A3.82 3.82 0 0 0 96.723.275z" opacity=".5" transform="translate(55 12)"/>
        <rect width="98" height="176" x="57" y="14" fill="#fff" rx="13.64" transform="rotate(-.14 106 102)"/>
        <path fill="#B3B3B3" d="M129.77 19.042a7.897 7.897 0 0 1-7.771 6.727l-33.672.08a7.897 7.897 0 0 1-7.797-6.688l-17.834.045a3.707 3.707 0 0 0-2.616 1.088 3.692 3.692 0 0 0-1.079 2.616l.387 159.4c.003.98.395 1.92 1.092 2.612a3.707 3.707 0 0 0 2.623 1.075l85.204-.206a3.707 3.707 0 0 0 2.616-1.088 3.692 3.692 0 0 0 1.079-2.615l-.387-159.4a3.692 3.692 0 0 0-1.09-2.611A3.707 3.707 0 0 0 147.902 19l-18.132.042z" opacity=".4"/>
        <rect width="22" height="2" x="93" y="21" fill="#DBDBDB" rx="1" transform="rotate(-.86 104 22)"/>
        <circle cx="120" cy="22" r="1" fill="#DBDBDB" transform="rotate(-.86 120 22)"/>
        <path fill="url(#b)" d="M55.738 27.896C55.743 14.7 46.384 3.336 33.38.746 20.376-1.844 7.342 5.061 2.243 17.243c-5.1 12.181-.848 26.251 10.159 33.613l.017.123a9.528 9.528 0 0 0 3.154 1.997l.037-.124c1.303 1.12 6.788 2.893 13.088 2.876h.138c3.99 0 8.324-.7 12.134-2.752 0 0 .034-.073.084-.21a9.91 9.91 0 0 0 2.623-1.787l.045-.313a27.608 27.608 0 0 0 12.016-22.77z" opacity=".5" transform="translate(62 113)"/>
        <circle cx="88.5" cy="140.5" r="26.5" fill="#F5F5F5"/>
        <path fill="#FDA57D" d="M79.042 151s-6.465.52-4.753 12.073A9.31 9.31 0 0 0 77.364 165L81 152.927 79.042 151zm20.916 0s6.465.52 4.753 12.073a9.31 9.31 0 0 1-3.075 1.927L98 152.92l1.958-1.92z"/>
        <circle cx="89.5" cy="130.5" r="11.5" fill="#333"/>
        <path fill="#000" d="M100.32 151H79.393l-1.954 8.41s-1.146 3.893.283 5.606c1.428 1.712 14.759 5.605 24.56.283a11.01 11.01 0 0 0 .282-7.006c-1.13-3.924-.282-.284-.282-.284L100.32 151z" opacity=".1"/>
        <path fill="#000" d="M100.32 151H79.39l-1.954 8.41s-1.146 3.893.283 5.606c1.428 1.712 14.759 5.605 24.56.283a11.01 11.01 0 0 0 .282-7.006c-1.13-3.924-.282-.284-.282-.284l-1.96-7.009z" opacity=".1"/>
        <path fill="#3C67A7" d="M100.32 151H79.39l-1.954 8.41s-1.146 3.893.283 5.606c1.428 1.712 14.759 5.605 24.56.283a11.01 11.01 0 0 0 .282-7.006c-1.13-3.924-.282-.284-.282-.284l-1.96-7.009z"/>
        <path fill="#000" d="M85.005 144H93v7.445c0 .678-.28 1.327-.777 1.807a2.706 2.706 0 0 1-1.877.748h-2.693c-1.466 0-2.653-1.144-2.653-2.555V144h.005z" opacity=".1"/>
        <path fill="#FDA57D" d="M85.005 144H93v7.445c0 .678-.28 1.327-.777 1.807a2.706 2.706 0 0 1-1.877.748h-2.693c-1.466 0-2.653-1.144-2.653-2.555V144h.005z"/>
        <path fill="#000" d="M86 145.14a9.84 9.84 0 0 0 8 .026v-1.163h-8v1.137z" opacity=".1"/>
        <circle cx="89.5" cy="133.5" r="11.5" fill="#FDA57D"/>
        <path fill="#333" d="M79 130h23s-1.964-9.584-10.657-8.972C82.649 121.64 79 130 79 130z"/>
        <ellipse cx="78" cy="133" fill="#FDA57D" rx="1" ry="2"/>
        <ellipse cx="101" cy="133" fill="#FDA57D" rx="1" ry="2"/>
        <path fill="#000" d="M79 130h23s-1.964-9.584-10.657-8.972C82.649 121.64 79 130 79 130z" opacity=".1"/>
        <path fill="url(#c)" d="M.265 27.958C.26 14.762 9.618 3.398 22.623.808 35.627-1.782 48.66 5.123 53.76 17.305c5.1 12.181.847 26.251-10.16 33.613l-.016.123a9.528 9.528 0 0 1-3.155 2.019l-.037-.123c-1.302 1.12-6.787 2.892-13.088 2.875h-.137c-3.99 0-8.324-.7-12.134-2.752 0 0-.034-.073-.085-.21a9.91 9.91 0 0 1-2.623-1.786 63.11 63.11 0 0 0-.045-.314C4.75 45.584.254 37.06.264 27.958z" opacity=".5" transform="translate(94 40)"/>
        <circle cx="122.5" cy="67.5" r="26.5" fill="#F5F5F5"/>
        <path fill="#BE7C5E" d="M112.04 78s-6.465.52-4.753 12.078A9.31 9.31 0 0 0 110.362 92l3.636-12.078L112.04 78zm19.92 0s6.465.52 4.753 12.078A9.31 9.31 0 0 1 133.639 92l-3.636-12.078L131.96 78z"/>
        <path fill="#333" d="M111.72 59.013s-.488 1.377-1.178 2.958c-1.508 3.496.213 16.863 3.82 18.285 4.047 1.613 9.369 2.624 14.899.67 4.803-1.7 6.286-16.942 2.888-20.639a30.2 30.2 0 0 0-1.25-1.288l-19.18.014z"/>
        <circle cx="121.5" cy="57.5" r="11.5" fill="#333"/>
        <path fill="#000" d="M132.32 78h-20.93l-1.954 8.41s-1.146 3.893.283 5.606c1.428 1.712 14.759 5.605 24.56.283a11.01 11.01 0 0 0 .282-7.006c-1.13-3.924-.282-.284-.282-.284L132.319 78z" opacity=".1"/>
        <path fill="#000" d="M132.32 78h-20.93l-1.954 8.41s-1.146 3.893.283 5.606c1.428 1.712 14.759 5.605 24.56.283a11.01 11.01 0 0 0 .282-7.006c-1.13-3.924-.282-.284-.282-.284L132.319 78z" opacity=".1"/>
        <path fill="#B70016" d="M132.32 78h-20.927l-1.954 8.41s-1.146 3.893.283 5.606c1.428 1.712 14.759 5.605 24.56.283a11.01 11.01 0 0 0 .282-7.006c-1.13-3.924-.282-.284-.282-.284L132.32 78z"/>
        <path fill="#000" d="M118.01 71H126v7.445c0 1.411-1.189 2.555-2.654 2.555h-2.694c-1.465 0-2.653-1.144-2.653-2.555V71h.011z" opacity=".1"/>
        <path fill="#BE7C5E" d="M118.01 71H126v7.445c0 1.411-1.189 2.555-2.654 2.555h-2.694c-.703 0-1.378-.27-1.876-.748a2.508 2.508 0 0 1-.777-1.807V71h.011z"/>
        <path fill="#000" d="M118 72.137a9.84 9.84 0 0 0 8 .026V71h-8v1.137z" opacity=".1"/>
        <circle cx="121.5" cy="60.5" r="11.5" fill="#BE7C5E"/>
        <path fill="#333" d="M111 57h23s-1.964-9.584-10.657-8.972S111 57 111 57z"/>
        <ellipse cx="110" cy="60" fill="#BE7C5E" rx="1" ry="2"/>
        <ellipse cx="134" cy="60" fill="#BE7C5E" rx="1" ry="2"/>
        <path fill="#000" d="M111 57h23s-1.964-9.584-10.657-8.972S111 57 111 57z" opacity=".1"/>
        <path fill="url(#d)" d="M0 .03v40.117h62.799S67.435 49.33 75.406 52c0 0-2.544-6.504.112-11.853H93V.03H0z" opacity=".5" transform="translate(0 43)"/>
        <path fill="#fff" d="M2 45v37.895h62.857s0 7.579 7.543 10.105c0 0-2.514-5.053 0-10.105H90V45H2z"/>
        <path fill="#3561A4" d="M9 52h50v5H9zm0 8h68v5H9zm0 8h60v5H9z"/>
        <path fill="url(#d)" d="M93 .03v40.117H30.204S25.568 49.33 17.595 52c0 0 2.544-6.504-.112-11.853H0V.03h93z" opacity=".5" transform="translate(120 120)"/>
        <path fill="#fff" d="M210 122v37.895h-62.857s0 7.579-7.543 10.105c0 0 2.514-5.053 0-10.105H122V122h88z"/>
        <path fill="#3561A4" d="M133 129h50v5h-50zm0 8h68v5h-68zm0 7h60v5h-60z"/>
    </g>
</svg>
