<?xml version="1.0" encoding="UTF-8"?>
<svg xmlns="http://www.w3.org/2000/svg" xmlns:xlink="http://www.w3.org/1999/xlink" width="23px" height="17px" version="1.1" viewBox="0 0 23 17">
    <g id="Symbols" fill="none" fill-rule="evenodd" stroke="none" stroke-width="1">
        <g id="Partner-Row" fill="#030104" fill-rule="nonzero" transform="translate(-310.000000, -24.000000)">
            <g id="Group-8">
                <g id="Group-7" transform="translate(17.000000, 17.000000)">
                    <g id="Group-13" transform="translate(182.000000, 6.000000)">
                        <g id="Group-5">
                            <g id="photo-camera" transform="translate(111.000000, 1.000000)">
                                <path id="Shape" d="M11.5,6.375 C9.59445,6.375 8.05,7.802575 8.05,9.5625 C8.05,11.3230625 9.59445,12.75 11.5,12.75 C13.40509,12.75 14.95,11.3230625 14.95,9.5625 C14.95,7.802575 13.40509,6.375 11.5,6.375 Z M20.7,3.1875 L17.94,3.1875 C17.5605,3.1875 17.15156,2.9155 17.03173,2.582725 L16.31827,0.6045625 C16.19798,0.272 15.7895,0 15.41,0 L7.59,0 C7.2105,0 6.80156,0.272 6.68173,0.604775 L5.96827,2.5829375 C5.84798,2.9155 5.4395,3.1875 5.06,3.1875 L2.3,3.1875 C1.035,3.1875 0,4.14375 0,5.3125 L0,14.875 C0,16.04375 1.035,17 2.3,17 L20.7,17 C21.965,17 23,16.04375 23,14.875 L23,5.3125 C23,4.14375 21.965,3.1875 20.7,3.1875 Z M11.5,14.875 C8.32439,14.875 5.75,12.4964875 5.75,9.5625 C5.75,6.628725 8.32439,4.25 11.5,4.25 C14.67515,4.25 17.25,6.628725 17.25,9.5625 C17.25,12.4964875 14.67515,14.875 11.5,14.875 Z M19.895,6.7985125 C19.45064,6.7985125 19.09,6.4657375 19.09,6.0547625 C19.09,5.6442125 19.45064,5.3110125 19.895,5.3110125 C20.33982,5.3110125 20.7,5.6442125 20.7,6.0547625 C20.7,6.4657375 20.33959,6.7985125 19.895,6.7985125 Z"/>
                            </g>
                        </g>
                    </g>
                </g>
            </g>
        </g>
    </g>
</svg>
