<?xml version="1.0" encoding="UTF-8"?>
<svg version="1.1" viewBox="0 0 520px 340px" xmlns="http://www.w3.org/2000/svg" xmlns:xlink="http://www.w3.org/1999/xlink">
<defs>
<linearGradient id="ce" y2="100%">
<stop stop-color="#FDFDFD" offset="0"/>
<stop stop-color="#F1F1F1" offset=".69559"/>
<stop stop-color="#FDFDFD" offset="1"/>
</linearGradient>
<linearGradient id="cd" y2="100%">
<stop stop-color="#eee" offset="0"/>
<stop stop-color="#F8F6F6" offset=".18094"/>
<stop stop-color="#E7E7E7" offset=".3411"/>
<stop stop-color="#F7F7F7" offset=".55678"/>
<stop stop-color="#F1F1F1" offset="1"/>
</linearGradient>
<path id="cb" d="m934 529v36h-804v-36-0.003894-506.99c0-12.152 9.8575-22.004 22.001-22.004h760c12.151 0 22.001 9.8564 22.001 22.004v506.99 0.003894z"/>
<filter id="dl" x="-13.9%" y="-19.9%" width="127.7%" height="139.5%">
<feOffset dx="0" dy="-1" in="SourceAlpha" result="shadowOffsetOuter1"/>
<feGaussianBlur in="shadowOffsetOuter1" result="shadowBlurOuter1" stdDeviation="37"/>
<feComposite in="shadowBlurOuter1" in2="SourceAlpha" operator="out" result="shadowBlurOuter1"/>
<feColorMatrix in="shadowBlurOuter1" values="0 0 0 0 0.11372549   0 0 0 0 0.223529412   0 0 0 0 0.266666667  0 0 0 0.08 0"/>
</filter>
<path id="aa" d="m130.43 549h801.91c4.9994 0 8.4498 1.8705 10.999 5 2.549 3.1295 105.94 111.85 111.99 120 7.0155 9.4587-0.8775 19-10.999 19-345.59 0-689.17-1-1034.9-1-8.3239 0-11.999-9-3.9995-19 7.9991-10 105.33-113.37 108.99-117s8.999-7 15.998-7z"/>
<filter id="da" x="-19.7%" y="-98.6%" width="139.4%" height="388.9%">
<feOffset dx="0" dy="54" in="SourceAlpha" result="shadowOffsetOuter1"/>
<feGaussianBlur in="shadowOffsetOuter1" result="shadowBlurOuter1" stdDeviation="67"/>
<feColorMatrix in="shadowBlurOuter1" result="shadowMatrixOuter1" values="0 0 0 0 0.11372549   0 0 0 0 0.223529412   0 0 0 0 0.266666667  0 0 0 0.121263587 0"/>
<feOffset dx="0" dy="12" in="SourceAlpha" result="shadowOffsetOuter2"/>
<feGaussianBlur in="shadowOffsetOuter2" result="shadowBlurOuter2" stdDeviation="7"/>
<feColorMatrix in="shadowBlurOuter2" result="shadowMatrixOuter2" values="0 0 0 0 0.11372549   0 0 0 0 0.223529412   0 0 0 0 0.266666667  0 0 0 0.293251812 0"/>
<feMerge>
<feMergeNode in="shadowMatrixOuter1"/>
<feMergeNode in="shadowMatrixOuter2"/>
</feMerge>
</filter>
<linearGradient id="cc" x1="100%" x2="0%" y1="50%" y2="50%">
<stop stop-color="#CBCBCB" offset="0"/>
<stop stop-color="#E0E0E0" offset=".25311"/>
<stop stop-color="#E0E0E0" offset=".78133"/>
<stop stop-color="#CBCBCB" offset="1"/>
</linearGradient>
<polygon id="k" points="336 629 726 629 747 688 314 688"/>
<filter id="ck" x="-.2%" y="-1.7%" width="100.5%" height="103.4%">
<feGaussianBlur in="SourceAlpha" result="shadowBlurInner1" stdDeviation="0.5"/>
<feOffset dx="0" dy="1" in="shadowBlurInner1" result="shadowOffsetInner1"/>
<feComposite in="shadowOffsetInner1" in2="SourceAlpha" k2="-1" k3="1" operator="arithmetic" result="shadowInnerInner1"/>
<feColorMatrix in="shadowInnerInner1" values="0 0 0 0 0   0 0 0 0 0   0 0 0 0 0  0 0 0 0.108440897 0"/>
</filter>
<polygon id="ca" points="65 0 891 0 955 68 0 68"/>
<filter id="fb" x="-.1%" y="-1.5%" width="100.2%" height="102.9%">
<feGaussianBlur in="SourceAlpha" result="shadowBlurInner1" stdDeviation="0.5"/>
<feOffset dx="0" dy="1" in="shadowBlurInner1" result="shadowOffsetInner1"/>
<feComposite in="shadowOffsetInner1" in2="SourceAlpha" k2="-1" k3="1" operator="arithmetic" result="shadowInnerInner1"/>
<feColorMatrix in="shadowInnerInner1" values="0 0 0 0 0   0 0 0 0 0   0 0 0 0 0  0 0 0 0.098363904 0"/>
</filter>
<polygon id="bp" points="288 54 602 54 605 67 283 67"/>
<filter id="eq" x="-.6%" y="-7.7%" width="101.2%" height="130.8%">
<feOffset dx="0" dy="1" in="SourceAlpha" result="shadowOffsetOuter1"/>
<feGaussianBlur in="shadowOffsetOuter1" result="shadowBlurOuter1" stdDeviation="0.5"/>
<feColorMatrix in="shadowBlurOuter1" values="0 0 0 0 0   0 0 0 0 0   0 0 0 0 0  0 0 0 0.1 0"/>
</filter>
<polygon id="be" points="607.16 54 682.3 54 687 67 610 67"/>
<filter id="ef" x="-2.5%" y="-7.7%" width="105%" height="130.8%">
<feOffset dx="0" dy="1" in="SourceAlpha" result="shadowOffsetOuter1"/>
<feGaussianBlur in="shadowOffsetOuter1" result="shadowBlurOuter1" stdDeviation="0.5"/>
<feColorMatrix in="shadowBlurOuter1" values="0 0 0 0 0   0 0 0 0 0   0 0 0 0 0  0 0 0 0.1 0"/>
</filter>
<polygon id="at" points="687.16 54 746.36 54 752 67 692.36 67"/>
<filter id="dx" x="-3.1%" y="-7.7%" width="106.2%" height="130.8%">
<feOffset dx="0" dy="1" in="SourceAlpha" result="shadowOffsetOuter1"/>
<feGaussianBlur in="shadowOffsetOuter1" result="shadowBlurOuter1" stdDeviation="0.5"/>
<feColorMatrix in="shadowBlurOuter1" values="0 0 0 0 0   0 0 0 0 0   0 0 0 0 0  0 0 0 0.1 0"/>
</filter>
<polygon id="aq" points="751.16 54 809.36 54 818 67 757.36 67"/>
<filter id="dw" x="-3%" y="-7.7%" width="106%" height="130.8%">
<feOffset dx="0" dy="1" in="SourceAlpha" result="shadowOffsetOuter1"/>
<feGaussianBlur in="shadowOffsetOuter1" result="shadowBlurOuter1" stdDeviation="0.5"/>
<feColorMatrix in="shadowBlurOuter1" values="0 0 0 0 0   0 0 0 0 0   0 0 0 0 0  0 0 0 0.1 0"/>
</filter>
<polygon id="ap" points="814.16 54 873.36 54 883 67 822.36 67"/>
<filter id="dv" x="-2.9%" y="-7.7%" width="105.8%" height="130.8%">
<feOffset dx="0" dy="1" in="SourceAlpha" result="shadowOffsetOuter1"/>
<feGaussianBlur in="shadowOffsetOuter1" result="shadowBlurOuter1" stdDeviation="0.5"/>
<feColorMatrix in="shadowBlurOuter1" values="0 0 0 0 0   0 0 0 0 0   0 0 0 0 0  0 0 0 0.1 0"/>
</filter>
<polygon id="ao" points="877.16 54 936.36 54 948 67 887.36 67"/>
<filter id="du" x="-2.8%" y="-7.7%" width="105.6%" height="130.8%">
<feOffset dx="0" dy="1" in="SourceAlpha" result="shadowOffsetOuter1"/>
<feGaussianBlur in="shadowOffsetOuter1" result="shadowBlurOuter1" stdDeviation="0.5"/>
<feColorMatrix in="shadowBlurOuter1" values="0 0 0 0 0   0 0 0 0 0   0 0 0 0 0  0 0 0 0.1 0"/>
</filter>
<polygon id="an" points="790 42 925.17 42 936 53 796.87 53"/>
<filter id="dt" x="-1.4%" y="-9.1%" width="102.7%" height="136.4%">
<feOffset dx="0" dy="1" in="SourceAlpha" result="shadowOffsetOuter1"/>
<feGaussianBlur in="shadowOffsetOuter1" result="shadowBlurOuter1" stdDeviation="0.5"/>
<feColorMatrix in="shadowBlurOuter1" values="0 0 0 0 0   0 0 0 0 0   0 0 0 0 0  0 0 0 0.1 0"/>
</filter>
<polygon id="am" points="728 42 785.4 42 792 53 732.92 53"/>
<filter id="ds" x="-3.1%" y="-9.1%" width="106.3%" height="136.4%">
<feOffset dx="0" dy="1" in="SourceAlpha" result="shadowOffsetOuter1"/>
<feGaussianBlur in="shadowOffsetOuter1" result="shadowBlurOuter1" stdDeviation="0.5"/>
<feColorMatrix in="shadowBlurOuter1" values="0 0 0 0 0   0 0 0 0 0   0 0 0 0 0  0 0 0 0.1 0"/>
</filter>
<polygon id="al" points="666 42 723.4 42 728 53 669.92 53"/>
<filter id="dr" x="-3.2%" y="-9.1%" width="106.5%" height="136.4%">
<feOffset dx="0" dy="1" in="SourceAlpha" result="shadowOffsetOuter1"/>
<feGaussianBlur in="shadowOffsetOuter1" result="shadowBlurOuter1" stdDeviation="0.5"/>
<feColorMatrix in="shadowBlurOuter1" values="0 0 0 0 0   0 0 0 0 0   0 0 0 0 0  0 0 0 0.1 0"/>
</filter>
<polygon id="ak" points="604 42 661.4 42 665 53 605.92 53"/>
<filter id="dq" x="-3.3%" y="-9.1%" width="106.6%" height="136.4%">
<feOffset dx="0" dy="1" in="SourceAlpha" result="shadowOffsetOuter1"/>
<feGaussianBlur in="shadowOffsetOuter1" result="shadowBlurOuter1" stdDeviation="0.5"/>
<feColorMatrix in="shadowBlurOuter1" values="0 0 0 0 0   0 0 0 0 0   0 0 0 0 0  0 0 0 0.1 0"/>
</filter>
<polygon id="aj" points="542 42 598.4 42 601 53 542.92 53"/>
<filter id="dp" x="-3.4%" y="-9.1%" width="106.8%" height="136.4%">
<feOffset dx="0" dy="1" in="SourceAlpha" result="shadowOffsetOuter1"/>
<feGaussianBlur in="shadowOffsetOuter1" result="shadowBlurOuter1" stdDeviation="0.5"/>
<feColorMatrix in="shadowBlurOuter1" values="0 0 0 0 0   0 0 0 0 0   0 0 0 0 0  0 0 0 0.1 0"/>
</filter>
<polygon id="ai" points="480 42 536.4 42 538 53 479.92 53"/>
<filter id="do" x="-3.4%" y="-9.1%" width="106.9%" height="136.4%">
<feOffset dx="0" dy="1" in="SourceAlpha" result="shadowOffsetOuter1"/>
<feGaussianBlur in="shadowOffsetOuter1" result="shadowBlurOuter1" stdDeviation="0.5"/>
<feColorMatrix in="shadowBlurOuter1" values="0 0 0 0 0   0 0 0 0 0   0 0 0 0 0  0 0 0 0.1 0"/>
</filter>
<polygon id="ah" points="417 42 474.4 42 475 53 415.92 53"/>
<filter id="dn" x="-3.4%" y="-9.1%" width="106.8%" height="136.4%">
<feOffset dx="0" dy="1" in="SourceAlpha" result="shadowOffsetOuter1"/>
<feGaussianBlur in="shadowOffsetOuter1" result="shadowBlurOuter1" stdDeviation="0.5"/>
<feColorMatrix in="shadowBlurOuter1" values="0 0 0 0 0   0 0 0 0 0   0 0 0 0 0  0 0 0 0.1 0"/>
</filter>
<polygon id="ag" points="355 42 412.4 42 412 53 351.92 53"/>
<filter id="dm" x="-3.3%" y="-9.1%" width="106.6%" height="136.4%">
<feOffset dx="0" dy="1" in="SourceAlpha" result="shadowOffsetOuter1"/>
<feGaussianBlur in="shadowOffsetOuter1" result="shadowBlurOuter1" stdDeviation="0.5"/>
<feColorMatrix in="shadowBlurOuter1" values="0 0 0 0 0   0 0 0 0 0   0 0 0 0 0  0 0 0 0.1 0"/>
</filter>
<polygon id="af" points="293 42 350.4 42 347 53 288.92 53"/>
<filter id="dk" x="-3.3%" y="-9.1%" width="106.5%" height="136.4%">
<feOffset dx="0" dy="1" in="SourceAlpha" result="shadowOffsetOuter1"/>
<feGaussianBlur in="shadowOffsetOuter1" result="shadowBlurOuter1" stdDeviation="0.5"/>
<feColorMatrix in="shadowBlurOuter1" values="0 0 0 0 0   0 0 0 0 0   0 0 0 0 0  0 0 0 0.1 0"/>
</filter>
<polygon id="ae" points="231 42 287.4 42 284 53 224.92 53"/>
<filter id="dj" x="-3.2%" y="-9.1%" width="106.4%" height="136.4%">
<feOffset dx="0" dy="1" in="SourceAlpha" result="shadowOffsetOuter1"/>
<feGaussianBlur in="shadowOffsetOuter1" result="shadowBlurOuter1" stdDeviation="0.5"/>
<feColorMatrix in="shadowBlurOuter1" values="0 0 0 0 0   0 0 0 0 0   0 0 0 0 0  0 0 0 0.1 0"/>
</filter>
<polygon id="ad" points="169 42 225.4 42 221 53 161.92 53"/>
<filter id="di" x="-3.2%" y="-9.1%" width="106.3%" height="136.4%">
<feOffset dx="0" dy="1" in="SourceAlpha" result="shadowOffsetOuter1"/>
<feGaussianBlur in="shadowOffsetOuter1" result="shadowBlurOuter1" stdDeviation="0.5"/>
<feColorMatrix in="shadowBlurOuter1" values="0 0 0 0 0   0 0 0 0 0   0 0 0 0 0  0 0 0 0.1 0"/>
</filter>
<polygon id="ac" points="29 42 163.4 42 157 53 18.918 53"/>
<filter id="dh" x="-1.4%" y="-9.1%" width="102.8%" height="136.4%">
<feOffset dx="0" dy="1" in="SourceAlpha" result="shadowOffsetOuter1"/>
<feGaussianBlur in="shadowOffsetOuter1" result="shadowBlurOuter1" stdDeviation="0.5"/>
<feColorMatrix in="shadowBlurOuter1" values="0 0 0 0 0   0 0 0 0 0   0 0 0 0 0  0 0 0 0.1 0"/>
</filter>
<polygon id="ab" points="40 29 143 29 134.6 41 29.918 41"/>
<filter id="dg" x="-1.8%" y="-8.3%" width="103.5%" height="133.3%">
<feOffset dx="0" dy="1" in="SourceAlpha" result="shadowOffsetOuter1"/>
<feGaussianBlur in="shadowOffsetOuter1" result="shadowBlurOuter1" stdDeviation="0.5"/>
<feColorMatrix in="shadowBlurOuter1" values="0 0 0 0 0   0 0 0 0 0   0 0 0 0 0  0 0 0 0.1 0"/>
</filter>
<polygon id="z" points="52 17 137 17 128.6 28 41.918 28"/>
<filter id="df" x="-2.1%" y="-9.1%" width="104.2%" height="136.4%">
<feOffset dx="0" dy="1" in="SourceAlpha" result="shadowOffsetOuter1"/>
<feGaussianBlur in="shadowOffsetOuter1" result="shadowBlurOuter1" stdDeviation="0.5"/>
<feColorMatrix in="shadowBlurOuter1" values="0 0 0 0 0   0 0 0 0 0   0 0 0 0 0  0 0 0 0.1 0"/>
</filter>
<polygon id="y" points="147 29 203 29 196.6 41 138.92 41"/>
<filter id="de" x="-3.1%" y="-8.3%" width="106.2%" height="133.3%">
<feOffset dx="0" dy="1" in="SourceAlpha" result="shadowOffsetOuter1"/>
<feGaussianBlur in="shadowOffsetOuter1" result="shadowBlurOuter1" stdDeviation="0.5"/>
<feColorMatrix in="shadowBlurOuter1" values="0 0 0 0 0   0 0 0 0 0   0 0 0 0 0  0 0 0 0.1 0"/>
</filter>
<polygon id="x" points="141 17 195 17 188.6 28 132.92 28"/>
<filter id="dd" x="-3.2%" y="-9.1%" width="106.4%" height="136.4%">
<feOffset dx="0" dy="1" in="SourceAlpha" result="shadowOffsetOuter1"/>
<feGaussianBlur in="shadowOffsetOuter1" result="shadowBlurOuter1" stdDeviation="0.5"/>
<feColorMatrix in="shadowBlurOuter1" values="0 0 0 0 0   0 0 0 0 0   0 0 0 0 0  0 0 0 0.1 0"/>
</filter>
<polygon id="w" points="199 17 254 17 248.6 28 192.92 28"/>
<filter id="dc" x="-3.3%" y="-9.1%" width="106.5%" height="136.4%">
<feOffset dx="0" dy="1" in="SourceAlpha" result="shadowOffsetOuter1"/>
<feGaussianBlur in="shadowOffsetOuter1" result="shadowBlurOuter1" stdDeviation="0.5"/>
<feColorMatrix in="shadowBlurOuter1" values="0 0 0 0 0   0 0 0 0 0   0 0 0 0 0  0 0 0 0.1 0"/>
</filter>
<polygon id="v" points="259 17 313 17 309.6 28 253.92 28"/>
<filter id="db" x="-3.4%" y="-9.1%" width="106.8%" height="136.4%">
<feOffset dx="0" dy="1" in="SourceAlpha" result="shadowOffsetOuter1"/>
<feGaussianBlur in="shadowOffsetOuter1" result="shadowBlurOuter1" stdDeviation="0.5"/>
<feColorMatrix in="shadowBlurOuter1" values="0 0 0 0 0   0 0 0 0 0   0 0 0 0 0  0 0 0 0.1 0"/>
</filter>
<polygon id="u" points="318 17 372 17 369.6 28 313.92 28"/>
<filter id="cz" x="-3.4%" y="-9.1%" width="106.9%" height="136.4%">
<feOffset dx="0" dy="1" in="SourceAlpha" result="shadowOffsetOuter1"/>
<feGaussianBlur in="shadowOffsetOuter1" result="shadowBlurOuter1" stdDeviation="0.5"/>
<feColorMatrix in="shadowBlurOuter1" values="0 0 0 0 0   0 0 0 0 0   0 0 0 0 0  0 0 0 0.1 0"/>
</filter>
<polygon id="t" points="377 17 431 17 430.6 28 374.92 28"/>
<filter id="cy" x="-3.6%" y="-9.1%" width="107.1%" height="136.4%">
<feOffset dx="0" dy="1" in="SourceAlpha" result="shadowOffsetOuter1"/>
<feGaussianBlur in="shadowOffsetOuter1" result="shadowBlurOuter1" stdDeviation="0.5"/>
<feColorMatrix in="shadowBlurOuter1" values="0 0 0 0 0   0 0 0 0 0   0 0 0 0 0  0 0 0 0.1 0"/>
</filter>
<polygon id="s" points="435 17 491 17 490.6 28 434.92 28"/>
<filter id="cx" x="-3.6%" y="-9.1%" width="107.1%" height="136.4%">
<feOffset dx="0" dy="1" in="SourceAlpha" result="shadowOffsetOuter1"/>
<feGaussianBlur in="shadowOffsetOuter1" result="shadowBlurOuter1" stdDeviation="0.5"/>
<feColorMatrix in="shadowBlurOuter1" values="0 0 0 0 0   0 0 0 0 0   0 0 0 0 0  0 0 0 0.1 0"/>
</filter>
<polygon id="r" points="495 17 549 17 550.6 28 494.92 28"/>
<filter id="cw" x="-3.6%" y="-9.1%" width="107.2%" height="136.4%">
<feOffset dx="0" dy="1" in="SourceAlpha" result="shadowOffsetOuter1"/>
<feGaussianBlur in="shadowOffsetOuter1" result="shadowBlurOuter1" stdDeviation="0.5"/>
<feColorMatrix in="shadowBlurOuter1" values="0 0 0 0 0   0 0 0 0 0   0 0 0 0 0  0 0 0 0.1 0"/>
</filter>
<polygon id="q" points="553 17 608 17 610.6 28 554.92 28"/>
<filter id="cv" x="-3.5%" y="-9.1%" width="106.9%" height="136.4%">
<feOffset dx="0" dy="1" in="SourceAlpha" result="shadowOffsetOuter1"/>
<feGaussianBlur in="shadowOffsetOuter1" result="shadowBlurOuter1" stdDeviation="0.5"/>
<feColorMatrix in="shadowBlurOuter1" values="0 0 0 0 0   0 0 0 0 0   0 0 0 0 0  0 0 0 0.1 0"/>
</filter>
<polygon id="p" points="613 17 667 17 671.6 28 615.92 28"/>
<filter id="cu" x="-3.4%" y="-9.1%" width="106.8%" height="136.4%">
<feOffset dx="0" dy="1" in="SourceAlpha" result="shadowOffsetOuter1"/>
<feGaussianBlur in="shadowOffsetOuter1" result="shadowBlurOuter1" stdDeviation="0.5"/>
<feColorMatrix in="shadowBlurOuter1" values="0 0 0 0 0   0 0 0 0 0   0 0 0 0 0  0 0 0 0.1 0"/>
</filter>
<polygon id="o" points="672 17 726 17 732.6 28 676.92 28"/>
<filter id="ct" x="-3.3%" y="-9.1%" width="106.6%" height="136.4%">
<feOffset dx="0" dy="1" in="SourceAlpha" result="shadowOffsetOuter1"/>
<feGaussianBlur in="shadowOffsetOuter1" result="shadowBlurOuter1" stdDeviation="0.5"/>
<feColorMatrix in="shadowBlurOuter1" values="0 0 0 0 0   0 0 0 0 0   0 0 0 0 0  0 0 0 0.1 0"/>
</filter>
<polygon id="n" points="730 17 785 17 792.6 28 736.92 28"/>
<filter id="cs" x="-3.2%" y="-9.1%" width="106.4%" height="136.4%">
<feOffset dx="0" dy="1" in="SourceAlpha" result="shadowOffsetOuter1"/>
<feGaussianBlur in="shadowOffsetOuter1" result="shadowBlurOuter1" stdDeviation="0.5"/>
<feColorMatrix in="shadowBlurOuter1" values="0 0 0 0 0   0 0 0 0 0   0 0 0 0 0  0 0 0 0.1 0"/>
</filter>
<polygon id="m" points="790 17 845 17 852.6 28 796.92 28"/>
<filter id="cr" x="-3.2%" y="-9.1%" width="106.4%" height="136.4%">
<feOffset dx="0" dy="1" in="SourceAlpha" result="shadowOffsetOuter1"/>
<feGaussianBlur in="shadowOffsetOuter1" result="shadowBlurOuter1" stdDeviation="0.5"/>
<feColorMatrix in="shadowBlurOuter1" values="0 0 0 0 0   0 0 0 0 0   0 0 0 0 0  0 0 0 0.1 0"/>
</filter>
<polygon id="l" points="849 17 904 17 913.6 28 855.92 28"/>
<filter id="cq" x="-3.1%" y="-9.1%" width="106.2%" height="136.4%">
<feOffset dx="0" dy="1" in="SourceAlpha" result="shadowOffsetOuter1"/>
<feGaussianBlur in="shadowOffsetOuter1" result="shadowBlurOuter1" stdDeviation="0.5"/>
<feColorMatrix in="shadowBlurOuter1" values="0 0 0 0 0   0 0 0 0 0   0 0 0 0 0  0 0 0 0.1 0"/>
</filter>
<polygon id="j" points="810 6 894 6 902.6 16 818 16"/>
<filter id="cp" x="-2.2%" width="104.3%" height="140%">
<feOffset dx="0" dy="1" in="SourceAlpha" result="shadowOffsetOuter1"/>
<feGaussianBlur in="shadowOffsetOuter1" result="shadowBlurOuter1" stdDeviation="0.5"/>
<feColorMatrix in="shadowBlurOuter1" values="0 0 0 0 0   0 0 0 0 0   0 0 0 0 0  0 0 0 0.1 0"/>
</filter>
<polygon id="i" points="753 6 806 6 813.6 16 760 16"/>
<filter id="co" x="-3.3%" width="106.6%" height="140%">
<feOffset dx="0" dy="1" in="SourceAlpha" result="shadowOffsetOuter1"/>
<feGaussianBlur in="shadowOffsetOuter1" result="shadowBlurOuter1" stdDeviation="0.5"/>
<feColorMatrix in="shadowBlurOuter1" values="0 0 0 0 0   0 0 0 0 0   0 0 0 0 0  0 0 0 0.1 0"/>
</filter>
<polygon id="h" points="696 6 748 6 754.6 16 701 16"/>
<filter id="cn" x="-3.4%" width="106.8%" height="140%">
<feOffset dx="0" dy="1" in="SourceAlpha" result="shadowOffsetOuter1"/>
<feGaussianBlur in="shadowOffsetOuter1" result="shadowBlurOuter1" stdDeviation="0.5"/>
<feColorMatrix in="shadowBlurOuter1" values="0 0 0 0 0   0 0 0 0 0   0 0 0 0 0  0 0 0 0.1 0"/>
</filter>
<polygon id="g" points="638 6 690 6 695.6 16 641 16"/>
<filter id="cm" x="-3.5%" width="106.9%" height="140%">
<feOffset dx="0" dy="1" in="SourceAlpha" result="shadowOffsetOuter1"/>
<feGaussianBlur in="shadowOffsetOuter1" result="shadowBlurOuter1" stdDeviation="0.5"/>
<feColorMatrix in="shadowBlurOuter1" values="0 0 0 0 0   0 0 0 0 0   0 0 0 0 0  0 0 0 0.1 0"/>
</filter>
<polygon id="f" points="581 6 634 6 636.6 16 582 16"/>
<filter id="cl" x="-3.6%" width="107.2%" height="140%">
<feOffset dx="0" dy="1" in="SourceAlpha" result="shadowOffsetOuter1"/>
<feGaussianBlur in="shadowOffsetOuter1" result="shadowBlurOuter1" stdDeviation="0.5"/>
<feColorMatrix in="shadowBlurOuter1" values="0 0 0 0 0   0 0 0 0 0   0 0 0 0 0  0 0 0 0.1 0"/>
</filter>
<polygon id="e" points="523 6 576 6 578.6 16 523 16"/>
<filter id="cj" x="-3.6%" width="107.2%" height="140%">
<feOffset dx="0" dy="1" in="SourceAlpha" result="shadowOffsetOuter1"/>
<feGaussianBlur in="shadowOffsetOuter1" result="shadowBlurOuter1" stdDeviation="0.5"/>
<feColorMatrix in="shadowBlurOuter1" values="0 0 0 0 0   0 0 0 0 0   0 0 0 0 0  0 0 0 0.1 0"/>
</filter>
<polygon id="d" points="465 6 519 6 518.6 16 465 16"/>
<filter id="ci" x="-3.7%" width="107.4%" height="140%">
<feOffset dx="0" dy="1" in="SourceAlpha" result="shadowOffsetOuter1"/>
<feGaussianBlur in="shadowOffsetOuter1" result="shadowBlurOuter1" stdDeviation="0.5"/>
<feColorMatrix in="shadowBlurOuter1" values="0 0 0 0 0   0 0 0 0 0   0 0 0 0 0  0 0 0 0.1 0"/>
</filter>
<polygon id="c" points="407 6 461 6 461 16 406 16"/>
<filter id="ch" x="-3.6%" width="107.3%" height="140%">
<feOffset dx="0" dy="1" in="SourceAlpha" result="shadowOffsetOuter1"/>
<feGaussianBlur in="shadowOffsetOuter1" result="shadowBlurOuter1" stdDeviation="0.5"/>
<feColorMatrix in="shadowBlurOuter1" values="0 0 0 0 0   0 0 0 0 0   0 0 0 0 0  0 0 0 0.1 0"/>
</filter>
<polygon id="b" points="350 6 403 6 402 16 347 16"/>
<filter id="cg" x="-3.6%" width="107.1%" height="140%">
<feOffset dx="0" dy="1" in="SourceAlpha" result="shadowOffsetOuter1"/>
<feGaussianBlur in="shadowOffsetOuter1" result="shadowBlurOuter1" stdDeviation="0.5"/>
<feColorMatrix in="shadowBlurOuter1" values="0 0 0 0 0   0 0 0 0 0   0 0 0 0 0  0 0 0 0.1 0"/>
</filter>
<polygon id="a" points="293 6 345 6 342 16 288 16"/>
<filter id="cf" x="-3.5%" width="107%" height="140%">
<feOffset dx="0" dy="1" in="SourceAlpha" result="shadowOffsetOuter1"/>
<feGaussianBlur in="shadowOffsetOuter1" result="shadowBlurOuter1" stdDeviation="0.5"/>
<feColorMatrix in="shadowBlurOuter1" values="0 0 0 0 0   0 0 0 0 0   0 0 0 0 0  0 0 0 0.1 0"/>
</filter>
<polygon id="bz" points="235 6 289 6 284 16 230 16"/>
<filter id="fg" x="-3.4%" width="106.8%" height="140%">
<feOffset dx="0" dy="1" in="SourceAlpha" result="shadowOffsetOuter1"/>
<feGaussianBlur in="shadowOffsetOuter1" result="shadowBlurOuter1" stdDeviation="0.5"/>
<feColorMatrix in="shadowBlurOuter1" values="0 0 0 0 0   0 0 0 0 0   0 0 0 0 0  0 0 0 0.1 0"/>
</filter>
<polygon id="by" points="178 6 230 6 225 16 171 16"/>
<filter id="ff" x="-3.4%" width="106.8%" height="140%">
<feOffset dx="0" dy="1" in="SourceAlpha" result="shadowOffsetOuter1"/>
<feGaussianBlur in="shadowOffsetOuter1" result="shadowBlurOuter1" stdDeviation="0.5"/>
<feColorMatrix in="shadowBlurOuter1" values="0 0 0 0 0   0 0 0 0 0   0 0 0 0 0  0 0 0 0.1 0"/>
</filter>
<polygon id="bx" points="120 6 173 6 166 16 112 16"/>
<filter id="fe" x="-3.3%" width="106.6%" height="140%">
<feOffset dx="0" dy="1" in="SourceAlpha" result="shadowOffsetOuter1"/>
<feGaussianBlur in="shadowOffsetOuter1" result="shadowBlurOuter1" stdDeviation="0.5"/>
<feColorMatrix in="shadowBlurOuter1" values="0 0 0 0 0   0 0 0 0 0   0 0 0 0 0  0 0 0 0.1 0"/>
</filter>
<polygon id="bw" points="62 6 115 6 107 16 53 16"/>
<filter id="fd" x="-3.2%" width="106.5%" height="140%">
<feOffset dx="0" dy="1" in="SourceAlpha" result="shadowOffsetOuter1"/>
<feGaussianBlur in="shadowOffsetOuter1" result="shadowBlurOuter1" stdDeviation="0.5"/>
<feColorMatrix in="shadowBlurOuter1" values="0 0 0 0 0   0 0 0 0 0   0 0 0 0 0  0 0 0 0.1 0"/>
</filter>
<polygon id="bv" points="67 1 147 1 144 5 63 5"/>
<filter id="fc" x="-2.4%" y="-25%" width="104.8%" height="200%">
<feOffset dx="0" dy="1" in="SourceAlpha" result="shadowOffsetOuter1"/>
<feGaussianBlur in="shadowOffsetOuter1" result="shadowBlurOuter1" stdDeviation="0.5"/>
<feColorMatrix in="shadowBlurOuter1" values="0 0 0 0 0   0 0 0 0 0   0 0 0 0 0  0 0 0 0.1 0"/>
</filter>
<polygon id="bu" points="153 1 206 1 203 5 150 5"/>
<filter id="fa" x="-3.6%" y="-25%" width="107.1%" height="200%">
<feOffset dx="0" dy="1" in="SourceAlpha" result="shadowOffsetOuter1"/>
<feGaussianBlur in="shadowOffsetOuter1" result="shadowBlurOuter1" stdDeviation="0.5"/>
<feColorMatrix in="shadowBlurOuter1" values="0 0 0 0 0   0 0 0 0 0   0 0 0 0 0  0 0 0 0.1 0"/>
</filter>
<polygon id="bt" points="210 1 262 1 260 5 207 5"/>
<filter id="ez" x="-3.6%" y="-25%" width="107.3%" height="200%">
<feOffset dx="0" dy="1" in="SourceAlpha" result="shadowOffsetOuter1"/>
<feGaussianBlur in="shadowOffsetOuter1" result="shadowBlurOuter1" stdDeviation="0.5"/>
<feColorMatrix in="shadowBlurOuter1" values="0 0 0 0 0   0 0 0 0 0   0 0 0 0 0  0 0 0 0.1 0"/>
</filter>
<polygon id="bs" points="266 1 318 1 317 5 264 5"/>
<filter id="ey" x="-3.7%" y="-25%" width="107.4%" height="200%">
<feOffset dx="0" dy="1" in="SourceAlpha" result="shadowOffsetOuter1"/>
<feGaussianBlur in="shadowOffsetOuter1" result="shadowBlurOuter1" stdDeviation="0.5"/>
<feColorMatrix in="shadowBlurOuter1" values="0 0 0 0 0   0 0 0 0 0   0 0 0 0 0  0 0 0 0.1 0"/>
</filter>
<polygon id="br" points="322 1 375 1 375 5 321 5"/>
<filter id="ex" x="-3.7%" y="-25%" width="107.4%" height="200%">
<feOffset dx="0" dy="1" in="SourceAlpha" result="shadowOffsetOuter1"/>
<feGaussianBlur in="shadowOffsetOuter1" result="shadowBlurOuter1" stdDeviation="0.5"/>
<feColorMatrix in="shadowBlurOuter1" values="0 0 0 0 0   0 0 0 0 0   0 0 0 0 0  0 0 0 0.1 0"/>
</filter>
<polygon id="bq" points="380 1 433 1 433 5 380 5"/>
<filter id="ew" x="-3.8%" y="-25%" width="107.5%" height="200%">
<feOffset dx="0" dy="1" in="SourceAlpha" result="shadowOffsetOuter1"/>
<feGaussianBlur in="shadowOffsetOuter1" result="shadowBlurOuter1" stdDeviation="0.5"/>
<feColorMatrix in="shadowBlurOuter1" values="0 0 0 0 0   0 0 0 0 0   0 0 0 0 0  0 0 0 0.1 0"/>
</filter>
<polygon id="bo" points="437 1 491 1 491 5 437 5"/>
<filter id="ev" x="-3.7%" y="-25%" width="107.4%" height="200%">
<feOffset dx="0" dy="1" in="SourceAlpha" result="shadowOffsetOuter1"/>
<feGaussianBlur in="shadowOffsetOuter1" result="shadowBlurOuter1" stdDeviation="0.5"/>
<feColorMatrix in="shadowBlurOuter1" values="0 0 0 0 0   0 0 0 0 0   0 0 0 0 0  0 0 0 0.1 0"/>
</filter>
<polygon id="bn" points="494 1 547 1 547 5 494 5"/>
<filter id="eu" x="-3.8%" y="-25%" width="107.5%" height="200%">
<feOffset dx="0" dy="1" in="SourceAlpha" result="shadowOffsetOuter1"/>
<feGaussianBlur in="shadowOffsetOuter1" result="shadowBlurOuter1" stdDeviation="0.5"/>
<feColorMatrix in="shadowBlurOuter1" values="0 0 0 0 0   0 0 0 0 0   0 0 0 0 0  0 0 0 0.1 0"/>
</filter>
<polygon id="bm" points="550 1 603 1 604 5 550 5"/>
<filter id="et" x="-3.7%" y="-25%" width="107.4%" height="200%">
<feOffset dx="0" dy="1" in="SourceAlpha" result="shadowOffsetOuter1"/>
<feGaussianBlur in="shadowOffsetOuter1" result="shadowBlurOuter1" stdDeviation="0.5"/>
<feColorMatrix in="shadowBlurOuter1" values="0 0 0 0 0   0 0 0 0 0   0 0 0 0 0  0 0 0 0.1 0"/>
</filter>
<polygon id="bl" points="608 1 661 1 663 5 609 5"/>
<filter id="es" x="-3.6%" y="-25%" width="107.3%" height="200%">
<feOffset dx="0" dy="1" in="SourceAlpha" result="shadowOffsetOuter1"/>
<feGaussianBlur in="shadowOffsetOuter1" result="shadowBlurOuter1" stdDeviation="0.5"/>
<feColorMatrix in="shadowBlurOuter1" values="0 0 0 0 0   0 0 0 0 0   0 0 0 0 0  0 0 0 0.1 0"/>
</filter>
<polygon id="bk" points="665 1 718 1 720 5 667 5"/>
<filter id="er" x="-3.6%" y="-25%" width="107.3%" height="200%">
<feOffset dx="0" dy="1" in="SourceAlpha" result="shadowOffsetOuter1"/>
<feGaussianBlur in="shadowOffsetOuter1" result="shadowBlurOuter1" stdDeviation="0.5"/>
<feColorMatrix in="shadowBlurOuter1" values="0 0 0 0 0   0 0 0 0 0   0 0 0 0 0  0 0 0 0.1 0"/>
</filter>
<polygon id="bj" points="721 1 774 1 777 5 723 5"/>
<filter id="ep" x="-3.6%" y="-25%" width="107.1%" height="200%">
<feOffset dx="0" dy="1" in="SourceAlpha" result="shadowOffsetOuter1"/>
<feGaussianBlur in="shadowOffsetOuter1" result="shadowBlurOuter1" stdDeviation="0.5"/>
<feColorMatrix in="shadowBlurOuter1" values="0 0 0 0 0   0 0 0 0 0   0 0 0 0 0  0 0 0 0.1 0"/>
</filter>
<polygon id="bi" points="778 1 831 1 834 5 781 5"/>
<filter id="eo" x="-3.6%" y="-25%" width="107.1%" height="200%">
<feOffset dx="0" dy="1" in="SourceAlpha" result="shadowOffsetOuter1"/>
<feGaussianBlur in="shadowOffsetOuter1" result="shadowBlurOuter1" stdDeviation="0.5"/>
<feColorMatrix in="shadowBlurOuter1" values="0 0 0 0 0   0 0 0 0 0   0 0 0 0 0  0 0 0 0.1 0"/>
</filter>
<polygon id="bh" points="836 1 890 1 893 5 839 5"/>
<filter id="en" x="-3.5%" y="-25%" width="107%" height="200%">
<feOffset dx="0" dy="1" in="SourceAlpha" result="shadowOffsetOuter1"/>
<feGaussianBlur in="shadowOffsetOuter1" result="shadowBlurOuter1" stdDeviation="0.5"/>
<feColorMatrix in="shadowBlurOuter1" values="0 0 0 0 0   0 0 0 0 0   0 0 0 0 0  0 0 0 0.1 0"/>
</filter>
<polygon id="bg" points="208 29 264 29 257.6 41 199.92 41"/>
<filter id="em" x="-3.1%" y="-8.3%" width="106.2%" height="133.3%">
<feOffset dx="0" dy="1" in="SourceAlpha" result="shadowOffsetOuter1"/>
<feGaussianBlur in="shadowOffsetOuter1" result="shadowBlurOuter1" stdDeviation="0.5"/>
<feColorMatrix in="shadowBlurOuter1" values="0 0 0 0 0   0 0 0 0 0   0 0 0 0 0  0 0 0 0.1 0"/>
</filter>
<polygon id="bf" points="268 29 324 29 320.6 41 262.92 41"/>
<filter id="el" x="-3.3%" y="-8.3%" width="106.5%" height="133.3%">
<feOffset dx="0" dy="1" in="SourceAlpha" result="shadowOffsetOuter1"/>
<feGaussianBlur in="shadowOffsetOuter1" result="shadowBlurOuter1" stdDeviation="0.5"/>
<feColorMatrix in="shadowBlurOuter1" values="0 0 0 0 0   0 0 0 0 0   0 0 0 0 0  0 0 0 0.1 0"/>
</filter>
<polygon id="bd" points="328 29 384 29 382.6 41 324.92 41"/>
<filter id="ek" x="-3.4%" y="-8.3%" width="106.8%" height="133.3%">
<feOffset dx="0" dy="1" in="SourceAlpha" result="shadowOffsetOuter1"/>
<feGaussianBlur in="shadowOffsetOuter1" result="shadowBlurOuter1" stdDeviation="0.5"/>
<feColorMatrix in="shadowBlurOuter1" values="0 0 0 0 0   0 0 0 0 0   0 0 0 0 0  0 0 0 0.1 0"/>
</filter>
<polygon id="bc" points="388 29 445 29 444.6 41 386.92 41"/>
<filter id="ej" x="-3.4%" y="-8.3%" width="106.9%" height="133.3%">
<feOffset dx="0" dy="1" in="SourceAlpha" result="shadowOffsetOuter1"/>
<feGaussianBlur in="shadowOffsetOuter1" result="shadowBlurOuter1" stdDeviation="0.5"/>
<feColorMatrix in="shadowBlurOuter1" values="0 0 0 0 0   0 0 0 0 0   0 0 0 0 0  0 0 0 0.1 0"/>
</filter>
<polygon id="bb" points="449 29 506 29 506.6 41 448.92 41"/>
<filter id="ei" x="-3.5%" y="-8.3%" width="106.9%" height="133.3%">
<feOffset dx="0" dy="1" in="SourceAlpha" result="shadowOffsetOuter1"/>
<feGaussianBlur in="shadowOffsetOuter1" result="shadowBlurOuter1" stdDeviation="0.5"/>
<feColorMatrix in="shadowBlurOuter1" values="0 0 0 0 0   0 0 0 0 0   0 0 0 0 0  0 0 0 0.1 0"/>
</filter>
<polygon id="ba" points="510 29 566 29 567.6 41 510.92 41"/>
<filter id="eh" x="-3.5%" y="-8.3%" width="106.9%" height="133.3%">
<feOffset dx="0" dy="1" in="SourceAlpha" result="shadowOffsetOuter1"/>
<feGaussianBlur in="shadowOffsetOuter1" result="shadowBlurOuter1" stdDeviation="0.5"/>
<feColorMatrix in="shadowBlurOuter1" values="0 0 0 0 0   0 0 0 0 0   0 0 0 0 0  0 0 0 0.1 0"/>
</filter>
<polygon id="az" points="571 29 627 29 630.6 41 572.92 41"/>
<filter id="eg" x="-3.4%" y="-8.3%" width="106.7%" height="133.3%">
<feOffset dx="0" dy="1" in="SourceAlpha" result="shadowOffsetOuter1"/>
<feGaussianBlur in="shadowOffsetOuter1" result="shadowBlurOuter1" stdDeviation="0.5"/>
<feColorMatrix in="shadowBlurOuter1" values="0 0 0 0 0   0 0 0 0 0   0 0 0 0 0  0 0 0 0.1 0"/>
</filter>
<polygon id="ay" points="631 29 687 29 693.6 41 634.92 41"/>
<filter id="ee" x="-3.2%" y="-8.3%" width="106.4%" height="133.3%">
<feOffset dx="0" dy="1" in="SourceAlpha" result="shadowOffsetOuter1"/>
<feGaussianBlur in="shadowOffsetOuter1" result="shadowBlurOuter1" stdDeviation="0.5"/>
<feColorMatrix in="shadowBlurOuter1" values="0 0 0 0 0   0 0 0 0 0   0 0 0 0 0  0 0 0 0.1 0"/>
</filter>
<polygon id="ax" points="692 29 747 29 754.6 41 696.92 41"/>
<filter id="ed" x="-3.2%" y="-8.3%" width="106.4%" height="133.3%">
<feOffset dx="0" dy="1" in="SourceAlpha" result="shadowOffsetOuter1"/>
<feGaussianBlur in="shadowOffsetOuter1" result="shadowBlurOuter1" stdDeviation="0.5"/>
<feColorMatrix in="shadowBlurOuter1" values="0 0 0 0 0   0 0 0 0 0   0 0 0 0 0  0 0 0 0.1 0"/>
</filter>
<polygon id="aw" points="752 29 807 29 816.6 41 758.92 41"/>
<filter id="ec" x="-3.1%" y="-8.3%" width="106.2%" height="133.3%">
<feOffset dx="0" dy="1" in="SourceAlpha" result="shadowOffsetOuter1"/>
<feGaussianBlur in="shadowOffsetOuter1" result="shadowBlurOuter1" stdDeviation="0.5"/>
<feColorMatrix in="shadowBlurOuter1" values="0 0 0 0 0   0 0 0 0 0   0 0 0 0 0  0 0 0 0.1 0"/>
</filter>
<polygon id="av" points="813 29 914 29 925 41 820.92 41"/>
<filter id="eb" x="-1.8%" y="-8.3%" width="103.6%" height="133.3%">
<feOffset dx="0" dy="1" in="SourceAlpha" result="shadowOffsetOuter1"/>
<feGaussianBlur in="shadowOffsetOuter1" result="shadowBlurOuter1" stdDeviation="0.5"/>
<feColorMatrix in="shadowBlurOuter1" values="0 0 0 0 0   0 0 0 0 0   0 0 0 0 0  0 0 0 0.1 0"/>
</filter>
<polygon id="au" points="17.832 54 140.9 54 131 67 6 67"/>
<filter id="ea" x="-1.5%" y="-7.7%" width="103%" height="130.8%">
<feOffset dx="0" dy="1" in="SourceAlpha" result="shadowOffsetOuter1"/>
<feGaussianBlur in="shadowOffsetOuter1" result="shadowBlurOuter1" stdDeviation="0.5"/>
<feColorMatrix in="shadowBlurOuter1" values="0 0 0 0 0   0 0 0 0 0   0 0 0 0 0  0 0 0 0.1 0"/>
</filter>
<polygon id="as" points="145.26 54 204 54 196.6 67 137 67"/>
<filter id="dz" x="-3%" y="-7.7%" width="106%" height="130.8%">
<feOffset dx="0" dy="1" in="SourceAlpha" result="shadowOffsetOuter1"/>
<feGaussianBlur in="shadowOffsetOuter1" result="shadowBlurOuter1" stdDeviation="0.5"/>
<feColorMatrix in="shadowBlurOuter1" values="0 0 0 0 0   0 0 0 0 0   0 0 0 0 0  0 0 0 0.1 0"/>
</filter>
<polygon id="ar" points="209.26 54 283 54 278.6 67 202 67"/>
<filter id="dy" x="-2.5%" y="-7.7%" width="104.9%" height="130.8%">
<feOffset dx="0" dy="1" in="SourceAlpha" result="shadowOffsetOuter1"/>
<feGaussianBlur in="shadowOffsetOuter1" result="shadowBlurOuter1" stdDeviation="0.5"/>
<feColorMatrix in="shadowBlurOuter1" values="0 0 0 0 0   0 0 0 0 0   0 0 0 0 0  0 0 0 0.1 0"/>
</filter>
</defs>
<g fill="none" fill-rule="evenodd">
<g transform="translate(-111 -79)">
<g transform="translate(200 153)">
<use fill="black" filter="url(#dl)" xlink:href="#cb"/>
<path d="m131.5 563.5h801v-34.5-2.6e-4 -0.003634-506.99c0-11.321-9.1802-20.504-20.501-20.504h-760c-11.317 0-20.501 9.1825-20.501 20.504v506.99 0.001255 0.002639 34.5z" fill="url(#ce)" fill-rule="evenodd" stroke="url(#cd)" stroke-linejoin="square" stroke-width="3"/>
<use fill="black" filter="url(#da)" xlink:href="#aa"/>
<use fill="#F7F7F7" fill-rule="evenodd" xlink:href="#aa"/>
<path d="m3.4106e-13 688s14 4 27 4 991 1 1010 1 20-10 20-10-3 17-20 17c-15.228 0-989-1-1010-1s-27-11-27-11z" fill="#E0E0E0"/>
<rect x="420" y="692.5" width="250" height="7" fill="url(#cc)"/>
<use fill="#F2F2F2" fill-rule="evenodd" xlink:href="#k"/>
<use fill="black" filter="url(#ck)" xlink:href="#k"/>
<g transform="translate(54 559)">
<use fill="#F5F5F5" fill-rule="evenodd" xlink:href="#ca"/>
<use fill="black" filter="url(#fb)" xlink:href="#ca"/>
<use fill="black" filter="url(#eq)" xlink:href="#bp"/>
<use fill="#F0F0F0" fill-rule="evenodd" xlink:href="#bp"/>
<use fill="black" filter="url(#ef)" xlink:href="#be"/>
<use fill="#F0F0F0" fill-rule="evenodd" xlink:href="#be"/>
<use fill="black" filter="url(#dx)" xlink:href="#at"/>
<use fill="#F0F0F0" fill-rule="evenodd" xlink:href="#at"/>
<use fill="black" filter="url(#dw)" xlink:href="#aq"/>
<use fill="#F0F0F0" fill-rule="evenodd" xlink:href="#aq"/>
<use fill="black" filter="url(#dv)" xlink:href="#ap"/>
<use fill="#F0F0F0" fill-rule="evenodd" xlink:href="#ap"/>
<use fill="black" filter="url(#du)" xlink:href="#ao"/>
<use fill="#F0F0F0" fill-rule="evenodd" xlink:href="#ao"/>
<use fill="black" filter="url(#dt)" xlink:href="#an"/>
<use fill="#F0F0F0" fill-rule="evenodd" xlink:href="#an"/>
<use fill="black" filter="url(#ds)" xlink:href="#am"/>
<use fill="#F0F0F0" fill-rule="evenodd" xlink:href="#am"/>
<use fill="black" filter="url(#dr)" xlink:href="#al"/>
<use fill="#F0F0F0" fill-rule="evenodd" xlink:href="#al"/>
<use fill="black" filter="url(#dq)" xlink:href="#ak"/>
<use fill="#F0F0F0" fill-rule="evenodd" xlink:href="#ak"/>
<use fill="black" filter="url(#dp)" xlink:href="#aj"/>
<use fill="#F0F0F0" fill-rule="evenodd" xlink:href="#aj"/>
<use fill="black" filter="url(#do)" xlink:href="#ai"/>
<use fill="#F0F0F0" fill-rule="evenodd" xlink:href="#ai"/>
<use fill="black" filter="url(#dn)" xlink:href="#ah"/>
<use fill="#F0F0F0" fill-rule="evenodd" xlink:href="#ah"/>
<use fill="black" filter="url(#dm)" xlink:href="#ag"/>
<use fill="#F0F0F0" fill-rule="evenodd" xlink:href="#ag"/>
<use fill="black" filter="url(#dk)" xlink:href="#af"/>
<use fill="#F0F0F0" fill-rule="evenodd" xlink:href="#af"/>
<use fill="black" filter="url(#dj)" xlink:href="#ae"/>
<use fill="#F0F0F0" fill-rule="evenodd" xlink:href="#ae"/>
<use fill="black" filter="url(#di)" xlink:href="#ad"/>
<use fill="#F0F0F0" fill-rule="evenodd" xlink:href="#ad"/>
<use fill="black" filter="url(#dh)" xlink:href="#ac"/>
<use fill="#F0F0F0" fill-rule="evenodd" xlink:href="#ac"/>
<use fill="black" filter="url(#dg)" xlink:href="#ab"/>
<use fill="#F0F0F0" fill-rule="evenodd" xlink:href="#ab"/>
<use fill="black" filter="url(#df)" xlink:href="#z"/>
<use fill="#F0F0F0" fill-rule="evenodd" xlink:href="#z"/>
<use fill="black" filter="url(#de)" xlink:href="#y"/>
<use fill="#F0F0F0" fill-rule="evenodd" xlink:href="#y"/>
<use fill="black" filter="url(#dd)" xlink:href="#x"/>
<use fill="#F0F0F0" fill-rule="evenodd" xlink:href="#x"/>
<use fill="black" filter="url(#dc)" xlink:href="#w"/>
<use fill="#F0F0F0" fill-rule="evenodd" xlink:href="#w"/>
<use fill="black" filter="url(#db)" xlink:href="#v"/>
<use fill="#F0F0F0" fill-rule="evenodd" xlink:href="#v"/>
<use fill="black" filter="url(#cz)" xlink:href="#u"/>
<use fill="#F0F0F0" fill-rule="evenodd" xlink:href="#u"/>
<use fill="black" filter="url(#cy)" xlink:href="#t"/>
<use fill="#F0F0F0" fill-rule="evenodd" xlink:href="#t"/>
<use fill="black" filter="url(#cx)" xlink:href="#s"/>
<use fill="#F0F0F0" fill-rule="evenodd" xlink:href="#s"/>
<use fill="black" filter="url(#cw)" xlink:href="#r"/>
<use fill="#F0F0F0" fill-rule="evenodd" xlink:href="#r"/>
<use fill="black" filter="url(#cv)" xlink:href="#q"/>
<use fill="#F0F0F0" fill-rule="evenodd" xlink:href="#q"/>
<use fill="black" filter="url(#cu)" xlink:href="#p"/>
<use fill="#F0F0F0" fill-rule="evenodd" xlink:href="#p"/>
<use fill="black" filter="url(#ct)" xlink:href="#o"/>
<use fill="#F0F0F0" fill-rule="evenodd" xlink:href="#o"/>
<use fill="black" filter="url(#cs)" xlink:href="#n"/>
<use fill="#F0F0F0" fill-rule="evenodd" xlink:href="#n"/>
<use fill="black" filter="url(#cr)" xlink:href="#m"/>
<use fill="#F0F0F0" fill-rule="evenodd" xlink:href="#m"/>
<use fill="black" filter="url(#cq)" xlink:href="#l"/>
<use fill="#F0F0F0" fill-rule="evenodd" xlink:href="#l"/>
<use fill="black" filter="url(#cp)" xlink:href="#j"/>
<use fill="#F0F0F0" fill-rule="evenodd" xlink:href="#j"/>
<use fill="black" filter="url(#co)" xlink:href="#i"/>
<use fill="#F0F0F0" fill-rule="evenodd" xlink:href="#i"/>
<use fill="black" filter="url(#cn)" xlink:href="#h"/>
<use fill="#F0F0F0" fill-rule="evenodd" xlink:href="#h"/>
<use fill="black" filter="url(#cm)" xlink:href="#g"/>
<use fill="#F0F0F0" fill-rule="evenodd" xlink:href="#g"/>
<use fill="black" filter="url(#cl)" xlink:href="#f"/>
<use fill="#F0F0F0" fill-rule="evenodd" xlink:href="#f"/>
<use fill="black" filter="url(#cj)" xlink:href="#e"/>
<use fill="#F0F0F0" fill-rule="evenodd" xlink:href="#e"/>
<use fill="black" filter="url(#ci)" xlink:href="#d"/>
<use fill="#F0F0F0" fill-rule="evenodd" xlink:href="#d"/>
<use fill="black" filter="url(#ch)" xlink:href="#c"/>
<use fill="#F0F0F0" fill-rule="evenodd" xlink:href="#c"/>
<use fill="black" filter="url(#cg)" xlink:href="#b"/>
<use fill="#F0F0F0" fill-rule="evenodd" xlink:href="#b"/>
<use fill="black" filter="url(#cf)" xlink:href="#a"/>
<use fill="#F0F0F0" fill-rule="evenodd" xlink:href="#a"/>
<use fill="black" filter="url(#fg)" xlink:href="#bz"/>
<use fill="#F0F0F0" fill-rule="evenodd" xlink:href="#bz"/>
<use fill="black" filter="url(#ff)" xlink:href="#by"/>
<use fill="#F0F0F0" fill-rule="evenodd" xlink:href="#by"/>
<use fill="black" filter="url(#fe)" xlink:href="#bx"/>
<use fill="#F0F0F0" fill-rule="evenodd" xlink:href="#bx"/>
<use fill="black" filter="url(#fd)" xlink:href="#bw"/>
<use fill="#F0F0F0" fill-rule="evenodd" xlink:href="#bw"/>
<use fill="black" filter="url(#fc)" xlink:href="#bv"/>
<use fill="#F0F0F0" fill-rule="evenodd" xlink:href="#bv"/>
<use fill="black" filter="url(#fa)" xlink:href="#bu"/>
<use fill="#F0F0F0" fill-rule="evenodd" xlink:href="#bu"/>
<use fill="black" filter="url(#ez)" xlink:href="#bt"/>
<use fill="#F0F0F0" fill-rule="evenodd" xlink:href="#bt"/>
<use fill="black" filter="url(#ey)" xlink:href="#bs"/>
<use fill="#F0F0F0" fill-rule="evenodd" xlink:href="#bs"/>
<use fill="black" filter="url(#ex)" xlink:href="#br"/>
<use fill="#F0F0F0" fill-rule="evenodd" xlink:href="#br"/>
<use fill="black" filter="url(#ew)" xlink:href="#bq"/>
<use fill="#F0F0F0" fill-rule="evenodd" xlink:href="#bq"/>
<use fill="black" filter="url(#ev)" xlink:href="#bo"/>
<use fill="#F0F0F0" fill-rule="evenodd" xlink:href="#bo"/>
<use fill="black" filter="url(#eu)" xlink:href="#bn"/>
<use fill="#F0F0F0" fill-rule="evenodd" xlink:href="#bn"/>
<use fill="black" filter="url(#et)" xlink:href="#bm"/>
<use fill="#F0F0F0" fill-rule="evenodd" xlink:href="#bm"/>
<use fill="black" filter="url(#es)" xlink:href="#bl"/>
<use fill="#F0F0F0" fill-rule="evenodd" xlink:href="#bl"/>
<use fill="black" filter="url(#er)" xlink:href="#bk"/>
<use fill="#F0F0F0" fill-rule="evenodd" xlink:href="#bk"/>
<use fill="black" filter="url(#ep)" xlink:href="#bj"/>
<use fill="#F0F0F0" fill-rule="evenodd" xlink:href="#bj"/>
<use fill="black" filter="url(#eo)" xlink:href="#bi"/>
<use fill="#F0F0F0" fill-rule="evenodd" xlink:href="#bi"/>
<use fill="black" filter="url(#en)" xlink:href="#bh"/>
<use fill="#F0F0F0" fill-rule="evenodd" xlink:href="#bh"/>
<use fill="black" filter="url(#em)" xlink:href="#bg"/>
<use fill="#F0F0F0" fill-rule="evenodd" xlink:href="#bg"/>
<use fill="black" filter="url(#el)" xlink:href="#bf"/>
<use fill="#F0F0F0" fill-rule="evenodd" xlink:href="#bf"/>
<use fill="black" filter="url(#ek)" xlink:href="#bd"/>
<use fill="#F0F0F0" fill-rule="evenodd" xlink:href="#bd"/>
<use fill="black" filter="url(#ej)" xlink:href="#bc"/>
<use fill="#F0F0F0" fill-rule="evenodd" xlink:href="#bc"/>
<use fill="black" filter="url(#ei)" xlink:href="#bb"/>
<use fill="#F0F0F0" fill-rule="evenodd" xlink:href="#bb"/>
<use fill="black" filter="url(#eh)" xlink:href="#ba"/>
<use fill="#F0F0F0" fill-rule="evenodd" xlink:href="#ba"/>
<use fill="black" filter="url(#eg)" xlink:href="#az"/>
<use fill="#F0F0F0" fill-rule="evenodd" xlink:href="#az"/>
<use fill="black" filter="url(#ee)" xlink:href="#ay"/>
<use fill="#F0F0F0" fill-rule="evenodd" xlink:href="#ay"/>
<use fill="black" filter="url(#ed)" xlink:href="#ax"/>
<use fill="#F0F0F0" fill-rule="evenodd" xlink:href="#ax"/>
<use fill="black" filter="url(#ec)" xlink:href="#aw"/>
<use fill="#F0F0F0" fill-rule="evenodd" xlink:href="#aw"/>
<use fill="black" filter="url(#eb)" xlink:href="#av"/>
<use fill="#F0F0F0" fill-rule="evenodd" xlink:href="#av"/>
<use fill="black" filter="url(#ea)" xlink:href="#au"/>
<use fill="#F0F0F0" fill-rule="evenodd" xlink:href="#au"/>
<use fill="black" filter="url(#dz)" xlink:href="#as"/>
<use fill="#F0F0F0" fill-rule="evenodd" xlink:href="#as"/>
<use fill="black" filter="url(#dy)" xlink:href="#ar"/>
<use fill="#F0F0F0" fill-rule="evenodd" xlink:href="#ar"/>
</g>
<rect x="155" y="41" width="752" height="484" fill="#F7F7F7"/>
</g>
</g>
</g>
</svg>
