<svg data-name="Layer 1" viewBox="0 0 1367.9 538.42" xmlns="http://www.w3.org/2000/svg" xmlns:xlink="http://www.w3.org/1999/xlink"><defs><linearGradient id="a" x1="1761.3" x2="1410.8" y1="661.4" y2="510.52" gradientUnits="userSpaceOnUse"><stop stop-color="#f69163" offset="0"/><stop stop-color="#ef4c45" offset=".46"/><stop stop-color="#cc2039" offset=".7"/><stop stop-color="#811539" offset="1"/></linearGradient><linearGradient id="b" x1="1843.3" x2="1588.7" y1="628.34" y2="877.99" gradientUnits="userSpaceOnUse"><stop stop-color="#f69163" offset="0"/><stop stop-color="#ef4c45" offset=".42"/><stop stop-color="#cc2039" offset=".7"/><stop stop-color="#811539" offset="1"/></linearGradient><linearGradient id="c" x1="2044" x2="1692.6" y1="335.94" y2="827.93" xlink:href="#a"/><linearGradient id="d" x1="1320" x2="1815" y1="502.41" y2="502.41" gradientUnits="userSpaceOnUse"><stop stop-color="#f69163" offset="0"/><stop stop-color="#ef4c45" offset=".27"/><stop stop-color="#cc2039" offset=".7"/><stop stop-color="#811539" offset="1"/></linearGradient><linearGradient id="e" x1="1620.8" x2="2020" y1="389.92" y2="562.4" gradientUnits="userSpaceOnUse"><stop stop-color="#f69163" offset="0"/><stop stop-color="#ef4c45" offset=".27"/><stop stop-color="#e64142" offset=".42"/><stop stop-color="#d0253a" offset=".68"/><stop stop-color="#cc2039" offset=".71"/><stop stop-color="#811539" offset="1"/></linearGradient></defs><path transform="translate(-642.6 -341.25)" d="M1605.5 492.66l32.24 77.25-63.71 54.3 24.6-2 47.64-3.88c-21.08 21.63-59.42 40.57-104.14 44.84a143.57 143.57 0 0 1-15.64.4c-20.93-2.84-39.35-9.86-52.87-19-125.41-85.08 9.42-254.81 131.88-151.91z" fill="url(#a)" fill-rule="evenodd"/><path transform="translate(-642.6 -341.25)" d="M1829.1 795c-54.34 46.39-100.23 58.3-140.65 84.69-94-109.25-77.45-162.91-27.34-253.5l28.33 68.62c44.42 69.9 139.65 102.89 211.59 56.21-9.68 15.17-44.35 39.4-71.93 43.98z" fill="url(#b)" fill-rule="evenodd"/><path transform="translate(-642.6 -341.25)" d="M1907.8 714.5c-16 18.87-33.08 37.24-50.56 54.93-63.07 14.11-132-18.24-167.81-74.64l19.32-81.45 7.08-.55 76.39-5.92c131.28-.85 246.35-77 179.85-216.94 87.31 104.92 8.2 239.07-64.27 324.57z" fill="url(#c)" fill-rule="evenodd"/><path d="M1108.4 29.75c-22.73-7-35.28-8.92-59.09-11.41 28.76-1.87 52.79 1.09 79.19 4.95 72.41-20 175.77.95 216.43 68.78 28.64 124.11-94.21 174-195.32 173.54l-71.5-43.55c4.11-16.93 29.11-191.85 30.29-192.31z" fill="#c1c2c5" fill-rule="evenodd"/><path transform="translate(-642.6 -341.25)" d="M1693.18 404c19-14 36.61-23.34 57.84-33 66.27 28.9-21.78 120.48-71.65 163.31l-2.51 2.16-71.33-43.82c-122.46-102.9-257.29 66.83-131.87 151.89 13.52 9.16 31.94 16.18 52.87 19-2.39 0-7.66-.23-11.39-.67-140.68-16.5-187.66-200.1-71-285.91 70.86-52.12 183.39-50.56 249.04 27.04z" fill="url(#d)" fill-rule="evenodd"/><path transform="translate(-642.6 -341.25)" d="M1751 371c-22.73-7-35.28-8.92-59.09-11.41 28.76-1.87 52.79 1.09 79.19 4.95 72.41-20 175.77.95 216.43 68.78 28.64 124.11-94.21 174-195.32 173.54l-71.5-43.55c1.76-7.29 7.38-43.77 13.31-83 36.41-42.22 61.5-89.89 16.98-109.31z" fill="url(#e)" fill-rule="evenodd"/><path d="M63.75 294.5v18.15H3.45V294.5h20.7v-69.3a18.4 18.4 0 0 1-4 4 53.83 53.83 0 0 1-6.3 4.2 47 47 0 0 1-7.2 3.38 19.58 19.58 0 0 1-6.68 1.35v-18.6a17.86 17.86 0 0 0 8.25-2.18 56.14 56.14 0 0 0 7.73-4.8 53.9 53.9 0 0 0 5.77-4.87 26.54 26.54 0 0 0 2.4-2.55H44.7v89.4zm54 19.65a40.22 40.22 0 0 1-20-5.18 47.7 47.7 0 0 1-14.48-12.9 57 57 0 0 1-8.77-17.4 62.93 62.93 0 0 1-2.93-18.52 60.41 60.41 0 0 1 3.23-19.28 57.81 57.81 0 0 1 9.22-17.4 48 48 0 0 1 14.55-12.52 41.24 41.24 0 0 1 39.3.37 48.88 48.88 0 0 1 14.53 13.13 58 58 0 0 1 8.78 17.47 62.07 62.07 0 0 1 2.92 18.23 60.68 60.68 0 0 1-3.22 19.35 58.46 58.46 0 0 1-9.23 17.32 48 48 0 0 1-14.55 12.53 38.84 38.84 0 0 1-19.35 4.8zm-25.35-54a57.46 57.46 0 0 0 1.73 12.6 42.46 42.46 0 0 0 4.65 11.47 26.11 26.11 0 0 0 7.8 8.4 21 21 0 0 0 22.72-.22 27.87 27.87 0 0 0 7.88-8.78 43.52 43.52 0 0 0 4.57-11.55 50.86 50.86 0 0 0 1.5-11.92 49.55 49.55 0 0 0-1.65-12.6 42.8 42.8 0 0 0-4.8-11.48 26.66 26.66 0 0 0-7.95-8.4 19.43 19.43 0 0 0-11.1-3.22 19 19 0 0 0-11.4 3.45 27.57 27.57 0 0 0-7.87 8.77 42.75 42.75 0 0 0-4.58 11.63 51.27 51.27 0 0 0-1.5 11.85zm210.9 25.05a24.13 24.13 0 0 1-10.13 20.4 34.76 34.76 0 0 1-10.95 5.25 47.54 47.54 0 0 1-13.27 1.8H217.5v-106.5h57a21 21 0 0 1 10 2.4 25.08 25.08 0 0 1 7.7 6.2 28.52 28.52 0 0 1 4.87 8.7 29.31 29.31 0 0 1 1.73 9.83 29 29 0 0 1-3.9 14.62 23.76 23.76 0 0 1-11.4 10.13 27.36 27.36 0 0 1 14.47 9.72q5.33 6.94 5.33 17.45zm-65.1-61.35v26.9h27.6a12.27 12.27 0 0 0 8.92-3.6q3.67-3.6 3.68-9.9t-3.38-9.75a11 11 0 0 0-8.32-3.6zm44.25 57.45a15.63 15.63 0 0 0-1-5.48 15.17 15.17 0 0 0-2.62-4.57 12.24 12.24 0 0 0-3.9-3.08 10.91 10.91 0 0 0-4.95-1.12H238.2v28.05h30.75a13.47 13.47 0 0 0 5.32-1.05 12.8 12.8 0 0 0 4.28-2.93 14.22 14.22 0 0 0 3.9-9.82zM354 314.15a43.62 43.62 0 0 1-17.1-3.23 38.57 38.57 0 0 1-21.38-21.67 41.4 41.4 0 0 1-2.92-15.45 43.81 43.81 0 0 1 2.85-15.83 38.62 38.62 0 0 1 8.25-13.05 39.35 39.35 0 0 1 13.12-8.92 43.71 43.71 0 0 1 17.33-3.3 42.58 42.58 0 0 1 17.17 3.3 39.49 39.49 0 0 1 12.9 8.85 37.61 37.61 0 0 1 8.1 12.9 43 43 0 0 1 2.78 15.3c0 1.3 0 2.55-.08 3.75a15.3 15.3 0 0 1-.37 3H333.9a23.32 23.32 0 0 0 2.25 8.25 20.21 20.21 0 0 0 11.1 10.05 21.19 21.19 0 0 0 7.5 1.35 23.16 23.16 0 0 0 11.32-2.93 15.49 15.49 0 0 0 7.28-7.72l17.25 4.8a35.07 35.07 0 0 1-13.88 14.77q-9.52 5.78-22.72 5.78zm20.4-47.4q-.75-8.85-6.53-14.18a20.45 20.45 0 0 0-27.82.08 20.62 20.62 0 0 0-4.43 6.15 21.67 21.67 0 0 0-2 8zm62.7 47.4a60.8 60.8 0 0 1-19.35-3.15 47.19 47.19 0 0 1-16.2-9l7.5-12.6a64.56 64.56 0 0 0 14 7.72 37.63 37.63 0 0 0 13.58 2.63q6 0 9.45-2.25a7.25 7.25 0 0 0 3.45-6.45 6.44 6.44 0 0 0-4.05-6.15 87.45 87.45 0 0 0-13.2-4.5q-7.65-2.1-13.05-4a33.33 33.33 0 0 1-8.7-4.43 15 15 0 0 1-4.8-5.7 18.17 18.17 0 0 1-1.5-7.72 24.45 24.45 0 0 1 2.32-10.8 23.56 23.56 0 0 1 6.53-8.18 30.17 30.17 0 0 1 9.82-5.17 39.9 39.9 0 0 1 12.23-1.8 52.53 52.53 0 0 1 16.57 2.55 40.42 40.42 0 0 1 14.18 8.25l-8.1 12.15a47.09 47.09 0 0 0-11.63-6.6 31.79 31.79 0 0 0-11.17-2.1 16.17 16.17 0 0 0-8.55 2.1q-3.45 2.1-3.45 6.75a6.53 6.53 0 0 0 .82 3.45 7.29 7.29 0 0 0 2.63 2.4 25.58 25.58 0 0 0 4.72 2q2.93 1 7.28 2 8.1 2.1 13.87 4.2a37.77 37.77 0 0 1 9.45 4.8 17.08 17.08 0 0 1 5.4 6.22 19.14 19.14 0 0 1 1.73 8.48q0 11.55-8.55 18.22t-23.23 6.68zm91.9-5.55a89.7 89.7 0 0 1-9.9 3.6 41.64 41.64 0 0 1-12.3 1.8 28.92 28.92 0 0 1-7.88-1 17.33 17.33 0 0 1-6.45-3.38 16.36 16.36 0 0 1-4.42-6 21.53 21.53 0 0 1-1.65-8.92v-45.2h-10.35v-15.45h10.35v-25.5h20.1v25.5H523v15.45h-16.5v38.4q0 4.2 2.17 5.92a8.32 8.32 0 0 0 5.33 1.73 18.53 18.53 0 0 0 6.15-1c2-.7 3.6-1.3 4.8-1.8zm45 5.55a43.62 43.62 0 0 1-17.1-3.23 38.57 38.57 0 0 1-21.38-21.67 41.4 41.4 0 0 1-2.92-15.45 43.81 43.81 0 0 1 2.85-15.83 38.47 38.47 0 0 1 8.25-13.05 39.35 39.35 0 0 1 13.12-8.92 43.71 43.71 0 0 1 17.33-3.3 42.61 42.61 0 0 1 17.17 3.3 39.49 39.49 0 0 1 12.9 8.85 37.61 37.61 0 0 1 8.13 12.9 43 43 0 0 1 2.78 15.3c0 1.3 0 2.55-.08 3.75a15.3 15.3 0 0 1-.37 3h-60.75a23.32 23.32 0 0 0 2.25 8.25 20.21 20.21 0 0 0 11.1 10.05 21.15 21.15 0 0 0 7.5 1.35 23.18 23.18 0 0 0 11.32-2.93 15.49 15.49 0 0 0 7.28-7.72l17.25 4.8a35.13 35.13 0 0 1-13.88 14.77q-9.55 5.78-22.75 5.78zm20.4-47.4q-.77-8.85-6.53-14.18a20.45 20.45 0 0 0-27.82.08 20.62 20.62 0 0 0-4.43 6.15 21.67 21.67 0 0 0-2 8zm106.1 45.9h-20.1v-44.1c0-6.3-1.11-10.9-3.3-13.8a10.84 10.84 0 0 0-9.15-4.35 17.17 17.17 0 0 0-6.15 1.2 22.64 22.64 0 0 0-5.93 3.37 27.46 27.46 0 0 0-5 5.18 20.26 20.26 0 0 0-3.3 6.6v45.9h-20.1v-78.6h18.15v14.55a29.66 29.66 0 0 1 12.6-11.7 40.38 40.38 0 0 1 18.6-4.2q7.33 0 12 2.7a19.65 19.65 0 0 1 7.2 7.05 29.7 29.7 0 0 1 3.52 9.9 64.9 64.9 0 0 1 1 11.25zm-694.95 139v-106.5H43.4q12.9 0 22.58 4.2a46.5 46.5 0 0 1 16.2 11.4A47.74 47.74 0 0 1 92 377.62a63.49 63.49 0 0 1 3.3 20.63 62.31 62.31 0 0 1-3.67 22 48.14 48.14 0 0 1-10.43 16.8 46.23 46.23 0 0 1-16.35 10.8 57.5 57.5 0 0 1-21.45 3.8zm72.6-53.4a49.09 49.09 0 0 0-2.32-15.45A33.66 33.66 0 0 0 69 370.75a31.66 31.66 0 0 0-11-7.87 36 36 0 0 0-14.7-2.85H22.4v76.8h21a36.16 36.16 0 0 0 14.93-2.93 30.71 30.71 0 0 0 11-8.1A35 35 0 0 0 76 413.58a50.07 50.07 0 0 0 2.15-15.33zm53.55 54.9a29.24 29.24 0 0 1-10.58-1.88 25.4 25.4 0 0 1-8.39-5.17 24 24 0 0 1-5.56-7.8 23.48 23.48 0 0 1-2-9.75 21 21 0 0 1 2.4-10 23.47 23.47 0 0 1 6.83-7.8 33.13 33.13 0 0 1 10.5-5.1 47.17 47.17 0 0 1 13.43-1.8 61.5 61.5 0 0 1 11 1 55.14 55.14 0 0 1 9.75 2.63v-5.4q0-8.7-5-13.58t-14.28-4.95a34.42 34.42 0 0 0-12.4 2.32 62.61 62.61 0 0 0-12.52 6.68l-5.1-10.5q15.15-10.2 31.5-10.2t25.2 8.25q9 8.25 9 23.7v28.35q0 5.25 4.35 5.4v14.1c-1.6.3-3 .49-4.12.6s-2.28.15-3.38.15q-4.8 0-7.43-2.4a10.26 10.26 0 0 1-3.22-6.15l-.45-5a35 35 0 0 1-13 10.57 38.15 38.15 0 0 1-16.53 3.73zm4.5-12.15a29.64 29.64 0 0 0 11.32-2.18 19.53 19.53 0 0 0 8.33-6.07q3.15-2.7 3.15-5.7v-10.3a49.69 49.69 0 0 0-8.93-2.55 49.2 49.2 0 0 0-9.22-.9q-8.85 0-14.48 3.82a11.72 11.72 0 0 0-5.62 10.13 12.77 12.77 0 0 0 4.35 9.82 15.82 15.82 0 0 0 11.1 3.93zm102.3 6.6a82.86 82.86 0 0 1-8.7 3.37 36.78 36.78 0 0 1-11.85 1.88 25.45 25.45 0 0 1-7.35-1.05 18 18 0 0 1-6.08-3.15 14.31 14.31 0 0 1-4.12-5.48 20 20 0 0 1-1.5-8.17v-49h-10.35v-12.8h10.35v-25.8h16.5v25.8h17.1v12.75h-17.1v43.8q.3 4.2 2.62 6.07a8.92 8.92 0 0 0 5.78 1.93 18.38 18.38 0 0 0 6.6-1.2q3.15-1.2 4.65-2zm11.4-87.3v-18.15h16.5v18.15zm0 91.35V373.2h16.5v78.45zm106.65 0h-16.5v-43.9q0-11.1-3.53-16.13t-10.42-5a20.38 20.38 0 0 0-7.2 1.35 25.2 25.2 0 0 0-6.75 3.82 29.82 29.82 0 0 0-5.63 5.85 26.82 26.82 0 0 0-3.82 7.43v46.58h-16.5V373.2h15v15.75a31.88 31.88 0 0 1 13.05-12.53 39.42 39.42 0 0 1 18.9-4.57c4.69 0 8.55.85 11.55 2.55a19.05 19.05 0 0 1 7.12 7 30.74 30.74 0 0 1 3.68 10.2 69.28 69.28 0 0 1 1 12.23zm50.25.75a32.7 32.7 0 0 1-14.55-3.23 34.71 34.71 0 0 1-11.32-8.77 41.29 41.29 0 0 1-7.35-12.75 43.89 43.89 0 0 1-2.63-15.15 46 46 0 0 1 2.7-15.83 40.16 40.16 0 0 1 7.5-12.9 35.82 35.82 0 0 1 11.48-8.7 33.49 33.49 0 0 1 14.78-3.22 30.39 30.39 0 0 1 16.58 4.5 38.09 38.09 0 0 1 11.77 11.7V373.2h14.55v76.2a34.8 34.8 0 0 1-3.15 15.15 32 32 0 0 1-8.75 11.2 39.76 39.76 0 0 1-13.28 7 55.16 55.16 0 0 1-16.5 2.4q-13.05 0-21.67-4.43a41.12 41.12 0 0 1-14.55-12.42l9.3-8.7a29 29 0 0 0 11.63 9.6 35.91 35.91 0 0 0 15.22 3.3 34.05 34.05 0 0 0 9.68-1.35 22.53 22.53 0 0 0 8-4.2 20.47 20.47 0 0 0 5.48-7.2 24.41 24.41 0 0 0 2-10.35v-12a28.69 28.69 0 0 1-11.55 11.1 32.51 32.51 0 0 1-15.37 3.9zm5.4-13.35a20.61 20.61 0 0 0 7.21-1.3 25.39 25.39 0 0 0 6.38-3.45 24.81 24.81 0 0 0 5-5 17.91 17.91 0 0 0 3-5.92V402.9a27.85 27.85 0 0 0-3.9-6.83 27.54 27.54 0 0 0-5.48-5.32 26.72 26.72 0 0 0-6.53-3.53 20.47 20.47 0 0 0-16.57 1 23.31 23.31 0 0 0-7.28 6.15 29.31 29.31 0 0 0-4.65 8.63 30.25 30.25 0 0 0-1.65 9.9 27.17 27.17 0 0 0 1.88 10.12 25.92 25.92 0 0 0 5.17 8.25 25.43 25.43 0 0 0 7.73 5.63 22.25 22.25 0 0 0 9.69 2.15zm160.04-68.85a23 23 0 0 0-4.35-3.53 43.45 43.45 0 0 0-6.67-3.52 48.67 48.67 0 0 0-8.4-2.7 41.82 41.82 0 0 0-9.38-1.05q-10.65 0-15.67 3.9a12.91 12.91 0 0 0-5 10.8 11.68 11.68 0 0 0 1.58 6.37 13.49 13.49 0 0 0 4.87 4.35 38.21 38.21 0 0 0 8.25 3.3q4.95 1.43 11.55 3.08a132.17 132.17 0 0 1 14.63 4.35 41.59 41.59 0 0 1 11 5.85 23.81 23.81 0 0 1 7 8.47 27.49 27.49 0 0 1 2.47 12.23 29.61 29.61 0 0 1-3.07 13.95 26.17 26.17 0 0 1-8.4 9.52 37.1 37.1 0 0 1-12.38 5.4 63.61 63.61 0 0 1-15.15 1.73 75.55 75.55 0 0 1-23.47-3.68 67.31 67.31 0 0 1-20.48-10.72l7.65-14.4a35.84 35.84 0 0 0 5.63 4.35 52.38 52.38 0 0 0 8.55 4.42 74.85 74.85 0 0 0 10.57 3.45 48.68 48.68 0 0 0 11.83 1.43q9.9 0 15.3-3.45a11.33 11.33 0 0 0 5.4-10.2 10.93 10.93 0 0 0-2-6.75 17.41 17.41 0 0 0-5.78-4.73 50.37 50.37 0 0 0-9.15-3.67q-5.4-1.65-12.3-3.45a127.23 127.23 0 0 1-13.87-4.43 34.75 34.75 0 0 1-9.83-5.62 22.08 22.08 0 0 1-5.92-7.73 25.63 25.63 0 0 1-2-10.72 31 31 0 0 1 3-13.88 29.67 29.67 0 0 1 8.15-10.17 35.71 35.71 0 0 1 12.22-6.22 53.38 53.38 0 0 1 15.3-2.1 56.11 56.11 0 0 1 20 3.45 66 66 0 0 1 16 8.55zm62.1 82.95a41.73 41.73 0 0 1-16.65-3.23 38.61 38.61 0 0 1-12.82-8.77 39.56 39.56 0 0 1-8.25-12.9 41.8 41.8 0 0 1-2.93-15.6 42.41 42.41 0 0 1 2.93-15.68 40.23 40.23 0 0 1 8.25-13.05 38.09 38.09 0 0 1 12.82-8.85 42.12 42.12 0 0 1 16.8-3.22 40.4 40.4 0 0 1 16.58 3.3 39.6 39.6 0 0 1 12.67 8.77 37.71 37.71 0 0 1 8 12.75 42.38 42.38 0 0 1 2.77 15.23c0 1.2-.05 2.32-.15 3.37s-.2 1.93-.3 2.63h-62.85a26.86 26.86 0 0 0 2.48 9.45 24.85 24.85 0 0 0 5.25 7.27 23 23 0 0 0 16 6.38 26.27 26.27 0 0 0 6.53-.83 23 23 0 0 0 5.93-2.42 21 21 0 0 0 4.8-3.82 17.85 17.85 0 0 0 3.3-5l14.1 4a32.73 32.73 0 0 1-13.42 14.47 41.62 41.62 0 0 1-21.84 5.75zm23.85-46.65a26.38 26.38 0 0 0-2.47-9.15 23.6 23.6 0 0 0-5.18-7.13 23.08 23.08 0 0 0-7.35-4.57 24 24 0 0 0-8.85-1.65 23.52 23.52 0 0 0-16 6.22 22.57 22.57 0 0 0-5.1 7.13 27.46 27.46 0 0 0-2.4 9.15zM688 360.3v-18.15h16.5v18.15zm0 91.35V373.2h16.5v78.45zm80-4.05a82.86 82.86 0 0 1-8.7 3.37 36.78 36.78 0 0 1-11.89 1.88 25.45 25.45 0 0 1-7.35-1.05 18 18 0 0 1-6.08-3.15 14.31 14.31 0 0 1-4.12-5.48 20 20 0 0 1-1.5-8.17v-49h-10.35v-12.8h10.4v-25.8h16.5v25.8h17.1v12.75h-17.1v43.8q.3 4.2 2.62 6.07a8.92 8.92 0 0 0 5.78 1.88 18.38 18.38 0 0 0 6.6-1.2q3.15-1.2 4.65-2zm45 5.55a41.73 41.73 0 0 1-16.65-3.23 38.76 38.76 0 0 1-12.83-8.77 39.56 39.56 0 0 1-8.25-12.9 41.8 41.8 0 0 1-2.92-15.6 42.4 42.4 0 0 1 2.92-15.68 40.23 40.23 0 0 1 8.25-13.05 38.23 38.23 0 0 1 12.83-8.85 42.12 42.12 0 0 1 16.8-3.22 40.35 40.35 0 0 1 16.57 3.3 39.64 39.64 0 0 1 12.68 8.77 37.53 37.53 0 0 1 8 12.75 42.39 42.39 0 0 1 2.78 15.23c0 1.2 0 2.32-.15 3.37s-.2 1.93-.3 2.63h-62.85a26.86 26.86 0 0 0 2.47 9.45 24.85 24.85 0 0 0 5.25 7.27 23 23 0 0 0 16 6.38 26.19 26.19 0 0 0 6.52-.83 23 23 0 0 0 5.93-2.4 21 21 0 0 0 4.8-3.82 17.85 17.85 0 0 0 3.3-5l14.1 4a32.69 32.69 0 0 1-13.43 14.47 41.58 41.58 0 0 1-21.82 5.73zm23.85-46.65a26.39 26.39 0 0 0-2.48-9.15 23.57 23.57 0 0 0-5.17-7.13 23.08 23.08 0 0 0-7.35-4.57A24 24 0 0 0 813 384a23.47 23.47 0 0 0-16 6.22 22.57 22.57 0 0 0-5.1 7.13 27.46 27.46 0 0 0-2.4 9.15zm100.19 45.15h-16.5v-43.9q0-11.1-3.53-16.13t-10.42-5a20.38 20.38 0 0 0-7.2 1.35 25.2 25.2 0 0 0-6.75 3.82 29.82 29.82 0 0 0-5.63 5.85 26.82 26.82 0 0 0-3.82 7.43v46.58h-16.5V373.2h15v15.75a31.88 31.88 0 0 1 13-12.53 39.42 39.42 0 0 1 18.9-4.57c4.69 0 8.55.85 11.55 2.55a19.05 19.05 0 0 1 7.12 7 30.74 30.74 0 0 1 3.68 10.2 69.28 69.28 0 0 1 1.05 12.23z"/></svg>