<?xml version="1.0" encoding="UTF-8"?>
<svg version="1.1" viewBox="0 0 92px 184px" xmlns="http://www.w3.org/2000/svg">
<defs>
<linearGradient id="d" x1="10.856%" x2="89.147%" y1="101.73%" y2="-1.7358%">
<stop stop-color="#808080" stop-opacity=".25" offset="0"/>
<stop stop-color="#808080" stop-opacity=".12" offset=".54"/>
<stop stop-color="#808080" stop-opacity=".1" offset="1"/>
</linearGradient>
<linearGradient id="c" x1="49.997%" x2="49.997%" y1="100.03%" y2=".022772%">
<stop stop-color="#808080" stop-opacity=".25" offset="0"/>
<stop stop-color="#808080" stop-opacity=".12" offset=".54"/>
<stop stop-color="#808080" stop-opacity=".1" offset="1"/>
</linearGradient>
<linearGradient id="b" x1="49.997%" x2="49.997%" y1="99.985%" y2=".022763%">
<stop stop-color="#808080" stop-opacity=".25" offset="0"/>
<stop stop-color="#808080" stop-opacity=".12" offset=".54"/>
<stop stop-color="#808080" stop-opacity=".1" offset="1"/>
</linearGradient>
<linearGradient id="a" x1="50%" x2="50%" y1="100%">
<stop stop-color="#808080" stop-opacity=".25" offset="0"/>
<stop stop-color="#808080" stop-opacity=".12" offset=".54"/>
<stop stop-color="#808080" stop-opacity=".1" offset="1"/>
</linearGradient>
</defs>
<g fill="none" fill-rule="evenodd">
<g transform="translate(-1142 -148)" fill-rule="nonzero">
<g transform="translate(1142 148)">
<g transform="translate(55 12)" fill="url(#d)" opacity=".5">
<path d="m96.723 0.27483l-92.769 0.22486c-1.0113 0.0022055-1.9802 0.40423-2.6935 1.1176-0.71325 0.71332-1.1123 1.6795-1.1094 2.6857l0.4213 172.64c0.0022166 1.0062 0.40627 1.9703 1.1232 2.68 0.71692 0.70968 1.6879 1.1068 2.6992 1.1038l92.769-0.22486c1.0118-0.002204 1.9811-0.40461 2.6945-1.1185 0.71333-0.71392 1.1121-1.6808 1.1084-2.6875l-0.4213-172.64c-0.002956-1.0057-0.40733-1.9691-1.1242-2.6782-0.71684-0.70908-1.6874-1.1058-2.6982-1.1028z"/>
</g>
<rect transform="translate(106 102) rotate(-.14) translate(-106 -102)" x="57" y="14" width="98" height="176" rx="13.64" fill="#fff"/>
<path d="m129.77 19.042c-0.5728 3.8485-3.8726 6.7049-7.7713 6.7271l-33.672 0.080581c-3.8955-0.0069617-7.2048-2.8459-7.7964-6.6882l-17.834 0.044458c-0.98218 0.0022084-1.9232 0.39369-2.6162 1.0883-0.69294 0.69463-1.081 1.6355-1.0788 2.6156l0.38704 159.4c0.0022121 0.98062 0.39489 1.9202 1.0916 2.6117 0.69667 0.69158 1.6402 1.0785 2.6229 1.0755l85.204-0.20562c0.98218-0.002209 1.9232-0.39369 2.6162-1.0883 0.69294-0.69462 1.081-1.6355 1.0788-2.6156l-0.38704-159.4c-0.002213-0.98014-0.3945-1.9193-1.0906-2.6108-0.69607-0.6915-1.6389-1.0787-2.6211-1.0765l-18.132 0.04168z" fill="#B3B3B3" opacity=".4"/>
<rect transform="translate(104 22) rotate(-.86) translate(-104 -22)" x="93" y="21" width="22" height="2" rx="1" fill="#DBDBDB"/>
<circle transform="translate(120 22) rotate(-.86) translate(-120 -22)" cx="120" cy="22" r="1" fill="#DBDBDB"/>
<g transform="translate(62 113)" fill="url(#c)" opacity=".5">
<path d="m55.738 27.896c0.0047432-13.196-9.3537-24.56-22.358-27.15-13.004-2.5897-26.038 4.3154-31.137 16.497-5.0997 12.181-0.84761 26.251 10.159 33.613l0.016884 0.1232c0.90862 0.86633 1.9808 1.5449 3.1546 1.9964l0.036583-0.1232c1.3029 1.12 6.7875 2.8924 13.088 2.8756h0.13789c3.9904 0 8.324-0.7 12.134-2.7524 0 0 0.033769-0.0728 0.084422-0.21 0.96515-0.45116 1.8508-1.0544 2.6227-1.7864 0.015008-0.1064 0.030017-0.21093 0.045025-0.3136 7.5253-5.1615 12.018-13.675 12.016-22.77z"/>
</g>
<circle cx="88.5" cy="140.5" r="26.5" fill="#F5F5F5"/>
<path d="m79.042 151s-6.4653 0.51914-4.7535 12.073c0.88525 0.83546 1.9306 1.4903 3.0756 1.9266l3.6359-12.073-1.958-1.9266z" fill="#FDA57D"/>
<path d="m99.958 151s6.4653 0.51914 4.7535 12.073c-0.88526 0.83546-1.9306 1.4903-3.0756 1.9266l-3.6359-12.079 1.958-1.9211z" fill="#FDA57D"/>
<circle cx="89.5" cy="130.5" r="11.5" fill="#333"/>
<path d="m100.32 151h-20.927l-1.9535 8.41s-1.1461 3.8931 0.2823 5.6057c1.4284 1.7126 14.759 5.6057 24.56 0.28355 0.85491-2.2415 0.95408-4.7029 0.2823-7.0064-1.1292-3.9243-0.2823-0.28355-0.2823-0.28355l-1.962-7.0093z" fill="#000" opacity=".1"/>
<path d="m100.32 151h-20.93l-1.9535 8.41s-1.1461 3.8931 0.2823 5.6057c1.4284 1.7126 14.759 5.6057 24.56 0.28355 0.85491-2.2415 0.95408-4.7029 0.2823-7.0064-1.1292-3.9243-0.2823-0.28355-0.2823-0.28355l-1.9592-7.0093z" fill="#000" opacity=".1"/>
<path d="m100.32 151h-20.93l-1.9535 8.41s-1.1461 3.8931 0.2823 5.6057c1.4284 1.7126 14.759 5.6057 24.56 0.28355 0.85491-2.2415 0.95408-4.7029 0.2823-7.0064-1.1292-3.9243-0.2823-0.28355-0.2823-0.28355l-1.9592-7.0093z" fill="#3C67A7"/>
<path d="m85.005 144h7.9946v7.4449c0 0.67766-0.27953 1.3276-0.7771 1.8067-0.49757 0.47918-1.1724 0.74838-1.8761 0.74838h-2.6936c-1.4653 0-2.6532-1.144-2.6532-2.5551v-7.4449h0.0053872z" fill="#000" opacity=".1"/>
<path d="m85.005 144h7.9946v7.4449c0 0.67766-0.27953 1.3276-0.7771 1.8067-0.49757 0.47918-1.1724 0.74838-1.8761 0.74838h-2.6936c-1.4653 0-2.6532-1.144-2.6532-2.5551v-7.4449h0.0053872z" fill="#FDA57D"/>
<path d="m86 145.14c2.5783 1.1412 5.4165 1.1502 8 0.025561v-1.163h-8v1.1375z" fill="#000" opacity=".1"/>
<circle cx="89.5" cy="133.5" r="11.5" fill="#FDA57D"/>
<path d="m79 130h23s-1.9635-9.5839-10.657-8.9719c-8.6938 0.61199-12.343 8.9719-12.343 8.9719z" fill="#333"/>
<ellipse cx="78" cy="133" rx="1" ry="2" fill="#FDA57D"/>
<ellipse cx="101" cy="133" rx="1" ry="2" fill="#FDA57D"/>
<path d="m79 130h23s-1.9635-9.5839-10.657-8.9719c-8.6938 0.61199-12.343 8.9719-12.343 8.9719z" fill="#000" opacity=".1"/>
<g transform="translate(94 40)" fill="url(#b)" opacity=".5">
<path d="m0.26452 27.958c-0.0047433-13.196 9.3537-24.56 22.358-27.15 13.004-2.5897 26.038 4.3154 31.137 16.497 5.0997 12.181 0.84761 26.251-10.159 33.613l-0.016884 0.1232c-0.90662 0.87436-1.9789 1.5606-3.1546 2.0188l-0.036583-0.1232c-1.3029 1.12-6.7875 2.8924-13.088 2.8756h-0.13789c-3.9904 0-8.324-0.7-12.134-2.7524 0 0-0.033769-0.0728-0.084422-0.21-0.96515-0.45116-1.8508-1.0544-2.6227-1.7864-0.015008-0.1064-0.030017-0.21093-0.045025-0.3136-7.5319-5.166-12.026-13.69-12.016-22.792z"/>
</g>
<circle cx="122.5" cy="67.5" r="26.5" fill="#F5F5F5"/>
<path d="m112.04 78s-6.4653 0.51934-4.7535 12.078c0.88576 0.8338 1.9311 1.487 3.0756 1.9218l3.6359-12.078-1.958-1.9218z" fill="#BE7C5E"/>
<path d="m131.96 78s6.4653 0.51934 4.7535 12.078c-0.88576 0.8338-1.9311 1.487-3.0756 1.9218l-3.6359-12.078 1.958-1.9218z" fill="#BE7C5E"/>
<path d="m111.72 59.013s-0.48785 1.3768-1.1781 2.9579c-1.5079 3.4957 0.21344 16.863 3.8197 18.285 4.047 1.6134 9.369 2.6244 14.899 0.66956 4.8037-1.6994 6.2867-16.941 2.8883-20.638-0.39915-0.43561-0.81494-0.86854-1.2501-1.288l-19.179 0.013445z" fill="#333"/>
<circle cx="121.5" cy="57.5" r="11.5" fill="#333"/>
<path d="m132.32 78h-20.93l-1.9535 8.41s-1.1461 3.8931 0.2823 5.6057c1.4284 1.7126 14.759 5.6057 24.56 0.28355 0.85491-2.2415 0.95408-4.7029 0.2823-7.0064-1.1292-3.9243-0.2823-0.28355-0.2823-0.28355l-1.9592-7.0093z" fill="#000" opacity=".1"/>
<path d="m132.32 78h-20.93l-1.9535 8.41s-1.1461 3.8931 0.2823 5.6057c1.4284 1.7126 14.759 5.6057 24.56 0.28355 0.85491-2.2415 0.95408-4.7029 0.2823-7.0064-1.1292-3.9243-0.2823-0.28355-0.2823-0.28355l-1.9592-7.0093z" fill="#000" opacity=".1"/>
<path d="m132.32 78h-20.927l-1.9535 8.41s-1.1461 3.8931 0.2823 5.6057c1.4284 1.7126 14.759 5.6057 24.56 0.28355 0.85491-2.2415 0.95408-4.7029 0.2823-7.0064-1.1292-3.9243-0.2823-0.28355-0.2823-0.28355l-1.962-7.0093z" fill="#B70016"/>
<path d="m118.01 71h7.9892v7.4449c0 1.4112-1.1879 2.5551-2.6532 2.5551h-2.6936c-1.4653 0-2.6532-1.144-2.6532-2.5551v-7.4449h0.010774z" fill="#000" opacity=".1"/>
<path d="m118.01 71h7.9892v7.4449c0 1.4112-1.1879 2.5551-2.6532 2.5551h-2.6936c-0.70367 0-1.3785-0.2692-1.8761-0.74838-0.49757-0.47918-0.7771-1.1291-0.7771-1.8067v-7.4449h0.010774z" fill="#BE7C5E"/>
<path d="m118 72.137c2.5783 1.1412 5.4165 1.1502 8 0.025561v-1.163h-8v1.1375z" fill="#000" opacity=".1"/>
<circle cx="121.5" cy="60.5" r="11.5" fill="#BE7C5E"/>
<path d="m111 57h23s-1.9635-9.5839-10.657-8.9719-12.343 8.9719-12.343 8.9719z" fill="#333"/>
<ellipse cx="110" cy="60" rx="1" ry="2" fill="#BE7C5E"/>
<ellipse cx="134" cy="60" rx="1" ry="2" fill="#BE7C5E"/>
<path d="m111 57h23s-1.9635-9.5839-10.657-8.9719-12.343 8.9719-12.343 8.9719z" fill="#000" opacity=".1"/>
<g transform="translate(0 43)" fill="url(#a)" opacity=".5">
<path d="m0 0.030919v40.116h62.799s4.636 9.1829 12.607 11.853c0 0-2.5442-6.5042 0.11171-11.853h17.483v-40.116h-93z"/>
</g>
<path d="m2 45v37.895h62.857s0 7.5789 7.5429 10.105c0 0-2.5143-5.0526 0-10.105h17.6v-37.895h-88z" fill="#fff"/>
<rect x="9" y="52" width="50" height="5" fill="#3561A4"/>
<rect x="9" y="60" width="68" height="5" fill="#3561A4"/>
<rect x="9" y="68" width="60" height="5" fill="#3561A4"/>
<g transform="translate(120 120)" fill="url(#a)" opacity=".5">
<path d="m93 0.030919v40.116h-62.796s-4.636 9.1829-12.609 11.853c0 0 2.5442-6.5042-0.11171-11.853h-17.483v-40.116h93z"/>
</g>
<path d="m210 122v37.895h-62.857s0 7.5789-7.5429 10.105c0 0 2.5143-5.0526 0-10.105h-17.6v-37.895h88z" fill="#fff"/>
<rect x="133" y="129" width="50" height="5" fill="#3561A4"/>
<rect x="133" y="137" width="68" height="5" fill="#3561A4"/>
<rect x="133" y="144" width="60" height="5" fill="#3561A4"/>
</g>
</g>
</g>
</svg>
