<?xml version="1.0" encoding="UTF-8"?>
<svg width="161px" height="110px" viewBox="0 0 161 110" version="1.1" xmlns="http://www.w3.org/2000/svg" xmlns:xlink="http://www.w3.org/1999/xlink">
    <!-- Generator: Sketch 51.3 (57544) - http://www.bohemiancoding.com/sketch -->
    <title>Group 4</title>
    <desc>Created with Sketch.</desc>
    <defs></defs>
    <g id="Page-1" stroke="none" stroke-width="1" fill="none" fill-rule="evenodd">
        <g id="Reviews" transform="translate(-159.000000, -739.000000)" fill-rule="nonzero">
            <g id="Group-4" transform="translate(159.000000, 739.000000)">
                <g id="Group-2" fill="#006DB3">
                    <rect id="Rectangle-3" x="0" y="0" width="161" height="110" rx="4"></rect>
                </g>
                <g id="elitepartner_logo" transform="translate(25.000000, 30.000000)" fill="#FFFFFF">
                    <path d="M0.0913580247,22.6146789 L0.0913580247,38.1651376 L9.04444444,38.1651376 L9.04444444,36.4678899 L2.14691358,36.4678899 L2.14691358,31.0550459 L8.35925926,31.0550459 L8.35925926,29.4036697 L2.14691358,29.4036697 L2.14691358,24.3119266 L8.8617284,24.3119266 L8.8617284,22.6146789 L0.0913580247,22.6146789 Z M13.7950617,38.1651376 L11.8308642,38.1651376 L11.8308642,22.706422 L13.7950617,21.7889908 L13.7950617,38.1651376 Z M19.1395062,38.1651376 L17.1753086,38.1651376 L17.1753086,26.6972477 L19.1395062,26.6972477 C19.1395062,26.6972477 19.1395062,38.1651376 19.1395062,38.1651376 Z M17.1296296,22.293578 L19.1851852,22.293578 L19.1851852,24.6330275 L17.1296296,24.6330275 L17.1296296,22.293578 Z M28.3209877,37.9816514 C27.7728395,38.1651376 26.9962963,38.2568807 26.3111111,38.2568807 C23.7987654,38.2568807 23.1592593,37.0642202 23.1592593,34.3119266 L23.1592593,28.1651376 L21.4234568,28.1651376 L21.4234568,26.7889908 L23.1592593,26.6972477 L23.1592593,24.1284404 L25.0777778,23.2110092 L25.0777778,26.6513761 L28.0469136,26.6513761 L28.0469136,28.1192661 L25.0777778,28.1192661 L25.0777778,34.3119266 C25.0777778,35.9633028 25.4432099,36.6055046 26.7222222,36.6055046 C27.1790123,36.6055046 27.7728395,36.559633 28.2753086,36.4678899 C28.2753086,36.4678899 28.3209877,37.9816514 28.3209877,37.9816514 Z M31.8382716,31.6972477 L37.2740741,31.6972477 L37.2740741,31.559633 C37.2740741,29.3119266 36.7259259,28.0275229 34.7160494,28.0275229 C32.5234568,28.0275229 31.8839506,29.266055 31.8382716,31.6972477 Z M39.1012346,31.7889908 L39.1012346,32.9816514 L31.7925926,32.9816514 C31.8839506,35.8256881 32.7061728,36.7889908 35.6753086,36.7889908 C36.7716049,36.7889908 37.7308642,36.6513761 38.5530864,36.4220183 L38.7358025,37.8899083 C37.8679012,38.1651376 36.6802469,38.3944954 35.3098765,38.3944954 C31.3358025,38.3944954 29.782716,36.6972477 29.782716,32.4311927 L29.782716,32.3853211 C29.782716,28.440367 31.0160494,26.4678899 34.6246914,26.4678899 C37.9592593,26.4678899 39.1012346,28.3486239 39.1012346,31.7889908 Z M44.491358,30.9633028 L47.4148148,30.9633028 C49.5617284,30.9633028 50.4753086,30.1376147 50.4753086,27.6605505 L50.4753086,27.6146789 C50.4753086,25.1376147 49.5617284,24.3119266 47.4148148,24.3119266 L44.491358,24.3119266 L44.491358,30.9633028 Z M44.491358,38.1651376 L42.4358025,38.1651376 L42.4358025,22.6146789 L47.4148148,22.6146789 C51.1148148,22.6146789 52.5765432,23.8990826 52.5765432,27.6146789 L52.5765432,27.6605505 C52.5765432,31.3761468 51.1148148,32.6605505 47.4148148,32.6605505 L44.491358,32.6605505 C44.491358,32.6146789 44.491358,38.1651376 44.491358,38.1651376 Z M60.6617284,35.7798165 L60.6617284,32.7981651 L59.4740741,32.8440367 C56.9160494,32.9816514 55.7740741,33.3944954 55.7740741,34.9082569 L55.7740741,34.9541284 C55.7740741,36.3302752 56.3679012,36.8348624 57.7839506,36.8348624 C58.9716049,36.8348624 59.9308642,36.2844037 60.6617284,35.7798165 Z M62.5802469,30.6422018 L62.5802469,35.6422018 C62.5802469,36.559633 62.717284,36.8348624 63.4024691,36.8348624 C63.5851852,36.8348624 63.8135802,36.7889908 63.9962963,36.7889908 L63.9962963,38.0733945 C63.5851852,38.1651376 63.2197531,38.2110092 62.808642,38.2110092 C61.5753086,38.2110092 61.1185185,37.6605505 60.9814815,36.8807339 C60.0679012,37.6146789 58.8802469,38.2568807 57.1901235,38.2568807 C55.0888889,38.2568807 53.8098765,37.3394495 53.8098765,35.1376147 L53.8098765,35.0917431 C53.8098765,32.2477064 55.9111111,31.6972477 59.337037,31.559633 L60.6160494,31.5137615 L60.6160494,30.5963303 C60.6160494,28.6238532 60.1135802,28.0275229 58.1493827,28.0275229 C57.1444444,28.0275229 55.8654321,28.2568807 54.8604938,28.4862385 L54.6320988,27.0642202 C55.682716,26.7431193 57.1901235,26.4678899 58.6061728,26.4678899 C61.5296296,26.4678899 62.5802469,27.5688073 62.5802469,30.6422018 Z M71.3962963,28.3944954 C70.0259259,28.6697248 68.5641975,29.3119266 67.7876543,29.9082569 L67.7876543,38.1651376 L65.8234568,38.1651376 L65.8234568,26.6972477 L67.3308642,26.6972477 L67.5592593,28.3944954 C68.3358025,27.6605505 69.7975309,26.7889908 71.3049383,26.5137615 L71.3962963,28.3944954 Z M79.9382716,37.9816514 C79.3901235,38.1651376 78.6135802,38.2568807 77.9283951,38.2568807 C75.4160494,38.2568807 74.7765432,37.0642202 74.7765432,34.3119266 L74.7765432,28.1651376 L73.0407407,28.1651376 L73.0407407,26.7889908 L74.7765432,26.6972477 L74.7765432,24.1743119 L76.6950617,23.2568807 L76.6950617,26.6972477 L79.6641975,26.6972477 L79.6641975,28.1651376 L76.6950617,28.1651376 L76.6950617,34.3577982 C76.6950617,36.0091743 77.0604938,36.6513761 78.3395062,36.6513761 C78.8419753,36.6513761 79.3901235,36.6055046 79.8925926,36.5137615 L79.9382716,37.9816514 Z M89.1654321,38.1651376 L89.1654321,31.8348624 C89.1654321,29.1743119 88.8,28.1192661 87.1098765,28.1192661 C85.8765432,28.1192661 84.7345679,28.7155963 84.0037037,29.2201835 L84.0037037,38.1651376 L82.0395062,38.1651376 L82.0395062,26.6972477 L83.5469136,26.6972477 L83.7753086,27.9357798 C84.6888889,27.2477064 85.9679012,26.4678899 87.7037037,26.4678899 C90.3074074,26.4678899 91.1296296,28.1651376 91.1296296,31.8348624 L91.1296296,38.1651376 L89.1654321,38.1651376 Z M95.4691358,31.6972477 L100.904938,31.6972477 L100.904938,31.559633 C100.904938,29.3119266 100.35679,28.0275229 98.3469136,28.0275229 C96.2,28.0275229 95.5148148,29.266055 95.4691358,31.6972477 Z M102.777778,31.7889908 L102.777778,32.9816514 L95.4691358,32.9816514 C95.5148148,35.8256881 96.382716,36.7889908 99.3518519,36.7889908 C100.448148,36.7889908 101.407407,36.6513761 102.22963,36.4220183 L102.412346,37.8899083 C101.544444,38.1651376 100.35679,38.3944954 98.9864198,38.3944954 C95.0123457,38.3944954 93.4592593,36.6972477 93.4592593,32.4311927 L93.4592593,32.3853211 C93.4592593,28.440367 94.6925926,26.4678899 98.3012346,26.4678899 C101.590123,26.4678899 102.777778,28.3486239 102.777778,31.7889908 Z M111,28.3944954 C109.62963,28.6697248 108.167901,29.3119266 107.391358,29.9082569 L107.391358,38.1651376 L105.42716,38.1651376 L105.42716,26.6972477 L106.934568,26.6972477 L107.162963,28.3944954 C107.939506,27.6605505 109.401235,26.7889908 110.908642,26.5137615 L111,28.3944954 Z M3.28888889,48.5321101 L3.97407407,48.5321101 L2.51234568,43.3944954 L1.50740741,43.3944954 L0,48.5321101 L0.685185185,48.5321101 L1.05061728,47.2477064 L2.92345679,47.2477064 L3.28888889,48.5321101 Z M1.96419753,43.9449541 L2.05555556,43.9449541 L2.83209877,46.7431193 L1.18765432,46.7431193 L1.96419753,43.9449541 Z M6.3037037,46.4678899 L7.62839506,44.7247706 L6.89753086,44.7247706 L5.75555556,46.2385321 L5.34444444,46.2385321 L5.34444444,43.1192661 L4.70493827,43.2110092 L4.70493827,48.5321101 L5.34444444,48.5321101 L5.34444444,46.7431193 L5.75555556,46.7431193 L6.98888889,48.5321101 L7.7654321,48.5321101 C7.7654321,48.5321101 6.3037037,46.5137615 6.3037037,46.4678899 Z M9.45555556,48.0733945 C8.99876543,48.0733945 8.81604938,47.8899083 8.81604938,47.4311927 C8.81604938,46.9266055 9.18148148,46.7889908 10.0037037,46.7431193 L10.4148148,46.7431193 L10.4148148,47.7522936 C10.1407407,47.9357798 9.82098765,48.0733945 9.45555556,48.0733945 Z M9.72962963,44.6788991 C9.27283951,44.6788991 8.77037037,44.7706422 8.45061728,44.8623853 L8.54197531,45.3211009 C8.8617284,45.2293578 9.27283951,45.1834862 9.6382716,45.1834862 C10.2777778,45.1834862 10.4604938,45.3669725 10.4604938,46.0550459 L10.4604938,46.3761468 L10.0493827,46.3761468 C8.95308642,46.4220183 8.26790123,46.6055046 8.26790123,47.5229358 C8.26790123,48.2568807 8.67901235,48.5779817 9.36419753,48.5779817 C9.91234568,48.5779817 10.2777778,48.3486239 10.5975309,48.1192661 C10.6432099,48.3944954 10.7802469,48.5779817 11.191358,48.5779817 C11.3283951,48.5779817 11.4654321,48.5321101 11.6024691,48.5321101 L11.6024691,48.0733945 C11.5567901,48.0733945 11.4654321,48.0733945 11.4197531,48.0733945 C11.191358,48.0733945 11.145679,47.9816514 11.145679,47.6605505 L11.145679,46.0091743 C11.008642,45.0458716 10.6888889,44.6788991 9.72962963,44.6788991 Z M14.3432099,47.706422 C14.1148148,47.8899083 13.7950617,48.0733945 13.4296296,48.0733945 C12.7901235,48.0733945 12.5617284,47.6605505 12.5617284,46.6513761 C12.5617284,45.6422018 12.7901235,45.2293578 13.4296296,45.2293578 C13.7950617,45.2293578 14.1148148,45.3669725 14.3432099,45.5504587 L14.3432099,47.706422 Z M14.982716,43.1192661 L14.3432099,43.2110092 L14.3432099,45.0458716 C14.0234568,44.8165138 13.7037037,44.6788991 13.2469136,44.6788991 C12.3333333,44.6788991 11.8765432,45.3211009 11.8765432,46.6513761 C11.8765432,47.9357798 12.2876543,48.6238532 13.2469136,48.6238532 C13.7493827,48.6238532 14.0691358,48.3944954 14.3888889,48.1651376 L14.4802469,48.5779817 L14.982716,48.5779817 L14.982716,43.1192661 Z M17.4493827,44.6788991 C16.2617284,44.6788991 15.8506173,45.3211009 15.8506173,46.6513761 C15.8506173,48.0733945 16.3530864,48.6238532 17.6320988,48.6238532 C18.0888889,48.6238532 18.454321,48.5321101 18.7283951,48.440367 L18.637037,47.9357798 C18.362963,48.0275229 18.0432099,48.0733945 17.6777778,48.0733945 C16.7185185,48.0733945 16.4444444,47.7522936 16.3987654,46.7889908 L18.7740741,46.7889908 L18.7740741,46.3761468 C18.9111111,45.2752294 18.5,44.6788991 17.4493827,44.6788991 Z M17.4493827,45.1834862 C18.0888889,45.1834862 18.2716049,45.5963303 18.2716049,46.3761468 L18.2716049,46.4220183 L16.4901235,46.4220183 C16.5358025,45.5963303 16.7641975,45.1834862 17.4493827,45.1834862 Z M24.8950617,48.5321101 L24.8950617,46.3761468 C24.8950617,45.2293578 24.7580247,44.6788991 23.8444444,44.6788991 C23.2962963,44.6788991 22.8395062,44.9541284 22.4740741,45.2293578 C22.337037,44.8623853 22.062963,44.6788991 21.6061728,44.6788991 C21.0580247,44.6788991 20.6012346,44.9541284 20.3271605,45.1834862 L20.2358025,44.7706422 L19.7333333,44.7706422 L19.7333333,48.5779817 L20.3728395,48.5779817 L20.3728395,45.6422018 C20.6012346,45.4587156 20.9666667,45.2752294 21.3320988,45.2752294 C21.8802469,45.2752294 21.9716049,45.5963303 21.9716049,46.4220183 L21.9716049,48.5779817 L22.6111111,48.5779817 L22.6111111,46.4220183 C22.6111111,46.1009174 22.6111111,45.8715596 22.5654321,45.6422018 C22.8395062,45.4587156 23.2049383,45.2293578 23.6160494,45.2293578 C24.1641975,45.2293578 24.2555556,45.5504587 24.2555556,46.3761468 L24.2555556,48.5321101 L24.8950617,48.5321101 Z M26.6308642,44.7247706 L25.991358,44.7247706 L25.991358,48.5321101 L26.6308642,48.5321101 L26.6308642,44.7247706 Z M25.945679,44.0366972 L26.6308642,44.0366972 L26.6308642,43.2568807 L25.945679,43.2568807 L25.945679,44.0366972 Z M29.3259259,46.4678899 L30.6506173,44.7247706 L29.9197531,44.7247706 L28.7777778,46.2385321 L28.3666667,46.2385321 L28.3666667,43.1192661 L27.7271605,43.2110092 L27.7271605,48.5321101 L28.3666667,48.5321101 L28.3666667,46.7431193 L28.7777778,46.7431193 L30.0111111,48.5321101 L30.7419753,48.5321101 C30.7419753,48.5321101 29.3259259,46.5137615 29.3259259,46.4678899 Z M32.6148148,44.6788991 C31.4271605,44.6788991 31.0617284,45.3211009 31.0617284,46.6513761 C31.0617284,48.0733945 31.5641975,48.6238532 32.8432099,48.6238532 C33.3,48.6238532 33.6654321,48.5321101 33.9395062,48.440367 L33.8481481,47.9357798 C33.5740741,48.0275229 33.254321,48.0733945 32.8888889,48.0733945 C31.9296296,48.0733945 31.6555556,47.7522936 31.6098765,46.7889908 L33.9851852,46.7889908 L33.9851852,46.3761468 C34.0765432,45.2752294 33.7111111,44.6788991 32.6148148,44.6788991 Z M32.6148148,45.1834862 C33.254321,45.1834862 33.437037,45.5963303 33.437037,46.3761468 L33.437037,46.4220183 L31.6555556,46.4220183 C31.7012346,45.5963303 31.9296296,45.1834862 32.6148148,45.1834862 Z M36.7259259,44.6788991 C36.2234568,44.7706422 35.7666667,45.0458716 35.4925926,45.3211009 L35.4012346,44.7706422 L34.8987654,44.7706422 L34.8987654,48.5779817 L35.5382716,48.5779817 L35.5382716,45.8715596 C35.7666667,45.6880734 36.2691358,45.4587156 36.7259259,45.3669725 C36.7716049,45.3211009 36.7259259,44.6788991 36.7259259,44.6788991 Z M39.3296296,44.7247706 L39.3296296,46.9724771 C39.3296296,48.1192661 39.6493827,48.5779817 40.4716049,48.5779817 C41.0197531,48.5779817 41.4308642,48.3486239 41.7049383,48.0733945 L41.7962963,48.4862385 L42.2987654,48.4862385 L42.2987654,44.6788991 L41.6592593,44.6788991 L41.6592593,47.6146789 C41.4308642,47.7981651 41.1111111,47.9816514 40.7,47.9816514 C40.1518519,47.9816514 39.9691358,47.706422 39.9691358,46.9266055 L39.9691358,44.6788991 L39.3296296,44.6788991 L39.3296296,44.7247706 Z M46.3185185,48.5321101 L46.3185185,46.4220183 C46.3185185,45.2293578 46.0444444,44.6330275 45.1765432,44.6330275 C44.582716,44.6330275 44.1716049,44.9082569 43.8975309,45.1376147 L43.8061728,44.7247706 L43.3037037,44.7247706 L43.3037037,48.5321101 L43.9432099,48.5321101 L43.9432099,45.5963303 C44.1716049,45.412844 44.537037,45.2293578 44.9481481,45.2293578 C45.4962963,45.2293578 45.6333333,45.5504587 45.6333333,46.4678899 L45.6333333,48.5779817 L46.3185185,48.5321101 Z M49.6074074,47.6605505 C49.3790123,47.8440367 49.0592593,48.0275229 48.6938272,48.0275229 C48.054321,48.0275229 47.8259259,47.6146789 47.8259259,46.6055046 C47.8259259,45.5963303 48.1,45.1834862 48.6938272,45.1834862 C49.0592593,45.1834862 49.3790123,45.3211009 49.6074074,45.5045872 L49.6074074,47.6605505 Z M50.2469136,43.1192661 L49.6074074,43.2110092 L49.6074074,45.0458716 C49.2876543,44.8165138 48.9679012,44.6788991 48.5111111,44.6788991 C47.5518519,44.6788991 47.1407407,45.3211009 47.1407407,46.6513761 C47.1407407,47.9357798 47.5518519,48.6238532 48.5111111,48.6238532 C49.0135802,48.6238532 49.3333333,48.3944954 49.6530864,48.1651376 L49.7444444,48.5779817 L50.2469136,48.5779817 C50.2469136,48.5321101 50.2469136,43.1192661 50.2469136,43.1192661 Z M54.4493827,48.0733945 C54.0382716,48.0733945 53.4444444,47.9816514 53.1246914,47.8899083 L53.0333333,48.3944954 C53.3074074,48.4862385 53.9469136,48.6238532 54.4950617,48.6238532 C55.7283951,48.6238532 56.3679012,48.1651376 56.3679012,47.1559633 C56.3679012,46.1926606 56.0481481,45.8715596 54.8604938,45.6422018 C53.9469136,45.4587156 53.6728395,45.3211009 53.6728395,44.6788991 C53.6728395,44.0825688 53.9469136,43.853211 54.7234568,43.853211 C55.2259259,43.853211 55.7283951,43.9449541 56.0024691,44.0366972 L56.0938272,43.5321101 C55.8197531,43.440367 55.2716049,43.3027523 54.6320988,43.3027523 C53.4444444,43.3027523 52.9876543,43.7155963 52.9876543,44.6788991 C52.9876543,45.6422018 53.4444444,45.9633028 54.4493827,46.146789 C55.454321,46.3302752 55.682716,46.5137615 55.682716,47.1100917 C55.682716,47.8440367 55.317284,48.0733945 54.4493827,48.0733945 Z M57.9209877,44.7247706 L57.2814815,44.7247706 L57.2814815,48.5321101 L57.9209877,48.5321101 L57.9209877,44.7247706 Z M57.2814815,44.0366972 L57.9666667,44.0366972 L57.9666667,43.2568807 L57.2814815,43.2568807 L57.2814815,44.0366972 Z M61.9864198,48.5321101 L61.9864198,46.4220183 C61.9864198,45.2293578 61.7123457,44.6330275 60.8444444,44.6330275 C60.2506173,44.6330275 59.8395062,44.9082569 59.5654321,45.1376147 L59.4740741,44.7247706 L58.9716049,44.7247706 L58.9716049,48.5321101 L59.6111111,48.5321101 L59.6111111,45.5963303 C59.8395062,45.412844 60.2049383,45.2293578 60.6160494,45.2293578 C61.1641975,45.2293578 61.3012346,45.5504587 61.3012346,46.4678899 L61.3012346,48.5779817 L61.9864198,48.5321101 Z M64.5444444,44.6788991 C63.2654321,44.6788991 62.808642,45.2752294 62.808642,46.6055046 C62.808642,47.8440367 63.2197531,48.5321101 64.1333333,48.5321101 C64.5901235,48.5321101 64.9098765,48.3486239 65.2296296,48.1651376 L65.2296296,48.4862385 C65.2296296,49.2201835 64.9098765,49.5412844 64.1333333,49.5412844 C63.7679012,49.5412844 63.5395062,49.4954128 63.2654321,49.4036697 L63.1740741,49.8623853 C63.4938272,49.9541284 63.8135802,50 64.2246914,50 C65.3209877,50 65.8691358,49.5412844 65.8691358,48.4862385 L65.8691358,44.8165138 C65.4580247,44.6788991 65.0012346,44.6788991 64.5444444,44.6788991 Z M64.4987654,45.1834862 C64.7728395,45.1834862 65.0012346,45.2293578 65.2296296,45.2293578 L65.2296296,47.6605505 C65.0012346,47.8440367 64.6814815,47.9816514 64.3617284,47.9816514 C63.7222222,47.9816514 63.4938272,47.5229358 63.4938272,46.6055046 C63.4481481,45.6422018 63.6765432,45.1834862 64.4987654,45.1834862 Z M67.5592593,43.1192661 L66.9197531,43.2110092 L66.9197531,48.5321101 L67.5592593,48.5321101 C67.5592593,48.5321101 67.5592593,43.1192661 67.5592593,43.1192661 Z M70.0716049,44.6788991 C68.8839506,44.6788991 68.5185185,45.3211009 68.5185185,46.6513761 C68.5185185,48.0733945 69.0209877,48.6238532 70.3,48.6238532 C70.7567901,48.6238532 71.1222222,48.5321101 71.3962963,48.440367 L71.3506173,47.9357798 C71.0765432,48.0275229 70.7567901,48.0733945 70.391358,48.0733945 C69.4320988,48.0733945 69.1580247,47.7522936 69.1123457,46.7889908 L71.4876543,46.7889908 L71.4876543,46.3761468 C71.4876543,45.2752294 71.1222222,44.6788991 70.0716049,44.6788991 Z M70.0716049,45.1834862 C70.7111111,45.1834862 70.8938272,45.5963303 70.8938272,46.3761468 L70.8938272,46.4220183 L69.1123457,46.4220183 C69.1580247,45.5963303 69.3407407,45.1834862 70.0716049,45.1834862 Z M73.4061728,48.0733945 C73.0407407,48.0733945 72.6296296,47.9816514 72.3098765,47.9357798 L72.2185185,48.440367 C72.5382716,48.5321101 73.0864198,48.6238532 73.5432099,48.6238532 C74.6395062,48.6238532 74.9592593,48.2110092 74.9592593,47.4770642 C74.9592593,46.7431193 74.6851852,46.5137615 73.7259259,46.3761468 C73.0407407,46.2844037 72.8123457,46.146789 72.8123457,45.733945 C72.8123457,45.3211009 73.0864198,45.1834862 73.6345679,45.1834862 C74,45.1834862 74.4111111,45.2293578 74.6851852,45.3211009 L74.7765432,44.8623853 C74.5024691,44.7706422 74,44.6788991 73.4975309,44.6788991 C72.6296296,44.6788991 72.1728395,45 72.1728395,45.733945 C72.1728395,46.4678899 72.5382716,46.7431193 73.3604938,46.8807339 C74.137037,47.0183486 74.3197531,47.1100917 74.3197531,47.4770642 C74.3197531,47.8899083 74.137037,48.0733945 73.4061728,48.0733945 Z M82.8617284,48.5321101 L82.8617284,46.3761468 C82.8617284,45.2293578 82.7246914,44.6788991 81.8111111,44.6788991 C81.262963,44.6788991 80.8061728,44.9541284 80.4407407,45.2293578 C80.3037037,44.8623853 80.0296296,44.6788991 79.5728395,44.6788991 C79.0246914,44.6788991 78.6135802,44.9541284 78.2938272,45.1834862 L78.2024691,44.7706422 L77.7,44.7706422 L77.7,48.5779817 L78.3395062,48.5779817 L78.3395062,45.6422018 C78.5679012,45.4587156 78.9333333,45.2752294 79.2987654,45.2752294 C79.8469136,45.2752294 79.9382716,45.5963303 79.9382716,46.4220183 L79.9382716,48.5779817 L80.5777778,48.5779817 L80.5777778,46.4220183 C80.5777778,46.1009174 80.5777778,45.8715596 80.5320988,45.6422018 C80.8061728,45.4587156 81.1716049,45.2293578 81.582716,45.2293578 C82.1308642,45.2293578 82.2222222,45.5504587 82.2222222,46.3761468 L82.2222222,48.5321101 L82.8617284,48.5321101 Z M84.5975309,44.7247706 L83.9580247,44.7247706 L83.9580247,48.5321101 L84.5975309,48.5321101 L84.5975309,44.7247706 Z M83.9123457,44.0366972 L84.5975309,44.0366972 L84.5975309,43.2568807 L83.9123457,43.2568807 L83.9123457,44.0366972 Z M87.5666667,47.9816514 C87.4296296,48.0275229 87.2012346,48.0275229 87.0641975,48.0275229 C86.6530864,48.0275229 86.5160494,47.7981651 86.5160494,47.2477064 L86.5160494,45.2293578 L87.4753086,45.2293578 L87.4753086,44.7247706 L86.5160494,44.7247706 L86.5160494,43.5779817 L85.8765432,43.6697248 L85.8765432,44.7247706 L85.3283951,44.7706422 L85.3283951,45.2293578 L85.8765432,45.2293578 L85.8765432,47.2477064 C85.8765432,48.1651376 86.1049383,48.5321101 86.9271605,48.5321101 C87.1555556,48.5321101 87.4296296,48.4862385 87.5666667,48.440367 L87.5666667,47.9816514 Z M93.0481481,48.5321101 L93.8246914,48.5321101 L93.8246914,43.3944954 L93.1851852,43.3944954 L93.1851852,47.4311927 L93.0938272,47.4311927 L90.9925926,43.3944954 L90.2160494,43.3944954 L90.2160494,48.5321101 L90.8555556,48.5321101 L90.8555556,44.4954128 L90.9469136,44.4954128 C90.9925926,44.4954128 93.0481481,48.5321101 93.0481481,48.5321101 Z M95.6061728,44.7247706 L94.9666667,44.7247706 L94.9666667,48.5321101 L95.6061728,48.5321101 L95.6061728,44.7247706 Z M94.9666667,44.0366972 L95.6518519,44.0366972 L95.6518519,43.2568807 L94.9666667,43.2568807 L94.9666667,44.0366972 Z M97.5246914,48.5321101 L98.4382716,48.5321101 L99.5802469,44.7247706 L98.9407407,44.7247706 L98.0271605,47.9357798 L97.9358025,47.9357798 L97.0222222,44.7247706 L96.382716,44.7247706 L97.5246914,48.5321101 Z M101.590123,44.6788991 C100.402469,44.6788991 100.037037,45.3211009 100.037037,46.6513761 C100.037037,48.0733945 100.539506,48.6238532 101.818519,48.6238532 C102.275309,48.6238532 102.640741,48.5321101 102.914815,48.440367 L102.869136,47.9357798 C102.595062,48.0275229 102.275309,48.0733945 101.909877,48.0733945 C100.950617,48.0733945 100.676543,47.7522936 100.630864,46.7889908 L103.006173,46.7889908 L103.006173,46.3761468 C103.051852,45.2752294 102.68642,44.6788991 101.590123,44.6788991 Z M101.635802,45.1834862 C102.275309,45.1834862 102.458025,45.5963303 102.458025,46.3761468 L102.458025,46.4220183 L100.676543,46.4220183 C100.676543,45.5963303 100.904938,45.1834862 101.635802,45.1834862 Z M104.97037,48.0733945 C104.51358,48.0733945 104.330864,47.8899083 104.330864,47.4311927 C104.330864,46.9266055 104.696296,46.7889908 105.518519,46.7431193 L105.92963,46.7431193 L105.92963,47.7522936 C105.655556,47.9357798 105.335802,48.0733945 104.97037,48.0733945 Z M105.244444,44.6788991 C104.787654,44.6788991 104.285185,44.7706422 103.965432,44.8623853 L104.05679,45.3211009 C104.376543,45.2293578 104.787654,45.1834862 105.153086,45.1834862 C105.792593,45.1834862 105.975309,45.3669725 105.975309,46.0550459 L105.975309,46.3761468 L105.564198,46.3761468 C104.467901,46.4220183 103.782716,46.6055046 103.782716,47.5229358 C103.782716,48.2568807 104.193827,48.5779817 104.879012,48.5779817 C105.42716,48.5779817 105.838272,48.3486239 106.112346,48.1192661 C106.158025,48.3944954 106.295062,48.5779817 106.706173,48.5779817 C106.84321,48.5779817 106.980247,48.5321101 107.117284,48.5321101 L107.117284,48.0733945 C107.071605,48.0733945 106.980247,48.0733945 106.934568,48.0733945 C106.706173,48.0733945 106.660494,47.9816514 106.660494,47.6605505 L106.660494,46.0091743 C106.523457,45.0458716 106.203704,44.6788991 105.244444,44.6788991 Z M107.574074,44.7247706 L107.574074,46.9724771 C107.574074,48.1192661 107.893827,48.5779817 108.716049,48.5779817 C109.264198,48.5779817 109.675309,48.3486239 109.949383,48.0733945 L110.040741,48.4862385 L110.54321,48.4862385 L110.54321,44.6788991 L109.903704,44.6788991 L109.903704,47.6146789 C109.675309,47.7981651 109.355556,47.9816514 108.944444,47.9816514 C108.396296,47.9816514 108.21358,47.706422 108.21358,46.9266055 L108.21358,44.6788991 L107.574074,44.6788991 L107.574074,44.7247706 Z M48.7395062,11.4220183 L55.591358,14.5412844 L62.4432099,11.4220183 L62.4432099,13.1651376 L55.591358,16.2844037 L48.7395062,13.1651376 C48.7395062,13.1651376 48.7395062,11.4220183 48.7395062,11.4220183 Z M65.6407407,7.98165138 L65.6407407,15.1376147 L64.8185185,14.6788991 L63.9962963,15.8256881 L63.9962963,8.71559633 L55.545679,12.5688073 L41.7962963,6.28440367 L55.545679,0 L69.2950617,6.28440367 L65.6407407,7.98165138 Z" id="Shape"></path>
                </g>
            </g>
        </g>
    </g>
</svg>