<?xml version="1.0" encoding="UTF-8"?>
<svg width="161px" height="110px" viewBox="0 0 161 110" version="1.1" xmlns="http://www.w3.org/2000/svg" xmlns:xlink="http://www.w3.org/1999/xlink">
    <g id="Page-1" stroke="none" stroke-width="1" fill="none" fill-rule="evenodd">
        <g id="Reviews" transform="translate(-160.000000, -586.000000)" fill-rule="nonzero">
            <g id="Group-2" transform="translate(160.000000, 586.000000)">
                <rect id="Rectangle-3" fill="#B70016" x="0" y="0" width="161" height="110" rx="4"></rect>
                <g id="ps_logo_2016" transform="translate(15.000000, 40.000000)" fill="#FFFFFF">
                    <g id="Parship_2_">
                        <path d="M7.62992126,14.625 L5.08661417,14.625 L5.08661417,22.575 L0,22.575 L0,1.425 L7.77952756,1.425 C12.4173228,1.425 16.007874,3.075 16.007874,7.95 C16.007874,12.825 12.0433071,14.625 7.62992126,14.625 Z M7.33070866,5.55 L5.08661417,5.55 L5.08661417,10.575 L7.25590551,10.575 C9.2007874,10.575 10.9212598,9.975 10.9212598,8.025 C10.9212598,5.925 9.12598425,5.55 7.33070866,5.55 Z" id="Shape"></path>
                        <path d="M16.6062992,9.75 C18.3267717,8.1 20.7952756,7.275 23.1889764,7.275 C28.2007874,7.275 29.996063,9.75 29.996063,15.15 L29.996063,22.65 L25.507874,22.65 L25.507874,21 L25.4330709,21 C24.6850394,22.2 22.9645669,22.95 21.2440945,22.95 C18.9251969,22.95 15.8582677,21.75 15.8582677,18.3 C15.8582677,14.025 21.0944882,13.275 25.4330709,13.275 L25.4330709,13.05 C25.4330709,11.55 24.2362205,10.875 22.7401575,10.875 C21.3188976,10.875 19.9724409,11.55 19.0748031,12.375 L16.6062992,9.75 Z M25.5826772,16.125 L24.984252,16.125 C22.8149606,16.125 20.4212598,16.425 20.4212598,18.15 C20.4212598,19.275 21.5433071,19.65 22.515748,19.65 C24.4606299,19.65 25.5826772,18.45 25.5826772,16.575 L25.5826772,16.125 Z" id="Shape"></path>
                        <path d="M41.2165354,11.7 C40.7677165,11.55 40.3188976,11.55 39.9448819,11.55 C37.3267717,11.55 36.4291339,13.725 36.4291339,14.925 L36.4291339,22.575 L31.5669291,22.575 L31.5669291,7.725 L36.2795276,7.725 L36.2795276,9.9 L36.3543307,9.9 C37.1023622,8.4 38.523622,7.35 40.3937008,7.35 C40.7677165,7.35 41.2165354,7.35 41.4409449,7.5 L41.2165354,11.7 Z" id="Shape"></path>
                        <path d="M51.8385827,12.075 C51.0905512,11.325 49.8937008,10.725 48.7716535,10.725 C47.8740157,10.725 46.9015748,11.025 46.9015748,11.925 C46.9015748,12.75 47.7244094,12.975 49.5944882,13.425 C51.8385827,13.95 54.3070866,15.075 54.3070866,18 C54.3070866,21.75 51.015748,23.1 47.9488189,23.1 C45.5551181,23.1 43.011811,22.275 41.515748,20.775 L44.2834646,17.85 C45.1811024,18.825 46.4527559,19.5 47.9488189,19.5 C48.7716535,19.5 49.7440945,19.2 49.7440945,18.225 C49.7440945,17.325 48.8464567,17.025 46.8267717,16.5 C44.8070866,16.05 42.488189,15 42.488189,12.15 C42.488189,8.625 45.8543307,7.125 48.6220472,7.125 C50.7913386,7.125 53.1102362,7.875 54.6062992,9.225 L51.8385827,12.075 Z" id="Shape"></path>
                        <path d="M65.4527559,22.575 L65.4527559,14.55 C65.4527559,12.9 65.003937,11.4 63.2834646,11.4 C61.5629921,11.4 60.6653543,12.825 60.6653543,14.55 L60.6653543,22.575 L55.8031496,22.575 L55.8031496,0 L60.6653543,0 L60.6653543,9.6 L60.7401575,9.6 C61.4133858,8.4 62.9094488,7.275 65.003937,7.275 C69.0433071,7.275 70.4645669,10.35 70.4645669,13.35 L70.4645669,22.575 L65.4527559,22.575 Z" id="Shape"></path>
                        <path d="M74.4291339,5.625 C72.8582677,5.625 71.6614173,4.425 71.6614173,2.925 C71.6614173,1.5 72.8582677,0.225 74.4291339,0.225 C76,0.225 77.1968504,1.425 77.1968504,2.925 C77.1968504,4.5 75.9251969,5.625 74.4291339,5.625 Z M71.9606299,22.575 L71.9606299,7.725 L76.8228346,7.725 L76.8228346,22.575 L71.9606299,22.575 Z" id="Shape"></path>
                        <path d="M87.8937008,23.025 C86.0984252,23.025 84.3031496,22.275 83.4055118,21 L83.3307087,21 L83.3307087,29.85 L78.4685039,29.85 L78.4685039,7.725 L83.1062992,7.725 L83.1062992,9.525 L83.1811024,9.525 C84.0787402,8.325 85.7244094,7.275 87.8937008,7.275 C92.2322835,7.275 94.9251969,10.95 94.9251969,15.075 C94.9251969,19.275 92.3070866,23.025 87.8937008,23.025 Z M86.6968504,11.325 C84.5275591,11.325 83.1062992,13.275 83.1062992,15.15 C83.1062992,17.1 84.4527559,18.975 86.6968504,18.975 C89.015748,18.975 90.2125984,17.025 90.2125984,15.15 C90.2125984,13.2 89.015748,11.325 86.6968504,11.325 Z" id="Shape"></path>
                    </g>
                    <path d="M124,5.73239437 C124,3.1443662 121.825,1 119.2,1 C117.625,1 116.2,1.73943662 115.375,2.92253521 L111.85,7.72887324 L111.1,7.06338028 C111.1,7.06338028 111.025,6.98943662 111.025,6.98943662 C110.2,6.17605634 109,5.73239437 107.8,5.73239437 C105.175,5.73239437 103,7.87676056 103,10.4647887 C103,11.7957746 103.6,13.0528169 104.5,13.9401408 L113.2,22 L123.1,8.46830986 C123.625,7.72887324 124,6.76760563 124,5.73239437 Z" id="lovecheck_1_"></path>
                </g>
            </g>
        </g>
    </g>
</svg>