<svg xmlns="http://www.w3.org/2000/svg" width="20" height="20"><path d="M6.569 16.799H2.91c-.698 0-1.277-.597-1.277-1.356V3.127c0-.76.579-1.352 1.277-1.352h8.852c.698 0 1.269.592 1.269 1.352v10.32l1.635-2.111V1.808C14.667.81 13.94 0 13.023 0H1.587C.704 0 0 .777 0 1.735V16.81c0 .998.735 1.81 1.655 1.81h6.421l-.758-.715a3.148 3.148 0 0 1-.75-1.106z"/><path d="M11.154 4.138h-7.64c-.47 0-.847.464-.847 1.035 0 .57.378 1.034.847 1.034h7.64c.47 0 .846-.464.846-1.034.001-.57-.377-1.035-.846-1.035zm0 2.759h-7.64c-.47 0-.847.463-.847 1.034 0 .568.378 1.035.847 1.035h7.64c.47 0 .846-.467.846-1.035.001-.571-.377-1.034-.846-1.034zm0 2.758h-7.64c-.47 0-.847.45-.847 1.036 0 .584.378 1.033.847 1.033h7.64c.47 0 .846-.451.846-1.033.001-.586-.377-1.036-.846-1.036zM2.667 13.45c0 .585.391 1.033.876 1.033h2.945c.123-.38.312-.823.57-1.19.273-.381.593-.66.942-.88H3.543c-.485.003-.876.454-.876 1.037zm8.571-1.036h-.571c.187.109.366.29.53.486l.759.893c.029-.107.044-.223.044-.348-.002-.574-.34-1.031-.762-1.031z"/><path d="M19.493 10.03c-.603-.562-1.512-.482-2.028.176l-4.726 6.022-2.362-2.206c-.605-.56-1.513-.487-2.03.169-.518.656-.448 1.642.155 2.204l3.457 3.227a1.382 1.382 0 0 0 1.051.373c.38-.032.735-.229.982-.544l5.665-7.217c.514-.657.443-1.642-.164-2.204z"/></svg>