<svg width="313" height="413" xmlns="http://www.w3.org/2000/svg" xmlns:xlink="http://www.w3.org/1999/xlink"><defs><path id="a" d="M.615.057h93.752v94.402H.615z"/><path id="c" d="M0 .662h319.424V253.6H0z"/></defs><g fill="none" fill-rule="evenodd"><g transform="rotate(-16 141.273 -274.734)"><mask id="b" fill="#fff"><use xlink:href="#a"/></mask><path d="M36 36.534s-3.28-15.787 5.814-26.203c11.389-13.05 28.363-12.903 38.983-3.87C91.29 15.395 93.524 30.972 94.19 42.45c.9 15.61-1.806 35.264-4.401 45.78-10.399 3.002-29.932 6.49-45.565 6.215-11.493-.212-27.154-1.822-36.49-11.952C-1.722 72.24-2.54 55.286 10.05 43.39 20.102 33.887 36 36.534 36 36.534" fill="#D14045" mask="url(#b)"/></g><path d="M240.725 15.92S249.108 2.176 262.818.847c17.17-1.67 29.4 10.1 30.957 23.978 1.524 13.714-7.473 26.588-14.82 35.402-9.993 11.972-25.361 24.418-34.417 30.292-9.604-4.97-26.171-15.852-37.336-26.805-8.208-8.051-18.481-19.987-18.355-33.784.125-13.96 11.096-26.86 28.347-26.864 13.786-.003 23.531 12.852 23.531 12.852m-40.657 78.507a1.167 1.167 0 0 1-.9-.11c-6.274-3.582-10.219-5.43-10.26-5.448a1.17 1.17 0 0 1-.566-1.55 1.172 1.172 0 0 1 1.55-.567c.163.077 4.065 1.901 10.433 5.54a1.166 1.166 0 0 1-.257 2.135m19.707 12.543c-.325.093-.69.042-.99-.168a257.656 257.656 0 0 0-9.662-6.469 1.166 1.166 0 1 1 1.253-1.968c3.292 2.1 6.573 4.294 9.748 6.526a1.17 1.17 0 0 1-.349 2.079m18.468 14.288c-.365.104-.77.03-1.079-.233a249.725 249.725 0 0 0-9.022-7.325 1.167 1.167 0 0 1 1.426-1.846 250.769 250.769 0 0 1 9.108 7.395 1.17 1.17 0 0 1 .132 1.645 1.17 1.17 0 0 1-.565.364m16.962 16.035c-.406.116-.86.007-1.168-.321a214.545 214.545 0 0 0-8.225-8.194 1.165 1.165 0 1 1 1.6-1.696c2.882 2.722 5.68 5.51 8.314 8.286a1.164 1.164 0 0 1-.043 1.648 1.141 1.141 0 0 1-.478.277m15.033 17.843a1.162 1.162 0 0 1-1.258-.429 182.157 182.157 0 0 0-7.198-9.092 1.167 1.167 0 0 1 .135-1.644 1.168 1.168 0 0 1 1.644.139c2.558 3.03 5.01 6.127 7.29 9.21a1.163 1.163 0 0 1-.242 1.63c-.114.087-.24.149-.371.186m12.534 19.664a1.17 1.17 0 0 1-1.347-.568 154.579 154.579 0 0 0-5.87-9.982 1.166 1.166 0 0 1 .357-1.612c.539-.362 1.263-.184 1.608.357a159.472 159.472 0 0 1 5.96 10.128 1.172 1.172 0 0 1-.473 1.583c-.077.038-.156.07-.235.094m9.364 21.34a1.165 1.165 0 0 1-1.423-.744 137.412 137.412 0 0 0-4.209-10.77 1.165 1.165 0 0 1 .598-1.537 1.152 1.152 0 0 1 1.535.597 139.59 139.59 0 0 1 4.282 10.954 1.17 1.17 0 0 1-.728 1.482.6.6 0 0 1-.055.017m5.42 22.65a1.166 1.166 0 0 1-1.481-.98 94.399 94.399 0 0 0-1.906-10.533l-.191-.786c-.157-.625.215-1.23.848-1.417a1.168 1.168 0 0 1 1.414.85l.198.815a97.073 97.073 0 0 1 1.953 10.79 1.166 1.166 0 0 1-.835 1.26m-122.554 36.252a1.18 1.18 0 0 1-.517.028 37.337 37.337 0 0 0-11.261-.185 1.167 1.167 0 0 1-.315-2.31 39.539 39.539 0 0 1 11.965.195 1.168 1.168 0 0 1 .128 2.272M142.905 265a1.168 1.168 0 0 1-1.184-1.91c2.632-2.87 5.9-5.26 9.713-7.1a1.181 1.181 0 0 1 1.556.545c.28.58.037 1.277-.544 1.557-3.545 1.712-6.576 3.923-9.005 6.574a1.179 1.179 0 0 1-.536.334M4.521 319.588a1.167 1.167 0 0 1-1.256-.426 139.483 139.483 0 0 1-2.767-3.84 1.17 1.17 0 0 1 .289-1.626 1.174 1.174 0 0 1 1.625.292 139.89 139.89 0 0 0 2.72 3.781 1.166 1.166 0 0 1-.61 1.819m190.85-53.986a1.163 1.163 0 0 1-1.145-.296 37.415 37.415 0 0 0-9.078-6.662 1.167 1.167 0 0 1 1.076-2.07c3.512 1.828 6.757 4.21 9.647 7.08a1.169 1.169 0 0 1-.5 1.948m-57.877 21.037l-.024.007a1.17 1.17 0 0 1-1.425-.833c-1.09-4.149-1.147-8.226-.161-12.117a1.165 1.165 0 1 1 2.26.573c-.885 3.505-.832 7.187.157 10.951a1.17 1.17 0 0 1-.807 1.42m160.007-44.587a1.143 1.143 0 0 1-.468.034 1.164 1.164 0 0 1-1.01-1.303c.481-3.808.73-7.674.741-11.488a1.156 1.156 0 0 1 1.169-1.163c.643 0 1.163.524 1.162 1.17a95.864 95.864 0 0 1-.761 11.776c-.06.477-.4.85-.833.974M20.097 336.898a1.161 1.161 0 0 1-1.111-.263 125.071 125.071 0 0 1-8.27-8.375 1.167 1.167 0 0 1 .09-1.647 1.164 1.164 0 0 1 1.644.088 123.022 123.022 0 0 0 8.115 8.218 1.166 1.166 0 0 1-.468 1.979m187.11-51.445a1.167 1.167 0 0 1-1.425-.75c-1.268-3.774-2.835-7.275-4.665-10.406a1.17 1.17 0 0 1 .418-1.597 1.157 1.157 0 0 1 1.596.418c1.909 3.27 3.544 6.92 4.86 10.841a1.165 1.165 0 0 1-.783 1.494M291.8 264.63a1.169 1.169 0 0 1-1.41-1.54 97.637 97.637 0 0 0 3.486-10.985 1.159 1.159 0 0 1 1.416-.844c.624.157 1.002.792.844 1.417a99.767 99.767 0 0 1-3.57 11.246 1.163 1.163 0 0 1-.766.706m-141.64 41.248a1.16 1.16 0 0 1-1.12-.27c-3.115-2.923-5.748-5.934-7.832-8.947a1.169 1.169 0 0 1 .296-1.624 1.164 1.164 0 0 1 1.622.297c1.99 2.877 4.514 5.762 7.509 8.57a1.168 1.168 0 0 1-.475 1.974m-111.477 45.04a1.156 1.156 0 0 1-.926-.126 118.941 118.941 0 0 1-9.736-6.615 1.172 1.172 0 0 1-.23-1.635c.39-.51 1.12-.617 1.635-.229a116.026 116.026 0 0 0 9.543 6.487 1.167 1.167 0 0 1-.286 2.118m242.344-65.647a1.167 1.167 0 0 1-1.288-1.776 102.85 102.85 0 0 0 5.908-9.9 1.166 1.166 0 1 1 2.066 1.082 104.63 104.63 0 0 1-6.043 10.126 1.16 1.16 0 0 1-.643.468m-111.891 34.06c-.28.08-.589.058-.865-.09a88.208 88.208 0 0 1-9.024-5.48l-1.027-.72a1.166 1.166 0 0 1 1.35-1.901l1.004.703a86.006 86.006 0 0 0 8.783 5.333 1.167 1.167 0 0 1-.221 2.155m39.776-10.926a1.166 1.166 0 0 1-1.461-1.356 40.47 40.47 0 0 0 .716-11.266 1.155 1.155 0 0 1 1.07-1.252c.642-.05 1.203.43 1.254 1.074a42.697 42.697 0 0 1-.757 11.912 1.16 1.16 0 0 1-.822.888M59.656 361.029c-.23.066-.482.062-.723-.026a122.342 122.342 0 0 1-10.837-4.587 1.17 1.17 0 0 1-.545-1.559 1.17 1.17 0 0 1 1.557-.544 119.465 119.465 0 0 0 10.627 4.5c.605.223.917.893.693 1.497a1.16 1.16 0 0 1-.772.72m206.26-58.04a1.171 1.171 0 0 1-1.175-.324 1.169 1.169 0 0 1 .056-1.65c2.8-2.621 5.477-5.428 7.96-8.343a1.165 1.165 0 1 1 1.774 1.514 105.777 105.777 0 0 1-8.14 8.535c-.139.13-.303.22-.475.268m-74.868 24.061c-.171.05-.354.062-.538.025a78.16 78.16 0 0 1-11.415-3.086 1.167 1.167 0 0 1 .773-2.2 76.364 76.364 0 0 0 11.075 2.994c.633.119 1.048.73.928 1.363a1.161 1.161 0 0 1-.823.904m7.944 2.232a1.168 1.168 0 0 1-1.248-1.831c2.402-3.142 4.43-6.4 6.022-9.685a1.17 1.17 0 0 1 1.56-.54c.579.283.82.982.538 1.56-1.662 3.427-3.771 6.818-6.266 10.082a1.17 1.17 0 0 1-.606.414m48.208-12.452a1.167 1.167 0 0 1-.9-2.135 97.23 97.23 0 0 0 9.649-6.295 1.163 1.163 0 0 1 1.629.243 1.164 1.164 0 0 1-.242 1.63 98.701 98.701 0 0 1-9.88 6.45c-.082.047-.17.082-.256.107m-32.944 11.027a1.29 1.29 0 0 1-.188.04c-3.93.455-7.903.617-11.81.484a1.171 1.171 0 0 1-1.127-1.206c.025-.645.56-1.14 1.207-1.127 3.79.132 7.647-.028 11.46-.472a1.172 1.172 0 0 1 1.295 1.026 1.17 1.17 0 0 1-.837 1.255m13.175-2.646c-.585.168-1.17.33-1.76.485a1.167 1.167 0 0 1-.618-2.252l.026-.007a86.287 86.287 0 0 0 10.886-3.678 1.16 1.16 0 0 1 1.524.633 1.168 1.168 0 0 1-.631 1.524 88.98 88.98 0 0 1-9.427 3.295M82.16 366.994a1.173 1.173 0 0 1-.515.03 130.88 130.88 0 0 1-11.49-2.487 1.166 1.166 0 0 1-.83-1.425c.161-.626.8-1.001 1.424-.83a127.63 127.63 0 0 0 11.285 2.44 1.167 1.167 0 1 1 .126 2.273m100.033-21.649a1.17 1.17 0 0 1-1.006-2.068 88.832 88.832 0 0 0 8.866-7.328 1.157 1.157 0 0 1 1.647.045 1.169 1.169 0 0 1-.046 1.65 91.805 91.805 0 0 1-9.097 7.524c-.114.081-.235.14-.364.177m-76.83 23.544a1.15 1.15 0 0 1-.317.043c-3.928.015-7.879-.138-11.74-.454a1.167 1.167 0 0 1 .188-2.327c3.798.31 7.68.461 11.542.449a1.165 1.165 0 0 1 1.17 1.161c.003.535-.352.987-.843 1.128m56.624-11.98a1.168 1.168 0 0 1-.797-2.187 120.04 120.04 0 0 0 10.3-5.21 1.165 1.165 0 1 1 1.156 2.025 121.577 121.577 0 0 1-10.502 5.316 1.241 1.241 0 0 1-.157.057m-33.418 10.002a1.02 1.02 0 0 1-.129.029c-3.85.644-7.771 1.14-11.66 1.472a1.165 1.165 0 0 1-1.26-1.064 1.159 1.159 0 0 1 1.06-1.26c3.827-.329 7.687-.816 11.474-1.45a1.167 1.167 0 1 1 .516 2.273m15.664-3.547c-1.42.408-2.85.794-4.296 1.16a1.17 1.17 0 0 1-1.417-.846 1.17 1.17 0 0 1 .81-1.408l.024-.007a136.19 136.19 0 0 0 11.09-3.304c.573-.268 1.272.113 1.483.722a1.17 1.17 0 0 1-.723 1.485 143.58 143.58 0 0 1-6.97 2.198" fill="#D14045"/><g transform="rotate(-16 600.162 258.442)"><mask id="d" fill="#fff"><use xlink:href="#c"/></mask><path d="M300.23 14.233a1.164 1.164 0 0 1-1.145-1.408 95.986 95.986 0 0 1 3.15-11.376 1.168 1.168 0 0 1 2.209.761 93.724 93.724 0 0 0-3.073 11.098c-.117.55-.602.925-1.141.925m-2.513 23.165h-.021a1.171 1.171 0 0 1-1.147-1.19c.077-4.054.316-8.004.71-11.743a1.161 1.161 0 0 1 1.283-1.038c.641.066 1.107.64 1.04 1.282a135.73 135.73 0 0 0-.695 11.544 1.171 1.171 0 0 1-1.17 1.145m1.09 23.297a1.168 1.168 0 0 1-1.163-1.047 219.69 219.69 0 0 1-.9-11.694 1.167 1.167 0 0 1 1.108-1.224c.635-.085 1.193.46 1.223 1.106.183 3.69.483 7.581.895 11.572a1.17 1.17 0 0 1-1.164 1.287m3.292 23.1a1.17 1.17 0 0 1-1.15-.966 397.745 397.745 0 0 1-1.857-11.556 1.17 1.17 0 0 1 2.315-.332c.527 3.65 1.13 7.408 1.845 11.487a1.167 1.167 0 0 1-1.153 1.368m4.466 22.92c-.54 0-1.027-.38-1.143-.93a964.886 964.886 0 0 1-2.324-11.454 1.168 1.168 0 0 1 2.294-.446 930.107 930.107 0 0 0 2.32 11.423 1.17 1.17 0 0 1-1.147 1.407m4.79 22.835a1.17 1.17 0 0 1-1.144-.932c-.773-3.775-1.575-7.58-2.384-11.41a1.164 1.164 0 0 1 .903-1.381c.61-.152 1.25.269 1.383.901.812 3.833 1.615 7.643 2.388 11.422a1.169 1.169 0 0 1-1.147 1.4m4.266 22.95a1.166 1.166 0 0 1-1.152-.985 401.187 401.187 0 0 0-2.001-11.464 1.166 1.166 0 0 1 .933-1.362 1.18 1.18 0 0 1 1.364.932c.783 4.158 1.441 7.93 2.013 11.531a1.167 1.167 0 0 1-1.157 1.349m2.567 23.187a1.166 1.166 0 0 1-1.164-1.109 183.029 183.029 0 0 0-.968-11.554 1.167 1.167 0 0 1 1.03-1.29 1.162 1.162 0 0 1 1.293 1.029c.467 4.115.798 8.052.977 11.698a1.167 1.167 0 0 1-1.108 1.224c-.02.002-.039.002-.06.002M84.682 198.26c-.08 0-.164-.007-.246-.027a66.912 66.912 0 0 0-11.38-1.418 1.164 1.164 0 0 1-1.123-1.208 1.165 1.165 0 0 1 1.21-1.122 68.9 68.9 0 0 1 11.781 1.468c.632.132 1.034.755.897 1.385-.115.548-.6.922-1.139.922m232.346.684a1.164 1.164 0 0 1-1.15-1.37c.626-3.54 1.034-7.39 1.211-11.442.025-.644.599-1.168 1.218-1.115.643.027 1.143.57 1.116 1.215-.18 4.155-.6 8.109-1.247 11.748-.1.566-.59.964-1.148.964m-266.975.98c-.496 0-.96-.32-1.116-.818-.19-.617.152-1.27.77-1.462a71.22 71.22 0 0 1 11.577-2.577c.64-.102 1.23.36 1.317 1a1.166 1.166 0 0 1-1.001 1.311 68.88 68.88 0 0 0-11.198 2.494 1.142 1.142 0 0 1-.349.052m56.514 6.39c-.17 0-.34-.037-.504-.115-4.093-1.948-7.57-3.47-10.629-4.654-.6-.232-.898-.91-.666-1.51.233-.6.912-.89 1.513-.666 3.113 1.206 6.642 2.75 10.786 4.724.585.277.832.972.553 1.556a1.165 1.165 0 0 1-1.053.665m-77.373 3.917a1.166 1.166 0 0 1-.673-2.123 78.88 78.88 0 0 1 10.182-6.048 1.173 1.173 0 0 1 1.566.527c.287.576.05 1.275-.53 1.564a76.579 76.579 0 0 0-9.878 5.867 1.167 1.167 0 0 1-.667.213m98.24 6.623a1.15 1.15 0 0 1-.534-.133l-.47-.242c-3.423-1.771-6.734-3.485-9.917-5.107a1.166 1.166 0 1 1 1.062-2.078c3.187 1.623 6.502 3.34 9.929 5.112l.471.244a1.167 1.167 0 0 1-.54 2.204m181.336 3.735a1.164 1.164 0 0 1-.972-1.808c2.038-3.09 3.762-6.506 5.123-10.156.225-.603.89-.905 1.502-.688.605.225.914.898.687 1.5-1.422 3.816-3.225 7.392-5.362 10.627-.224.34-.597.525-.978.525m-296.47 5.648c-.251 0-.504-.08-.717-.248a1.164 1.164 0 0 1-.202-1.637 79.534 79.534 0 0 1 7.968-8.757 1.171 1.171 0 0 1 1.653.043 1.163 1.163 0 0 1-.045 1.648 77.25 77.25 0 0 0-7.735 8.5 1.157 1.157 0 0 1-.921.45m135.986 1.188c-.173 0-.346-.038-.512-.12a708.497 708.497 0 0 1-10.475-5.234 1.168 1.168 0 0 1 1.06-2.079c3.4 1.727 6.883 3.477 10.441 5.218a1.165 1.165 0 0 1-.514 2.215m143.863 9.36c-.368 0-.726-.17-.953-.49a1.163 1.163 0 0 1 .271-1.627 98.972 98.972 0 0 0 8.07-6.415c.304-.269.604-.54.9-.812a1.166 1.166 0 0 1 1.652.063c.438.473.41 1.21-.064 1.646-.31.287-.621.571-.94.853a101.053 101.053 0 0 1-8.261 6.565 1.166 1.166 0 0 1-.675.217m-122.616.386c-.152 0-.306-.03-.454-.092a382.435 382.435 0 0 1-10.722-4.74 1.163 1.163 0 0 1-.573-1.546 1.16 1.16 0 0 1 1.549-.572 374.509 374.509 0 0 0 10.656 4.708 1.166 1.166 0 0 1-.456 2.242m21.875 8.22a1.18 1.18 0 0 1-.36-.056 244.825 244.825 0 0 1-11.08-3.89 1.17 1.17 0 0 1-.68-1.507c.229-.6.908-.903 1.507-.678a242.955 242.955 0 0 0 10.975 3.854 1.168 1.168 0 0 1-.362 2.276M1.17 246.63a1.17 1.17 0 0 1-1.108-1.537 65.858 65.858 0 0 1 4.78-10.86 1.17 1.17 0 0 1 2.05 1.127 63.193 63.193 0 0 0-4.614 10.472 1.17 1.17 0 0 1-1.108.798m270.436 1.131a1.168 1.168 0 0 1-.412-2.26 86.927 86.927 0 0 0 10.488-4.754c.577-.3 1.28-.09 1.584.476a1.17 1.17 0 0 1-.477 1.581 90.118 90.118 0 0 1-10.772 4.882c-.134.05-.275.075-.411.075m-57.573 3.481c-.07 0-.144-.007-.217-.019a171.64 171.64 0 0 1-11.481-2.584 1.169 1.169 0 0 1-.836-1.423c.162-.627.805-.99 1.426-.836a167.184 167.184 0 0 0 11.322 2.55c.637.118 1.052.727.933 1.361a1.168 1.168 0 0 1-1.147.951m34.881 1.802a1.166 1.166 0 0 1-.12-2.328 93.584 93.584 0 0 0 11.376-1.892 1.167 1.167 0 0 1 .525 2.275 96.21 96.21 0 0 1-11.656 1.938.911.911 0 0 1-.125.007m-11.662.556h-.01a123.785 123.785 0 0 1-11.772-.665 1.169 1.169 0 0 1-1.04-1.281 1.173 1.173 0 0 1 1.28-1.042c3.915.408 7.798.627 11.55.653a1.17 1.17 0 0 1 1.16 1.176 1.17 1.17 0 0 1-1.168 1.159" fill="#D14045" mask="url(#d)"/></g></g></svg>