<svg width="20" height="19" xmlns="http://www.w3.org/2000/svg"><path d="M18.504 1.584C17.537.562 16.252 0 14.885 0c-1.366 0-2.651.562-3.618 1.584L10 2.923l-1.267-1.34c-1.995-2.107-5.242-2.107-7.237 0-1.995 2.109-1.995 5.539-.001 7.645l2.806 2.986c.603-1.11 1.738-1.859 3.036-1.859 1.064 0 2.02.504 2.661 1.296.642-.792 1.597-1.296 2.66-1.296 1.295 0 2.427.745 3.032 1.848l2.814-2.973c1.995-2.108 1.995-5.538 0-7.646z"/><path d="M5.554 15.389A2.989 2.989 0 0 0 4 17.995V19h12v-1.005a2.989 2.989 0 0 0-1.556-2.607c.385-.41.621-.955.621-1.553 0-1.268-1.06-2.3-2.363-2.3s-2.363 1.032-2.363 2.3c0 .598.236 1.143.622 1.553-.377.21-.705.494-.961.834a3.067 3.067 0 0 0-.963-.836 2.26 2.26 0 0 0 .62-1.55c0-1.269-1.06-2.3-2.363-2.3s-2.363 1.031-2.363 2.3c0 .598.236 1.143.623 1.553z"/></svg>