<svg width="13" height="19" xmlns="http://www.w3.org/2000/svg"><path d="M3.164 8.143H5.73c.237 0 .428-.19.428-.424V5.174a.426.426 0 0 0-.428-.424H3.164a.426.426 0 0 0-.427.424V7.72c0 .234.191.424.427.424zm3.678-.424c0 .234.191.424.428.424h2.566c.236 0 .427-.19.427-.424V5.174a.426.426 0 0 0-.427-.424H7.27a.426.426 0 0 0-.428.424V7.72zm-3.678 5.174H5.73c.237 0 .428-.19.428-.424V9.924A.426.426 0 0 0 5.73 9.5H3.164a.426.426 0 0 0-.427.424v2.545c0 .234.191.424.427.424zM9.836 9.5H7.27a.426.426 0 0 0-.428.424v2.545c0 .234.191.424.428.424h2.566c.236 0 .427-.19.427-.424V9.924a.426.426 0 0 0-.427-.424zM6.671 3.393h1.026c.284 0 .514-.152.514-.34 0-.187-.23-.339-.514-.339H6.671c-.284 0-.513.152-.513.34 0 .187.23.339.513.339z"/><path d="M11.375 0h-9.75C.729 0 0 .71 0 1.583v15.834C0 18.29.729 19 1.625 19h9.75c.896 0 1.625-.71 1.625-1.583V1.583C13 .71 12.271 0 11.375 0zM7.719 17.417H5.28a.4.4 0 0 1-.406-.396.4.4 0 0 1 .406-.396h2.44a.4.4 0 0 1 .406.396.4.4 0 0 1-.406.396zm3.656-2.375h-9.75V1.583h9.75v13.459z"/><ellipse cx="9.921" cy="3.054" rx="1" ry="1"/></svg>