<svg xmlns="http://www.w3.org/2000/svg" width="23" height="17"><path d="M11.5 6.375c-1.906 0-3.45 1.428-3.45 3.188 0 1.76 1.544 3.187 3.45 3.187 1.905 0 3.45-1.427 3.45-3.188 0-1.76-1.545-3.187-3.45-3.187zm9.2-3.188h-2.76c-.38 0-.788-.271-.908-.604L16.318.605C16.198.272 15.79 0 15.41 0H7.59c-.38 0-.788.272-.908.605l-.714 1.978c-.12.333-.529.604-.908.604H2.3c-1.265 0-2.3.957-2.3 2.126v9.562C0 16.044 1.035 17 2.3 17h18.4c1.265 0 2.3-.956 2.3-2.125V5.312c0-1.168-1.035-2.125-2.3-2.125zm-9.2 11.688c-3.176 0-5.75-2.379-5.75-5.313 0-2.933 2.574-5.312 5.75-5.312 3.175 0 5.75 2.379 5.75 5.313 0 2.933-2.575 5.312-5.75 5.312zm8.395-8.076c-.444 0-.805-.333-.805-.744 0-.41.36-.744.805-.744.445 0 .805.333.805.744 0 .41-.36.744-.805.744z" fill="#030104"/></svg>